<mxfile host="Electron" modified="2024-03-08T15:59:42.804Z" agent="Mozilla/5.0 (Macintosh; Intel Mac OS X 10_15_7) AppleWebKit/537.36 (KHTML, like Gecko) draw.io/23.0.2 Chrome/120.0.6099.109 Electron/28.1.0 Safari/537.36" etag="95XxXpjoNFY1wV_uvdgY" version="23.0.2" type="device">
  <diagram name="Pagina-1" id="IOBdYsq4d9idPm2W_CNN">
    <mxGraphModel dx="871" dy="1133" grid="1" gridSize="10" guides="1" tooltips="1" connect="1" arrows="1" fold="1" page="1" pageScale="1" pageWidth="827" pageHeight="1169" background="#ffffff" math="0" shadow="0">
      <root>
        <mxCell id="0" />
        <mxCell id="1" parent="0" />
        <mxCell id="VTpDTCn6IOVOKVpeusTL-9" value="" style="endArrow=none;dashed=1;html=1;dashPattern=12 12;strokeWidth=1;rounded=0;fontSize=8;shadow=0;sketch=1;curveFitting=1;jiggle=2;" parent="1" edge="1">
          <mxGeometry width="50" height="50" relative="1" as="geometry">
            <mxPoint x="640" y="350" as="sourcePoint" />
            <mxPoint x="640" y="50" as="targetPoint" />
          </mxGeometry>
        </mxCell>
        <mxCell id="VTpDTCn6IOVOKVpeusTL-10" value="" style="group;fontSize=8;" parent="1" vertex="1" connectable="0">
          <mxGeometry x="30" y="50" width="781" height="293" as="geometry" />
        </mxCell>
        <mxCell id="ILqpV8_TUTsz5R65jiul-21" value="DP team" style="shape=umlActor;verticalLabelPosition=bottom;verticalAlign=top;html=1;outlineConnect=0;fontSize=8;sketch=1;curveFitting=1;jiggle=2;fillColor=none;strokeColor=#36393d;" parent="VTpDTCn6IOVOKVpeusTL-10" vertex="1">
          <mxGeometry y="37.5" width="26.4" height="50" as="geometry" />
        </mxCell>
        <mxCell id="ILqpV8_TUTsz5R65jiul-22" value="Witboost" style="rounded=0;whiteSpace=wrap;html=1;fontSize=8;sketch=1;curveFitting=1;jiggle=2;" parent="VTpDTCn6IOVOKVpeusTL-10" vertex="1">
          <mxGeometry x="105.59999999999997" y="45" width="105.59999999999998" height="35" as="geometry" />
        </mxCell>
        <mxCell id="ILqpV8_TUTsz5R65jiul-23" value="" style="edgeStyle=orthogonalEdgeStyle;rounded=0;orthogonalLoop=1;jettySize=auto;html=1;labelPosition=left;verticalLabelPosition=top;align=right;verticalAlign=bottom;fontSize=8;sketch=1;curveFitting=1;jiggle=2;" parent="VTpDTCn6IOVOKVpeusTL-10" source="ILqpV8_TUTsz5R65jiul-21" target="ILqpV8_TUTsz5R65jiul-22" edge="1">
          <mxGeometry relative="1" as="geometry" />
        </mxCell>
        <mxCell id="ILqpV8_TUTsz5R65jiul-24" value="deploy" style="edgeLabel;html=1;align=center;verticalAlign=bottom;resizable=0;points=[];fontSize=8;labelPosition=center;verticalLabelPosition=middle;" parent="ILqpV8_TUTsz5R65jiul-23" vertex="1" connectable="0">
          <mxGeometry relative="1" as="geometry">
            <mxPoint as="offset" />
          </mxGeometry>
        </mxCell>
        <mxCell id="ILqpV8_TUTsz5R65jiul-25" value="Provisioning&lt;br style=&quot;font-size: 8px;&quot;&gt;coordinator" style="rounded=0;whiteSpace=wrap;html=1;fontSize=8;sketch=1;curveFitting=1;jiggle=2;glass=0;fillColor=#eeeeee;strokeColor=#36393d;" parent="VTpDTCn6IOVOKVpeusTL-10" vertex="1">
          <mxGeometry x="289.2" y="45" width="105.59999999999998" height="35" as="geometry" />
        </mxCell>
        <mxCell id="ILqpV8_TUTsz5R65jiul-26" value="" style="edgeStyle=orthogonalEdgeStyle;rounded=0;orthogonalLoop=1;jettySize=auto;html=1;fontSize=8;verticalAlign=top;sketch=1;curveFitting=1;jiggle=2;" parent="VTpDTCn6IOVOKVpeusTL-10" source="ILqpV8_TUTsz5R65jiul-22" target="ILqpV8_TUTsz5R65jiul-25" edge="1">
          <mxGeometry relative="1" as="geometry" />
        </mxCell>
        <mxCell id="ILqpV8_TUTsz5R65jiul-27" value="provision" style="edgeLabel;html=1;align=center;verticalAlign=bottom;resizable=0;points=[];fontSize=8;" parent="ILqpV8_TUTsz5R65jiul-26" vertex="1" connectable="0">
          <mxGeometry x="-0.1778" relative="1" as="geometry">
            <mxPoint y="1" as="offset" />
          </mxGeometry>
        </mxCell>
        <mxCell id="ILqpV8_TUTsz5R65jiul-28" style="edgeStyle=orthogonalEdgeStyle;rounded=0;orthogonalLoop=1;jettySize=auto;html=1;sketch=1;curveFitting=1;jiggle=2;fontSize=8;" parent="VTpDTCn6IOVOKVpeusTL-10" source="ILqpV8_TUTsz5R65jiul-29" target="ILqpV8_TUTsz5R65jiul-25" edge="1">
          <mxGeometry relative="1" as="geometry" />
        </mxCell>
        <mxCell id="ILqpV8_TUTsz5R65jiul-29" value="Policy" style="text;html=1;align=center;verticalAlign=middle;resizable=0;points=[];autosize=1;strokeColor=none;fillColor=none;fontSize=8;" parent="VTpDTCn6IOVOKVpeusTL-10" vertex="1">
          <mxGeometry x="322" width="40" height="20" as="geometry" />
        </mxCell>
        <mxCell id="ILqpV8_TUTsz5R65jiul-39" value="provision" style="edgeStyle=orthogonalEdgeStyle;rounded=0;orthogonalLoop=1;jettySize=auto;html=1;sketch=1;curveFitting=1;jiggle=2;fontSize=8;" parent="VTpDTCn6IOVOKVpeusTL-10" target="ILqpV8_TUTsz5R65jiul-31" edge="1">
          <mxGeometry relative="1" as="geometry">
            <mxPoint x="346.0000000000001" y="80" as="sourcePoint" />
            <mxPoint x="340.9" y="143.21000000000004" as="targetPoint" />
            <Array as="points">
              <mxPoint x="341" y="80" />
            </Array>
          </mxGeometry>
        </mxCell>
        <mxCell id="ILqpV8_TUTsz5R65jiul-31" value="CDP SPARK Specific Provisioner&lt;br style=&quot;font-size: 8px;&quot;&gt;" style="rounded=0;whiteSpace=wrap;html=1;verticalAlign=top;fontSize=8;container=0;sketch=1;curveFitting=1;jiggle=2;fillColor=#cce5ff;strokeColor=#36393d;" parent="VTpDTCn6IOVOKVpeusTL-10" vertex="1">
          <mxGeometry x="80" y="130.71" width="420" height="99.29" as="geometry" />
        </mxCell>
        <mxCell id="ILqpV8_TUTsz5R65jiul-32" value="Validate&lt;br&gt;request" style="shape=step;perimeter=stepPerimeter;whiteSpace=wrap;html=1;fixedSize=1;fontSize=8;container=0;sketch=1;curveFitting=1;jiggle=2;" parent="VTpDTCn6IOVOKVpeusTL-10" vertex="1">
          <mxGeometry x="90" y="170" width="88" height="40.71" as="geometry" />
        </mxCell>
        <mxCell id="ILqpV8_TUTsz5R65jiul-33" value="Create&lt;br style=&quot;font-size: 8px;&quot;&gt;Quartz Job" style="shape=step;perimeter=stepPerimeter;whiteSpace=wrap;html=1;fixedSize=1;fontSize=8;container=0;sketch=1;curveFitting=1;jiggle=2;" parent="VTpDTCn6IOVOKVpeusTL-10" vertex="1">
          <mxGeometry x="170" y="170.71000000000004" width="90" height="40" as="geometry" />
        </mxCell>
        <mxCell id="VTpDTCn6IOVOKVpeusTL-4" style="edgeStyle=orthogonalEdgeStyle;rounded=0;orthogonalLoop=1;jettySize=auto;html=1;entryX=1;entryY=0.5;entryDx=0;entryDy=0;sketch=1;curveFitting=1;jiggle=2;fontSize=8;" parent="VTpDTCn6IOVOKVpeusTL-10" source="ILqpV8_TUTsz5R65jiul-34" target="ILqpV8_TUTsz5R65jiul-25" edge="1">
          <mxGeometry relative="1" as="geometry">
            <Array as="points">
              <mxPoint x="591" y="191" />
              <mxPoint x="591" y="62" />
            </Array>
          </mxGeometry>
        </mxCell>
        <mxCell id="ILqpV8_TUTsz5R65jiul-34" value="Report outcome" style="shape=step;perimeter=stepPerimeter;whiteSpace=wrap;html=1;fixedSize=1;fontSize=8;container=0;sketch=1;curveFitting=1;jiggle=2;" parent="VTpDTCn6IOVOKVpeusTL-10" vertex="1">
          <mxGeometry x="362" y="170.71000000000004" width="116" height="40" as="geometry" />
        </mxCell>
        <mxCell id="ILqpV8_TUTsz5R65jiul-36" value="Create Quartz trigger" style="shape=step;perimeter=stepPerimeter;whiteSpace=wrap;html=1;fixedSize=1;fontSize=8;movable=1;resizable=1;rotatable=1;deletable=1;editable=1;locked=0;connectable=1;container=0;sketch=1;curveFitting=1;jiggle=2;" parent="VTpDTCn6IOVOKVpeusTL-10" vertex="1">
          <mxGeometry x="250" y="170" width="120" height="40" as="geometry" />
        </mxCell>
        <mxCell id="ILqpV8_TUTsz5R65jiul-37" value="&lt;font style=&quot;font-size: 8px;&quot;&gt;if job scheduled&lt;/font&gt;" style="text;html=1;strokeColor=none;fillColor=none;align=center;verticalAlign=middle;whiteSpace=wrap;rounded=0;movable=1;resizable=1;rotatable=1;deletable=1;editable=1;locked=0;connectable=1;container=0;sketch=1;curveFitting=1;jiggle=2;fontSize=8;" parent="VTpDTCn6IOVOKVpeusTL-10" vertex="1">
          <mxGeometry x="280" y="163.00000000000003" width="60" height="30" as="geometry" />
        </mxCell>
        <mxCell id="VTpDTCn6IOVOKVpeusTL-1" value="CDP Private Cluster" style="group;sketch=1;curveFitting=1;jiggle=2;fillColor=#ffff88;strokeColor=#36393d;fontSize=8;" parent="VTpDTCn6IOVOKVpeusTL-10" vertex="1" connectable="0">
          <mxGeometry x="641" y="110.71000000000004" width="140" height="140" as="geometry" />
        </mxCell>
        <mxCell id="ILqpV8_TUTsz5R65jiul-6" value="YARN" style="rounded=0;whiteSpace=wrap;html=1;fontSize=8;container=0;sketch=1;curveFitting=1;jiggle=2;" parent="VTpDTCn6IOVOKVpeusTL-1" vertex="1">
          <mxGeometry x="9.593333333333362" y="31.669999999999845" width="118.80166666666666" height="16.67" as="geometry" />
        </mxCell>
        <mxCell id="ILqpV8_TUTsz5R65jiul-7" value="HDFS" style="rounded=0;whiteSpace=wrap;html=1;fontSize=8;container=0;sketch=1;curveFitting=1;jiggle=2;" parent="VTpDTCn6IOVOKVpeusTL-1" vertex="1">
          <mxGeometry x="9.593333333333362" y="61.669999999999845" width="118.80166666666666" height="16.67" as="geometry" />
        </mxCell>
        <mxCell id="ILqpV8_TUTsz5R65jiul-9" value="Livy" style="rounded=0;whiteSpace=wrap;html=1;fontSize=8;container=0;sketch=1;curveFitting=1;jiggle=2;" parent="VTpDTCn6IOVOKVpeusTL-1" vertex="1">
          <mxGeometry x="10.603333333333353" y="86.78999999999985" width="118.80166666666666" height="16.67" as="geometry" />
        </mxCell>
        <mxCell id="ILqpV8_TUTsz5R65jiul-40" style="edgeStyle=orthogonalEdgeStyle;rounded=0;orthogonalLoop=1;jettySize=auto;html=1;sketch=1;curveFitting=1;jiggle=2;fontSize=8;" parent="VTpDTCn6IOVOKVpeusTL-10" source="ILqpV8_TUTsz5R65jiul-32" target="ILqpV8_TUTsz5R65jiul-7" edge="1">
          <mxGeometry relative="1" as="geometry">
            <Array as="points">
              <mxPoint x="130" y="160" />
              <mxPoint x="601" y="160" />
              <mxPoint x="601" y="181" />
            </Array>
          </mxGeometry>
        </mxCell>
        <mxCell id="VTpDTCn6IOVOKVpeusTL-6" value="&lt;span style=&quot;color: rgb(0, 0, 0); font-family: Helvetica; font-size: 8px; font-style: normal; font-variant-ligatures: normal; font-variant-caps: normal; font-weight: 400; letter-spacing: normal; orphans: 2; text-align: center; text-indent: 0px; text-transform: none; widows: 2; word-spacing: 0px; -webkit-text-stroke-width: 0px; background-color: rgb(251, 251, 251); text-decoration-thickness: initial; text-decoration-style: initial; text-decoration-color: initial; float: none; display: inline !important;&quot;&gt;ProvisioningStatus&lt;/span&gt;" style="rounded=1;whiteSpace=wrap;html=1;sketch=1;curveFitting=1;jiggle=2;fillColor=#cdeb8b;strokeColor=#36393d;arcSize=50;fontSize=8;" parent="VTpDTCn6IOVOKVpeusTL-10" vertex="1">
          <mxGeometry x="461" y="80" width="100" height="32.5" as="geometry" />
        </mxCell>
        <mxCell id="VTpDTCn6IOVOKVpeusTL-7" value="" style="endArrow=none;dashed=1;html=1;strokeWidth=1;rounded=0;entryX=1;entryY=0.5;entryDx=0;entryDy=0;endSize=1;startSize=1;jumpSize=1;sketch=1;curveFitting=1;jiggle=2;fontSize=8;" parent="VTpDTCn6IOVOKVpeusTL-10" target="VTpDTCn6IOVOKVpeusTL-6" edge="1">
          <mxGeometry width="50" height="50" relative="1" as="geometry">
            <mxPoint x="591" y="100" as="sourcePoint" />
            <mxPoint x="421" y="120" as="targetPoint" />
          </mxGeometry>
        </mxCell>
        <mxCell id="W-OFGr1IpiILO-Ztb4lQ-51" value="" style="group;fontSize=8;" parent="1" vertex="1" connectable="0">
          <mxGeometry x="23" y="390" width="781" height="345" as="geometry" />
        </mxCell>
        <mxCell id="W-OFGr1IpiILO-Ztb4lQ-3" value="DP team" style="shape=umlActor;verticalLabelPosition=bottom;verticalAlign=top;html=1;outlineConnect=0;fontSize=8;sketch=1;curveFitting=1;jiggle=2;" parent="W-OFGr1IpiILO-Ztb4lQ-51" vertex="1">
          <mxGeometry x="44" y="55" width="30" height="60" as="geometry" />
        </mxCell>
        <mxCell id="W-OFGr1IpiILO-Ztb4lQ-6" value="Witboost" style="rounded=0;whiteSpace=wrap;html=1;fontSize=8;sketch=1;curveFitting=1;jiggle=2;" parent="W-OFGr1IpiILO-Ztb4lQ-51" vertex="1">
          <mxGeometry x="164" y="67.5" width="120" height="35" as="geometry" />
        </mxCell>
        <mxCell id="W-OFGr1IpiILO-Ztb4lQ-1" value="" style="edgeStyle=orthogonalEdgeStyle;rounded=0;orthogonalLoop=1;jettySize=auto;html=1;labelPosition=left;verticalLabelPosition=top;align=right;verticalAlign=bottom;fontSize=8;sketch=1;curveFitting=1;jiggle=2;" parent="W-OFGr1IpiILO-Ztb4lQ-51" source="W-OFGr1IpiILO-Ztb4lQ-3" target="W-OFGr1IpiILO-Ztb4lQ-6" edge="1">
          <mxGeometry relative="1" as="geometry" />
        </mxCell>
        <mxCell id="W-OFGr1IpiILO-Ztb4lQ-2" value="deploy /&amp;nbsp;&lt;br style=&quot;font-size: 8px;&quot;&gt;undeploy" style="edgeLabel;html=1;align=center;verticalAlign=middle;resizable=0;points=[];fontSize=8;" parent="W-OFGr1IpiILO-Ztb4lQ-1" vertex="1" connectable="0">
          <mxGeometry relative="1" as="geometry">
            <mxPoint as="offset" />
          </mxGeometry>
        </mxCell>
        <mxCell id="W-OFGr1IpiILO-Ztb4lQ-8" value="Provisioning&lt;br style=&quot;font-size: 8px;&quot;&gt;coordinator" style="rounded=0;whiteSpace=wrap;html=1;fontSize=8;sketch=1;curveFitting=1;jiggle=2;fillColor=#eeeeee;strokeColor=#36393d;" parent="W-OFGr1IpiILO-Ztb4lQ-51" vertex="1">
          <mxGeometry x="374" y="67.5" width="120" height="35" as="geometry" />
        </mxCell>
        <mxCell id="W-OFGr1IpiILO-Ztb4lQ-4" value="" style="edgeStyle=orthogonalEdgeStyle;rounded=0;orthogonalLoop=1;jettySize=auto;html=1;fontSize=8;sketch=1;curveFitting=1;jiggle=2;" parent="W-OFGr1IpiILO-Ztb4lQ-51" source="W-OFGr1IpiILO-Ztb4lQ-6" target="W-OFGr1IpiILO-Ztb4lQ-8" edge="1">
          <mxGeometry relative="1" as="geometry" />
        </mxCell>
        <mxCell id="W-OFGr1IpiILO-Ztb4lQ-5" value="validate" style="edgeLabel;html=1;align=center;verticalAlign=middle;resizable=0;points=[];fontSize=8;" parent="W-OFGr1IpiILO-Ztb4lQ-4" vertex="1" connectable="0">
          <mxGeometry x="-0.1778" relative="1" as="geometry">
            <mxPoint y="1" as="offset" />
          </mxGeometry>
        </mxCell>
        <mxCell id="W-OFGr1IpiILO-Ztb4lQ-10" style="edgeStyle=orthogonalEdgeStyle;rounded=0;orthogonalLoop=1;jettySize=auto;html=1;entryX=0.5;entryY=0;entryDx=0;entryDy=0;fontSize=8;sketch=1;curveFitting=1;jiggle=2;" parent="W-OFGr1IpiILO-Ztb4lQ-51" target="W-OFGr1IpiILO-Ztb4lQ-8" edge="1">
          <mxGeometry relative="1" as="geometry">
            <mxPoint x="434" y="40" as="sourcePoint" />
          </mxGeometry>
        </mxCell>
        <mxCell id="W-OFGr1IpiILO-Ztb4lQ-11" value="Policy" style="text;html=1;align=center;verticalAlign=middle;resizable=0;points=[];autosize=1;strokeColor=none;fillColor=none;fontSize=8;" parent="W-OFGr1IpiILO-Ztb4lQ-51" vertex="1">
          <mxGeometry x="414" y="20" width="40" height="20" as="geometry" />
        </mxCell>
        <mxCell id="W-OFGr1IpiILO-Ztb4lQ-24" value="CDP SPARK Specific Provisioner&lt;br style=&quot;font-size: 8px;&quot;&gt;" style="rounded=0;whiteSpace=wrap;html=1;verticalAlign=top;fontSize=8;sketch=1;curveFitting=1;jiggle=2;fillColor=#cce5ff;strokeColor=#36393d;" parent="W-OFGr1IpiILO-Ztb4lQ-51" vertex="1">
          <mxGeometry y="181.25" width="480" height="143.75" as="geometry" />
        </mxCell>
        <mxCell id="W-OFGr1IpiILO-Ztb4lQ-7" style="edgeStyle=orthogonalEdgeStyle;rounded=0;orthogonalLoop=1;jettySize=auto;html=1;entryX=0.5;entryY=0;entryDx=0;entryDy=0;sketch=1;curveFitting=1;jiggle=2;fontSize=8;" parent="W-OFGr1IpiILO-Ztb4lQ-51" source="W-OFGr1IpiILO-Ztb4lQ-8" target="W-OFGr1IpiILO-Ztb4lQ-24" edge="1">
          <mxGeometry relative="1" as="geometry" />
        </mxCell>
        <mxCell id="noRNNT1IxjzX4voKTsvx-42" value="validate" style="edgeLabel;html=1;align=center;verticalAlign=middle;resizable=0;points=[];fontSize=8;" parent="W-OFGr1IpiILO-Ztb4lQ-7" vertex="1" connectable="0">
          <mxGeometry x="-0.1147" y="-1" relative="1" as="geometry">
            <mxPoint as="offset" />
          </mxGeometry>
        </mxCell>
        <mxCell id="W-OFGr1IpiILO-Ztb4lQ-25" value="Validate descriptor" style="shape=step;perimeter=stepPerimeter;whiteSpace=wrap;html=1;fixedSize=1;horizontal=1;verticalAlign=top;fontSize=8;sketch=1;curveFitting=1;jiggle=2;" parent="W-OFGr1IpiILO-Ztb4lQ-51" vertex="1">
          <mxGeometry x="13.433198380566807" y="222.6470588235294" width="226.44534412955466" height="84.70588235294117" as="geometry" />
        </mxCell>
        <mxCell id="W-OFGr1IpiILO-Ztb4lQ-27" value="Validate &lt;br style=&quot;font-size: 8px;&quot;&gt;syntax" style="shape=step;perimeter=stepPerimeter;whiteSpace=wrap;html=1;fixedSize=1;fontSize=8;sketch=1;curveFitting=1;jiggle=2;" parent="W-OFGr1IpiILO-Ztb4lQ-51" vertex="1">
          <mxGeometry x="43.996842105263156" y="260.2941176470588" width="95.95141700404858" height="37.64705882352941" as="geometry" />
        </mxCell>
        <mxCell id="W-OFGr1IpiILO-Ztb4lQ-28" value="Validate JAR" style="shape=step;perimeter=stepPerimeter;whiteSpace=wrap;html=1;fixedSize=1;verticalAlign=top;fontSize=8;sketch=1;curveFitting=1;jiggle=2;" parent="W-OFGr1IpiILO-Ztb4lQ-51" vertex="1">
          <mxGeometry x="239.88" y="222.65" width="140.12" height="84.71" as="geometry" />
        </mxCell>
        <mxCell id="W-OFGr1IpiILO-Ztb4lQ-29" value="Check &lt;br style=&quot;font-size: 8px;&quot;&gt;HDFS path" style="shape=step;perimeter=stepPerimeter;whiteSpace=wrap;html=1;fixedSize=1;fontSize=8;sketch=1;curveFitting=1;jiggle=2;" parent="W-OFGr1IpiILO-Ztb4lQ-51" vertex="1">
          <mxGeometry x="267.7044534412955" y="260.2941176470588" width="95.95141700404858" height="37.64705882352941" as="geometry" />
        </mxCell>
        <mxCell id="W-OFGr1IpiILO-Ztb4lQ-32" style="edgeStyle=orthogonalEdgeStyle;rounded=0;orthogonalLoop=1;jettySize=auto;html=1;sketch=1;curveFitting=1;jiggle=2;fontSize=8;" parent="W-OFGr1IpiILO-Ztb4lQ-51" source="W-OFGr1IpiILO-Ztb4lQ-29" target="W-OFGr1IpiILO-Ztb4lQ-42" edge="1">
          <mxGeometry relative="1" as="geometry">
            <Array as="points">
              <mxPoint x="310" y="345" />
              <mxPoint x="607" y="345" />
              <mxPoint x="607" y="250" />
            </Array>
            <mxPoint x="651.5933333333332" y="195.03448275862047" as="targetPoint" />
          </mxGeometry>
        </mxCell>
        <mxCell id="W-OFGr1IpiILO-Ztb4lQ-40" value="CDP Private Cluster" style="group;sketch=1;curveFitting=1;jiggle=2;fillColor=#ffff88;strokeColor=#36393d;fontSize=8;" parent="W-OFGr1IpiILO-Ztb4lQ-51" vertex="1" connectable="0">
          <mxGeometry x="641" y="183.13" width="140" height="140" as="geometry" />
        </mxCell>
        <mxCell id="W-OFGr1IpiILO-Ztb4lQ-41" value="YARN" style="rounded=0;whiteSpace=wrap;html=1;fontSize=8;container=0;sketch=1;curveFitting=1;jiggle=2;" parent="W-OFGr1IpiILO-Ztb4lQ-40" vertex="1">
          <mxGeometry x="9.593333333333362" y="31.669999999999845" width="118.80166666666666" height="16.67" as="geometry" />
        </mxCell>
        <mxCell id="W-OFGr1IpiILO-Ztb4lQ-42" value="HDFS" style="rounded=0;whiteSpace=wrap;html=1;fontSize=8;container=0;sketch=1;curveFitting=1;jiggle=2;" parent="W-OFGr1IpiILO-Ztb4lQ-40" vertex="1">
          <mxGeometry x="9.593333333333362" y="61.669999999999845" width="118.80166666666666" height="16.67" as="geometry" />
        </mxCell>
        <mxCell id="W-OFGr1IpiILO-Ztb4lQ-43" value="Livy" style="rounded=0;whiteSpace=wrap;html=1;fontSize=8;container=0;sketch=1;curveFitting=1;jiggle=2;" parent="W-OFGr1IpiILO-Ztb4lQ-40" vertex="1">
          <mxGeometry x="10.603333333333353" y="86.78999999999985" width="118.80166666666666" height="16.67" as="geometry" />
        </mxCell>
        <mxCell id="W-OFGr1IpiILO-Ztb4lQ-49" style="edgeStyle=orthogonalEdgeStyle;rounded=0;orthogonalLoop=1;jettySize=auto;html=1;entryX=1;entryY=0.5;entryDx=0;entryDy=0;sketch=1;curveFitting=1;jiggle=2;fontSize=8;" parent="W-OFGr1IpiILO-Ztb4lQ-51" source="W-OFGr1IpiILO-Ztb4lQ-47" target="W-OFGr1IpiILO-Ztb4lQ-8" edge="1">
          <mxGeometry relative="1" as="geometry">
            <Array as="points">
              <mxPoint x="590" y="265" />
              <mxPoint x="590" y="85" />
            </Array>
          </mxGeometry>
        </mxCell>
        <mxCell id="W-OFGr1IpiILO-Ztb4lQ-47" value="Report&amp;nbsp;&lt;br style=&quot;font-size: 8px;&quot;&gt;outcome" style="shape=step;perimeter=stepPerimeter;whiteSpace=wrap;html=1;fixedSize=1;verticalAlign=middle;fontSize=8;sketch=1;curveFitting=1;jiggle=2;" parent="W-OFGr1IpiILO-Ztb4lQ-51" vertex="1">
          <mxGeometry x="374" y="222.64" width="86.44" height="84.71" as="geometry" />
        </mxCell>
        <mxCell id="W-OFGr1IpiILO-Ztb4lQ-48" value="&lt;meta charset=&quot;utf-8&quot; style=&quot;font-size: 8px;&quot;&gt;&lt;span style=&quot;color: rgb(0, 0, 0); font-family: Helvetica; font-size: 8px; font-style: normal; font-variant-ligatures: normal; font-variant-caps: normal; font-weight: 400; letter-spacing: normal; orphans: 2; text-align: center; text-indent: 0px; text-transform: none; widows: 2; word-spacing: 0px; -webkit-text-stroke-width: 0px; background-color: rgb(251, 251, 251); text-decoration-thickness: initial; text-decoration-style: initial; text-decoration-color: initial; float: none; display: inline !important;&quot;&gt;ValidationResult&lt;/span&gt;" style="rounded=1;whiteSpace=wrap;html=1;sketch=1;curveFitting=1;jiggle=2;fillColor=#cdeb8b;strokeColor=#36393d;arcSize=50;fontSize=8;" parent="W-OFGr1IpiILO-Ztb4lQ-51" vertex="1">
          <mxGeometry x="466.32" y="130" width="100" height="32.5" as="geometry" />
        </mxCell>
        <mxCell id="W-OFGr1IpiILO-Ztb4lQ-50" value="" style="endArrow=none;dashed=1;html=1;strokeWidth=1;rounded=0;endSize=1;startSize=1;jumpSize=1;sketch=1;curveFitting=1;jiggle=2;exitX=1;exitY=0.25;exitDx=0;exitDy=0;fontSize=8;" parent="W-OFGr1IpiILO-Ztb4lQ-51" source="W-OFGr1IpiILO-Ztb4lQ-48" edge="1">
          <mxGeometry width="50" height="50" relative="1" as="geometry">
            <mxPoint x="601" y="-270" as="sourcePoint" />
            <mxPoint x="590" y="120" as="targetPoint" />
          </mxGeometry>
        </mxCell>
        <mxCell id="9xjc9Uk_wACqaKgd4IFA-1" value="" style="endArrow=none;dashed=1;html=1;dashPattern=12 12;strokeWidth=1;rounded=0;fontSize=8;shadow=0;sketch=1;curveFitting=1;jiggle=2;" parent="W-OFGr1IpiILO-Ztb4lQ-51" edge="1">
          <mxGeometry width="50" height="50" relative="1" as="geometry">
            <mxPoint x="617" y="380" as="sourcePoint" />
            <mxPoint x="617" as="targetPoint" />
          </mxGeometry>
        </mxCell>
        <mxCell id="mihV1ckzbNkscSn_p-00-1" style="edgeStyle=orthogonalEdgeStyle;rounded=0;orthogonalLoop=1;jettySize=auto;html=1;exitX=0.5;exitY=1;exitDx=0;exitDy=0;" parent="W-OFGr1IpiILO-Ztb4lQ-51" source="W-OFGr1IpiILO-Ztb4lQ-27" target="W-OFGr1IpiILO-Ztb4lQ-27" edge="1">
          <mxGeometry relative="1" as="geometry" />
        </mxCell>
        <mxCell id="W-OFGr1IpiILO-Ztb4lQ-26" value="Validate cron&lt;br style=&quot;font-size: 8px;&quot;&gt;&amp;nbsp;expression" style="shape=step;perimeter=stepPerimeter;whiteSpace=wrap;html=1;fixedSize=1;fontSize=8;sketch=1;curveFitting=1;jiggle=2;" parent="W-OFGr1IpiILO-Ztb4lQ-51" vertex="1">
          <mxGeometry x="126.99862348178138" y="260.0041176470588" width="95.95141700404858" height="37.64705882352941" as="geometry" />
        </mxCell>
        <mxCell id="noRNNT1IxjzX4voKTsvx-1" value="DB" style="shape=cylinder3;whiteSpace=wrap;html=1;boundedLbl=1;backgroundOutline=1;size=15;fontSize=8;container=0;sketch=1;curveFitting=1;jiggle=2;" parent="1" vertex="1">
          <mxGeometry x="70" y="950.7099999999998" width="60" height="80" as="geometry" />
        </mxCell>
        <mxCell id="noRNNT1IxjzX4voKTsvx-2" style="edgeStyle=orthogonalEdgeStyle;rounded=0;orthogonalLoop=1;jettySize=auto;html=1;fontSize=8;sketch=1;curveFitting=1;jiggle=2;" parent="1" source="noRNNT1IxjzX4voKTsvx-12" target="noRNNT1IxjzX4voKTsvx-1" edge="1">
          <mxGeometry relative="1" as="geometry">
            <Array as="points">
              <mxPoint x="306" y="1073.21" />
              <mxPoint x="100" y="1073.21" />
            </Array>
          </mxGeometry>
        </mxCell>
        <mxCell id="noRNNT1IxjzX4voKTsvx-3" style="edgeStyle=orthogonalEdgeStyle;rounded=0;orthogonalLoop=1;jettySize=auto;html=1;fontSize=8;sketch=1;curveFitting=1;jiggle=2;" parent="1" source="noRNNT1IxjzX4voKTsvx-14" target="noRNNT1IxjzX4voKTsvx-1" edge="1">
          <mxGeometry relative="1" as="geometry">
            <Array as="points">
              <mxPoint x="414" y="1070" />
              <mxPoint x="100" y="1070" />
            </Array>
          </mxGeometry>
        </mxCell>
        <mxCell id="noRNNT1IxjzX4voKTsvx-10" value="CDP SPARK Specific Provisioner&lt;br style=&quot;font-size: 8px;&quot;&gt;" style="rounded=0;whiteSpace=wrap;html=1;verticalAlign=top;fontSize=8;container=0;labelPosition=center;verticalLabelPosition=middle;align=center;sketch=1;curveFitting=1;jiggle=2;fillColor=#cce5ff;strokeColor=#36393d;" parent="1" vertex="1">
          <mxGeometry x="160" y="943.21" width="440" height="100" as="geometry" />
        </mxCell>
        <mxCell id="noRNNT1IxjzX4voKTsvx-11" value="Validate &lt;br style=&quot;font-size: 8px;&quot;&gt;request" style="shape=step;perimeter=stepPerimeter;whiteSpace=wrap;html=1;fixedSize=1;fontSize=8;container=0;sketch=1;curveFitting=1;jiggle=2;" parent="1" vertex="1">
          <mxGeometry x="178.79111111111115" y="981.4242857142856" width="85.2063492063492" height="38.57142857142857" as="geometry" />
        </mxCell>
        <mxCell id="noRNNT1IxjzX4voKTsvx-12" value="Delete&lt;br style=&quot;font-size: 8px;&quot;&gt;Quartz Job" style="shape=step;perimeter=stepPerimeter;whiteSpace=wrap;html=1;fixedSize=1;fontSize=8;container=0;sketch=1;curveFitting=1;jiggle=2;" parent="1" vertex="1">
          <mxGeometry x="262" y="981.4242857142856" width="87.14285714285714" height="38.57142857142857" as="geometry" />
        </mxCell>
        <mxCell id="noRNNT1IxjzX4voKTsvx-35" style="edgeStyle=orthogonalEdgeStyle;rounded=0;orthogonalLoop=1;jettySize=auto;html=1;entryX=1;entryY=0.5;entryDx=0;entryDy=0;sketch=1;curveFitting=1;jiggle=2;fontSize=8;" parent="1" source="noRNNT1IxjzX4voKTsvx-13" target="noRNNT1IxjzX4voKTsvx-25" edge="1">
          <mxGeometry relative="1" as="geometry">
            <Array as="points">
              <mxPoint x="630" y="1001" />
              <mxPoint x="630" y="863" />
            </Array>
          </mxGeometry>
        </mxCell>
        <mxCell id="noRNNT1IxjzX4voKTsvx-13" value="Report outcome" style="shape=step;perimeter=stepPerimeter;whiteSpace=wrap;html=1;fixedSize=1;fontSize=8;container=0;sketch=1;curveFitting=1;jiggle=2;" parent="1" vertex="1">
          <mxGeometry x="474.00269841269846" y="981.4242857142856" width="112.31746031746032" height="38.57142857142857" as="geometry" />
        </mxCell>
        <mxCell id="noRNNT1IxjzX4voKTsvx-14" value="Delete Quartz trigger" style="shape=step;perimeter=stepPerimeter;whiteSpace=wrap;html=1;fixedSize=1;fontSize=8;container=0;sketch=1;curveFitting=1;jiggle=2;" parent="1" vertex="1">
          <mxGeometry x="343.3190476190476" y="981.4242857142856" width="141.36507936507937" height="38.57142857142857" as="geometry" />
        </mxCell>
        <mxCell id="noRNNT1IxjzX4voKTsvx-15" value="If job scheduled" style="text;html=1;strokeColor=none;fillColor=none;align=center;verticalAlign=middle;whiteSpace=wrap;rounded=0;fontSize=8;container=0;" parent="1" vertex="1">
          <mxGeometry x="384" y="985.71" width="60" height="10" as="geometry" />
        </mxCell>
        <mxCell id="noRNNT1IxjzX4voKTsvx-19" style="edgeStyle=orthogonalEdgeStyle;rounded=0;orthogonalLoop=1;jettySize=auto;html=1;entryX=0.5;entryY=0;entryDx=0;entryDy=0;sketch=1;curveFitting=1;jiggle=2;fontSize=8;" parent="1" source="noRNNT1IxjzX4voKTsvx-25" target="noRNNT1IxjzX4voKTsvx-10" edge="1">
          <mxGeometry relative="1" as="geometry" />
        </mxCell>
        <mxCell id="noRNNT1IxjzX4voKTsvx-20" value="unprovision" style="edgeLabel;html=1;align=center;verticalAlign=middle;resizable=0;points=[];fontSize=8;labelPosition=center;verticalLabelPosition=middle;" parent="noRNNT1IxjzX4voKTsvx-19" vertex="1" connectable="0">
          <mxGeometry x="-0.096" relative="1" as="geometry">
            <mxPoint as="offset" />
          </mxGeometry>
        </mxCell>
        <mxCell id="noRNNT1IxjzX4voKTsvx-21" value="DP team" style="shape=umlActor;verticalLabelPosition=bottom;verticalAlign=top;html=1;outlineConnect=0;fontSize=8;sketch=1;curveFitting=1;jiggle=2;" parent="1" vertex="1">
          <mxGeometry x="38" y="837.5" width="26.4" height="50" as="geometry" />
        </mxCell>
        <mxCell id="noRNNT1IxjzX4voKTsvx-22" value="Witboost" style="rounded=0;whiteSpace=wrap;html=1;fontSize=8;sketch=1;curveFitting=1;jiggle=2;" parent="1" vertex="1">
          <mxGeometry x="143.59999999999997" y="845" width="105.59999999999998" height="35" as="geometry" />
        </mxCell>
        <mxCell id="noRNNT1IxjzX4voKTsvx-23" value="" style="edgeStyle=orthogonalEdgeStyle;rounded=0;orthogonalLoop=1;jettySize=auto;html=1;labelPosition=left;verticalLabelPosition=top;align=right;verticalAlign=bottom;fontSize=8;" parent="1" source="noRNNT1IxjzX4voKTsvx-21" target="noRNNT1IxjzX4voKTsvx-22" edge="1">
          <mxGeometry relative="1" as="geometry" />
        </mxCell>
        <mxCell id="noRNNT1IxjzX4voKTsvx-24" value="undeploy" style="edgeLabel;html=1;align=center;verticalAlign=bottom;resizable=0;points=[];fontSize=8;labelPosition=center;verticalLabelPosition=middle;" parent="noRNNT1IxjzX4voKTsvx-23" vertex="1" connectable="0">
          <mxGeometry relative="1" as="geometry">
            <mxPoint as="offset" />
          </mxGeometry>
        </mxCell>
        <mxCell id="noRNNT1IxjzX4voKTsvx-25" value="Provisioning&lt;br style=&quot;font-size: 8px;&quot;&gt;coordinator" style="rounded=0;whiteSpace=wrap;html=1;fontSize=8;sketch=1;curveFitting=1;jiggle=2;fillColor=#eeeeee;strokeColor=#36393d;" parent="1" vertex="1">
          <mxGeometry x="327.2" y="845" width="105.59999999999998" height="35" as="geometry" />
        </mxCell>
        <mxCell id="noRNNT1IxjzX4voKTsvx-26" value="" style="edgeStyle=orthogonalEdgeStyle;rounded=0;orthogonalLoop=1;jettySize=auto;html=1;fontSize=8;verticalAlign=top;" parent="1" source="noRNNT1IxjzX4voKTsvx-22" target="noRNNT1IxjzX4voKTsvx-25" edge="1">
          <mxGeometry relative="1" as="geometry" />
        </mxCell>
        <mxCell id="noRNNT1IxjzX4voKTsvx-27" value="unprovision" style="edgeLabel;html=1;align=center;verticalAlign=bottom;resizable=0;points=[];fontSize=8;" parent="noRNNT1IxjzX4voKTsvx-26" vertex="1" connectable="0">
          <mxGeometry x="-0.1778" relative="1" as="geometry">
            <mxPoint y="1" as="offset" />
          </mxGeometry>
        </mxCell>
        <mxCell id="noRNNT1IxjzX4voKTsvx-28" style="edgeStyle=orthogonalEdgeStyle;rounded=0;orthogonalLoop=1;jettySize=auto;html=1;sketch=1;curveFitting=1;jiggle=2;fontSize=8;" parent="1" source="noRNNT1IxjzX4voKTsvx-29" target="noRNNT1IxjzX4voKTsvx-25" edge="1">
          <mxGeometry relative="1" as="geometry" />
        </mxCell>
        <mxCell id="noRNNT1IxjzX4voKTsvx-29" value="Policy" style="text;html=1;align=center;verticalAlign=middle;resizable=0;points=[];autosize=1;strokeColor=none;fillColor=none;fontSize=8;" parent="1" vertex="1">
          <mxGeometry x="360" y="800" width="40" height="20" as="geometry" />
        </mxCell>
        <mxCell id="noRNNT1IxjzX4voKTsvx-30" value="CDP Private Cluster" style="text;html=1;align=center;verticalAlign=middle;resizable=0;points=[];autosize=1;strokeColor=none;fillColor=none;horizontal=1;fontSize=8;container=0;" parent="1" vertex="1">
          <mxGeometry x="689" y="893.21" width="90" height="20" as="geometry" />
        </mxCell>
        <mxCell id="noRNNT1IxjzX4voKTsvx-31" value="Master node" style="group;sketch=1;curveFitting=1;jiggle=2;fillColor=#ffff88;strokeColor=#36393d;fontSize=8;" parent="1" vertex="1" connectable="0">
          <mxGeometry x="664" y="923.21" width="140" height="140" as="geometry" />
        </mxCell>
        <mxCell id="noRNNT1IxjzX4voKTsvx-32" value="YARN" style="rounded=0;whiteSpace=wrap;html=1;fontSize=8;container=0;sketch=1;curveFitting=1;jiggle=2;" parent="noRNNT1IxjzX4voKTsvx-31" vertex="1">
          <mxGeometry x="9.593333333333362" y="31.669999999999845" width="118.80166666666666" height="16.67" as="geometry" />
        </mxCell>
        <mxCell id="noRNNT1IxjzX4voKTsvx-33" value="HDFS" style="rounded=0;whiteSpace=wrap;html=1;fontSize=8;container=0;sketch=1;curveFitting=1;jiggle=2;" parent="noRNNT1IxjzX4voKTsvx-31" vertex="1">
          <mxGeometry x="9.593333333333362" y="61.669999999999845" width="118.80166666666666" height="16.67" as="geometry" />
        </mxCell>
        <mxCell id="noRNNT1IxjzX4voKTsvx-34" value="Livy" style="rounded=0;whiteSpace=wrap;html=1;fontSize=8;container=0;sketch=1;curveFitting=1;jiggle=2;" parent="noRNNT1IxjzX4voKTsvx-31" vertex="1">
          <mxGeometry x="10.603333333333353" y="86.78999999999985" width="118.80166666666666" height="16.67" as="geometry" />
        </mxCell>
        <mxCell id="noRNNT1IxjzX4voKTsvx-36" value="&lt;span style=&quot;color: rgb(0, 0, 0); font-family: Helvetica; font-size: 8px; font-style: normal; font-variant-ligatures: normal; font-variant-caps: normal; font-weight: 400; letter-spacing: normal; orphans: 2; text-align: center; text-indent: 0px; text-transform: none; widows: 2; word-spacing: 0px; -webkit-text-stroke-width: 0px; background-color: rgb(251, 251, 251); text-decoration-thickness: initial; text-decoration-style: initial; text-decoration-color: initial; float: none; display: inline !important;&quot;&gt;ProvisioningStatus&lt;br&gt;&lt;/span&gt;" style="rounded=1;whiteSpace=wrap;html=1;sketch=1;curveFitting=1;jiggle=2;fillColor=#cdeb8b;strokeColor=#36393d;arcSize=50;fontSize=8;" parent="1" vertex="1">
          <mxGeometry x="500" y="890" width="100" height="32.5" as="geometry" />
        </mxCell>
        <mxCell id="noRNNT1IxjzX4voKTsvx-37" value="" style="endArrow=none;dashed=1;html=1;strokeWidth=1;rounded=0;endSize=1;startSize=1;jumpSize=1;sketch=1;curveFitting=1;jiggle=2;exitX=1;exitY=0.25;exitDx=0;exitDy=0;fontSize=8;" parent="1" source="noRNNT1IxjzX4voKTsvx-36" edge="1">
          <mxGeometry width="50" height="50" relative="1" as="geometry">
            <mxPoint x="634.68" y="490" as="sourcePoint" />
            <mxPoint x="630" y="880" as="targetPoint" />
          </mxGeometry>
        </mxCell>
        <mxCell id="9xjc9Uk_wACqaKgd4IFA-2" value="" style="endArrow=none;dashed=1;html=1;dashPattern=12 12;strokeWidth=1;rounded=0;fontSize=8;shadow=0;sketch=1;curveFitting=1;jiggle=2;" parent="1" edge="1">
          <mxGeometry width="50" height="50" relative="1" as="geometry">
            <mxPoint x="640" y="1130" as="sourcePoint" />
            <mxPoint x="640" y="800" as="targetPoint" />
          </mxGeometry>
        </mxCell>
        <mxCell id="ILqpV8_TUTsz5R65jiul-1" value="DB" style="shape=cylinder3;whiteSpace=wrap;html=1;boundedLbl=1;backgroundOutline=1;size=15;fontSize=8;container=0;sketch=1;curveFitting=1;jiggle=2;fillColor=none;" parent="1" vertex="1">
          <mxGeometry x="13.200000000000003" y="190.7099999999998" width="60" height="80" as="geometry" />
        </mxCell>
        <mxCell id="ILqpV8_TUTsz5R65jiul-3" style="edgeStyle=orthogonalEdgeStyle;rounded=0;orthogonalLoop=1;jettySize=auto;html=1;fontSize=8;exitX=0.5;exitY=1;exitDx=0;exitDy=0;sketch=1;curveFitting=1;jiggle=2;" parent="1" source="ILqpV8_TUTsz5R65jiul-36" target="ILqpV8_TUTsz5R65jiul-1" edge="1">
          <mxGeometry relative="1" as="geometry">
            <Array as="points">
              <mxPoint x="340" y="310" />
              <mxPoint x="43" y="310" />
            </Array>
            <mxPoint x="411" y="290" as="sourcePoint" />
          </mxGeometry>
        </mxCell>
        <mxCell id="ILqpV8_TUTsz5R65jiul-2" style="edgeStyle=orthogonalEdgeStyle;rounded=0;orthogonalLoop=1;jettySize=auto;html=1;fontSize=8;exitX=0.5;exitY=1;exitDx=0;exitDy=0;sketch=1;curveFitting=1;jiggle=2;" parent="1" source="ILqpV8_TUTsz5R65jiul-33" target="ILqpV8_TUTsz5R65jiul-1" edge="1">
          <mxGeometry relative="1" as="geometry">
            <Array as="points">
              <mxPoint x="245" y="310" />
              <mxPoint x="43" y="310" />
            </Array>
            <mxPoint x="297.57142857142844" y="269.99571428571426" as="sourcePoint" />
          </mxGeometry>
        </mxCell>
        <mxCell id="SbOrLHO62iq7vJSmLNVX-2" value="DB" style="shape=cylinder3;whiteSpace=wrap;html=1;boundedLbl=1;backgroundOutline=1;size=15;fontSize=9;container=0;horizontal=1;sketch=1;curveFitting=1;jiggle=2;" vertex="1" parent="1">
          <mxGeometry x="21" y="1416.0499999999997" width="60" height="80" as="geometry" />
        </mxCell>
        <mxCell id="SbOrLHO62iq7vJSmLNVX-3" value="" style="endArrow=none;dashed=1;html=1;rounded=0;dashPattern=8 8;fontSize=9;horizontal=1;sketch=1;curveFitting=1;jiggle=2;endSize=1;startSize=1;jumpSize=1;" edge="1" parent="1">
          <mxGeometry width="50" height="50" relative="1" as="geometry">
            <mxPoint x="603" y="1593.21" as="sourcePoint" />
            <mxPoint x="603" y="1190" as="targetPoint" />
          </mxGeometry>
        </mxCell>
        <mxCell id="SbOrLHO62iq7vJSmLNVX-4" value="CDP Private Cluster" style="text;html=1;align=center;verticalAlign=middle;resizable=0;points=[];autosize=1;strokeColor=none;fillColor=none;horizontal=1;fontSize=9;container=0;" vertex="1" parent="1">
          <mxGeometry x="664" y="1300" width="100" height="20" as="geometry" />
        </mxCell>
        <mxCell id="SbOrLHO62iq7vJSmLNVX-5" value="DP team" style="shape=umlActor;verticalLabelPosition=bottom;verticalAlign=top;html=1;outlineConnect=0;fontSize=9;horizontal=1;container=0;sketch=1;curveFitting=1;jiggle=2;" vertex="1" parent="1">
          <mxGeometry x="11" y="1277.5" width="26.4" height="50" as="geometry" />
        </mxCell>
        <mxCell id="SbOrLHO62iq7vJSmLNVX-6" value="Master node&lt;br style=&quot;font-size: 9px;&quot;&gt;" style="rounded=0;whiteSpace=wrap;html=1;verticalAlign=top;fontSize=9;container=0;horizontal=1;sketch=1;curveFitting=1;jiggle=2;fillColor=#fff2cc;strokeColor=default;" vertex="1" parent="1">
          <mxGeometry x="621" y="1330" width="190" height="161.59" as="geometry" />
        </mxCell>
        <mxCell id="SbOrLHO62iq7vJSmLNVX-7" value="YARN RM" style="rounded=0;whiteSpace=wrap;html=1;fontSize=9;container=0;horizontal=1;sketch=1;curveFitting=1;jiggle=2;" vertex="1" parent="1">
          <mxGeometry x="642.8366666666667" y="1368.423157894737" width="110.31583333333332" height="15.792631578947368" as="geometry" />
        </mxCell>
        <mxCell id="SbOrLHO62iq7vJSmLNVX-8" value="HDFS NN" style="rounded=0;whiteSpace=wrap;html=1;fontSize=9;container=0;horizontal=1;sketch=1;curveFitting=1;jiggle=2;" vertex="1" parent="1">
          <mxGeometry x="642.8366666666667" y="1400.2542105263155" width="110.31583333333332" height="15.792631578947368" as="geometry" />
        </mxCell>
        <mxCell id="SbOrLHO62iq7vJSmLNVX-9" style="edgeStyle=orthogonalEdgeStyle;rounded=0;orthogonalLoop=1;jettySize=auto;html=1;fontSize=9;horizontal=1;sketch=1;curveFitting=1;jiggle=2;" edge="1" parent="1" source="SbOrLHO62iq7vJSmLNVX-11" target="SbOrLHO62iq7vJSmLNVX-7">
          <mxGeometry relative="1" as="geometry">
            <mxPoint x="760.1505882352944" y="1453.945238095238" as="sourcePoint" />
            <mxPoint x="768" y="1373" as="targetPoint" />
            <Array as="points">
              <mxPoint x="790" y="1454" />
              <mxPoint x="790" y="1373" />
            </Array>
          </mxGeometry>
        </mxCell>
        <mxCell id="SbOrLHO62iq7vJSmLNVX-10" value="Start Spark app" style="edgeLabel;html=1;align=center;verticalAlign=middle;resizable=0;points=[];fontSize=9;horizontal=0;container=0;" vertex="1" connectable="0" parent="SbOrLHO62iq7vJSmLNVX-9">
          <mxGeometry x="-0.169" y="1" relative="1" as="geometry">
            <mxPoint as="offset" />
          </mxGeometry>
        </mxCell>
        <mxCell id="SbOrLHO62iq7vJSmLNVX-11" value="Livy" style="rounded=0;whiteSpace=wrap;html=1;fontSize=9;container=0;horizontal=1;sketch=1;curveFitting=1;jiggle=2;" vertex="1" parent="1">
          <mxGeometry x="642.8341176470589" y="1433.157894736842" width="110.31647058823528" height="45.78631578947368" as="geometry" />
        </mxCell>
        <mxCell id="SbOrLHO62iq7vJSmLNVX-12" value="Quartz embedded&lt;br style=&quot;font-size: 9px;&quot;&gt;(in_process)" style="rounded=0;whiteSpace=wrap;html=1;verticalAlign=top;fontSize=9;container=0;sketch=1;curveFitting=1;jiggle=2;fillColor=#f9f7ed;strokeColor=#36393d;" vertex="1" parent="1">
          <mxGeometry x="153" y="1365.26" width="180" height="181.58" as="geometry" />
        </mxCell>
        <mxCell id="SbOrLHO62iq7vJSmLNVX-13" value="Trigger 1" style="rounded=0;whiteSpace=wrap;html=1;fontSize=9;container=0;sketch=1;curveFitting=1;jiggle=2;" vertex="1" parent="1">
          <mxGeometry x="163" y="1409.48" width="80" height="10.52" as="geometry" />
        </mxCell>
        <mxCell id="SbOrLHO62iq7vJSmLNVX-14" value="Trigger 2" style="rounded=0;whiteSpace=wrap;html=1;fontSize=9;container=0;sketch=1;curveFitting=1;jiggle=2;" vertex="1" parent="1">
          <mxGeometry x="163" y="1427.69" width="80" height="10.52" as="geometry" />
        </mxCell>
        <mxCell id="SbOrLHO62iq7vJSmLNVX-15" value="Job 1" style="rounded=0;whiteSpace=wrap;html=1;fontSize=9;container=0;sketch=1;curveFitting=1;jiggle=2;" vertex="1" parent="1">
          <mxGeometry x="243" y="1453.95" width="80" height="10.52" as="geometry" />
        </mxCell>
        <mxCell id="SbOrLHO62iq7vJSmLNVX-16" style="edgeStyle=orthogonalEdgeStyle;rounded=0;orthogonalLoop=1;jettySize=auto;html=1;exitX=1;exitY=0.5;exitDx=0;exitDy=0;fontSize=9;sketch=1;curveFitting=1;jiggle=2;" edge="1" parent="1" source="SbOrLHO62iq7vJSmLNVX-13" target="SbOrLHO62iq7vJSmLNVX-15">
          <mxGeometry relative="1" as="geometry" />
        </mxCell>
        <mxCell id="SbOrLHO62iq7vJSmLNVX-17" value="Job 2" style="rounded=0;whiteSpace=wrap;html=1;fontSize=9;container=0;sketch=1;curveFitting=1;jiggle=2;" vertex="1" parent="1">
          <mxGeometry x="243" y="1472.95" width="80" height="10.52" as="geometry" />
        </mxCell>
        <mxCell id="SbOrLHO62iq7vJSmLNVX-18" style="edgeStyle=orthogonalEdgeStyle;rounded=0;orthogonalLoop=1;jettySize=auto;html=1;entryX=0;entryY=0.5;entryDx=0;entryDy=0;fontSize=9;sketch=1;curveFitting=1;jiggle=2;" edge="1" parent="1" source="SbOrLHO62iq7vJSmLNVX-14" target="SbOrLHO62iq7vJSmLNVX-17">
          <mxGeometry relative="1" as="geometry" />
        </mxCell>
        <mxCell id="SbOrLHO62iq7vJSmLNVX-19" value="Job 3" style="rounded=0;whiteSpace=wrap;html=1;fontSize=9;container=0;sketch=1;curveFitting=1;jiggle=2;" vertex="1" parent="1">
          <mxGeometry x="243" y="1491.59" width="80" height="12.52" as="geometry" />
        </mxCell>
        <mxCell id="SbOrLHO62iq7vJSmLNVX-20" value="persistence" style="endArrow=classic;startArrow=classic;html=1;rounded=0;fontSize=9;verticalAlign=bottom;sketch=1;curveFitting=1;jiggle=2;" edge="1" parent="1" source="SbOrLHO62iq7vJSmLNVX-2" target="SbOrLHO62iq7vJSmLNVX-12">
          <mxGeometry width="50" height="50" relative="1" as="geometry">
            <mxPoint x="383" y="1510" as="sourcePoint" />
            <mxPoint x="433" y="1460" as="targetPoint" />
            <Array as="points">
              <mxPoint x="121" y="1456" />
            </Array>
          </mxGeometry>
        </mxCell>
        <mxCell id="SbOrLHO62iq7vJSmLNVX-21" value="" style="shape=image;verticalLabelPosition=bottom;labelBackgroundColor=default;verticalAlign=top;aspect=fixed;imageAspect=0;image=data:image/png,iVBORw0KGgoAAAANSUhEUgAAA8AAAAPACAYAAAD61hCbAAAAAXNSR0IArs4c6QAAAERlWElmTU0AKgAAAAgAAYdpAAQAAAABAAAAGgAAAAAAA6ABAAMAAAABAAEAAKACAAQAAAABAAADwKADAAQAAAABAAADwAAAAAAhKZYGAABAAElEQVR4AezdCZx1V1Ug+oxkIIEAJgwRCASZBAnzDJFG0H7giK0t2KIytLQ+BES79df6xG59+kRtFUFAoVFABWwVtVFUREHEIIM+hjCGBBASIRNkIAO9VvJVUl/lVtUdzrD2Of/9+63vq7p17z5r/8+5++x176lbhxyiESBAgAABAgQIECBAgAABAgQIECBAgAABAgQIECBAgAABAgQIECBAgAABAgQIECBAgAABAgQIECBAgAABAgQIECBAgAABAgQIECBAgAABAgQIECBAgAABAgQIECBAgAABAgQIECBAgAABAgQIECBAgAABAgQIECBAgAABAgQIECBAgAABAgQIECBAgAABAgQIECBAgAABAgQIECBAgAABAgQIECBAgAABAgQIECBAgAABAgQIECBAgAABAgQIECBAgAABAgQIECBAgAABAgQIECBAgAABAgQIECBAgAABAgQIECBAgAABAgQIECBAgAABAgQIECBAgAABAgQIECBAgAABAgQIECBAgAABAgQIECBAgAABAgQIECBAgAABAgQIECBAgAABAgQIECBAgAABAgQIECBAgAABAgQIECBAgAABAgQIECBAgAABAgQIECBAgAABAgQIECBAgAABAgQIECBAgAABAgQIECBAgAABAgQIECBAgAABAgQIECBAgAABAgQIECBAgAABAgQIECBAgAABAgQIECBAgAABAgQIECBAgAABAgQIECBAgAABAgQIECBAgAABAgQIECBAgAABAgQIECBAgAABAgQIECBAgAABAgQIECBAgAABAgQIECBAgAABAgQIECBAgAABAgQIECBAgAABAgQIECBAgAABAgQIECBAgAABAgQIECBAgAABAgQIECBAgAABAgQIECBAgAABAgQIECBAgAABAgQIECBAgAABAgQIECBAgAABAgQIECBAgAABAgQIECBAgAABAgQIECBAgAABAgQIECBAgAABAgQIECBAgAABAgQIECBAgAABAgQIECBAgAABAgQIECBAgAABAgQIECBAgAABAgQIECBAgAABAgQIECAwtsChYydg+wQIECBAYGSBPBceH3HCjrhZfH/TiGMPxDFLfH1E3Cfj8B2x87b8PtuVEVdti53f58/ytoxLDsSlS3x9Ydzn/IgLdsTF8f2XIjQCBAgQIDBLAQXwLHe7QRMgQGDSAlmo3jLipAP/7/z6xLh9e7GbRW4WrHNoWVBncby9MD4vvv/MgTh3wddZcGsECBAgQGASAgrgSexGgyBAgMAsBPKcdauI226L2x34+jbx/1ahm+/mat0J5LvGW4Xxp+LrcyLOPvB/fp3x6QjvLAeCRoAAAQK1BRTAtfeP7AgQIDAngcNisF8ecacDcUr8v1XgZtF7csSNIrR6Al+MlD4ZsVUQZ4F8VsSHD8Qn4v+rIzQCBAgQIDCqgAJ4VH4bJ0CAwOwE8ndfT4k4NWKr0N36/w5x21ER2vQELo8hfSxiqyDe+v8jcdtZEVdGaAQIECBAoHcBBXDvxDZAgACBWQocHaO+S8TdI75y2/93jK+zCNYIbAlk8fvRiPdGvG/b/2fG15dFaAQIECBAoDMBBXBnlDoiQIDALAXyHdsscrdiq9jNQvfwWYoYdFcC+YFdWRhvL4rz64x8R1kjQIAAAQIrCyiAVybzAAIECMxW4CYx8tMi7r0tsvD1jm4gaIMJ5DvGWQS/a1u8O76+KEIjQIAAAQJ7CiiA9+TxQwIECMxWID9R+T4R24vdfFfXeWO2h0TpgecnUOe7xduL4nfG9/nnnTQCBAgQIHCdgIXMdRS+IECAwGwF8vd1s9h9YMSDDsTt4n+NQOsC+WnUf38g3h7/Z1Hs94oDQSNAgMBcBRTAc93zxk2AwJwF8hOYtwrdLHrzsuYj5wxi7LMRuCJGmpdLZzG8VRjnJ1FrBAgQIDATAQXwTHa0YRIgMFuB/P3cfHf3EQfiwfH/l0VoBAhcK/Cv8d/bIv7mQOS7xP4sUyBoBAgQmKKAAniKe9WYCBCYs8CNYvAPiMiC95ERD4k4LkIjQGA5gc/H3f4u4s0RWRT/Q8QXIzQCBAgQmICAAngCO9EQCBCYtUD+/m4WuVnsZtGblzbnbRoBAt0I5O8M5+XSWQxnUZzFsd8jDgSNAAECLQoogFvca3ImQGDOAjlv3yviayIeE/GwCAVvIGgEBhLI4vctEX8e8caI90Tkp1BrBAgQINCAgAK4gZ0kRQIEZi9wcghsFbz/Jr4+afYiAAjUETg3UvnLiK2C+JN1UpMJAQIECOwUUADvFPE9AQIExhc4JlL46ojHRmThe7cIjQCBNgTeH2nmO8N/FvGmiEsjNAIECBAoIqAALrIjpEGAwOwF8l3e/yvi8RH5Lm8WwRoBAm0LZPGb7w6/PuJPIrw7HAgaAQIExhRQAI+pb9sECMxZIOff+0c87kDce84Yxk5gJgLvinH+8YE4I/73u8Mz2fGGSYBAHQEFcJ19IRMCBKYvcGwMMS9rznd5/23ELSM0AgTmKfCZGPafRuS7w3m59CURGgECBAj0LKAA7hlY9wQIzF7gJiGQ7/J+S8TXRbi0ORA0AgQOEshLpf93xOsi8h3iiyI0AgQIEOhBQAHcA6ouCRCYvcDNQ+AbIrLozQ+xulGERoAAgWUEvhh3yg/RymL4DyM+F6ERIECAQEcCCuCOIHVDgMDsBfJy5m+KyKL39IgjIjQCBAhsInBlPPivI7IY/l8Redm0RoAAAQIbCCiAN8DzUAIEZi9wsxDIgveJEY+IOCxCI0CAQB8CV0enfxPxyogsiM+P0AgQIEBgRQEF8Ipg7k6AwOwF8nd4Hx/xHRH5O70ubw4EjQCBQQXyMun8neFXRbw+In+HWCNAgACBJQQUwEsguQsBArMXyMuZHx2RRe83RhwfoREgQKCCwMWRxB9EZDH8FxF52bRGgAABArsIKIB3gXEzAQIEQuBBEXl587dFnBihESBAoLLAeZHc70b8dsTbKycqNwIECIwloAAeS952CRCoKnCrSOw7I7474m5Vk5QXAQIE9hF4f/z8ZRG/FfHpfe7rxwQIEJiNgAJ4NrvaQAkQ2EPgyPhZ/q3eLHrz93p9gnMgaAQITEIgL4nO3xfOYjj/xvAVERoBAgRmK6AAnu2uN3ACBELgnhFZ9D4pwiXOgaARIDBpgbxEOi+PzmL4nyc9UoMjQIDALgIK4F1g3EyAwGQF8gOssuD93oj7TnaUBkaAAIG9Bf4xfvwbEVkQ5wdpaQQIEJiFgAJ4FrvZIAkQCIHTIv5jRH6o1XERGgECBAgccsjnAyH/tvCLIt4NhAABAlMXUABPfQ8bH4F5Cxwdw/93Ed8XkZ/orBEgQIDA7gJ/Hz96YcTvRVy2+938hAABAu0KKIDb3XcyJ0Bgd4E7x4+eHvHkiJtHaAQIECCwvMDn4q4vj/j1iA9GaAQIEJiMgAJ4MrvSQAjMXuCwEPj6iO+PeFSE+S0QNAIECGwg8KV47F9F/GrEH0VcHaERIECgaQELxKZ3n+QJEAiBYyKeHPGsiK+I0AgQIECge4EPRZe/GPHyiEsjNAIECDQpoABucrdJmgCBEDgp4j9FPCPiyyI0AgQIEOhf4F9jE78W8YKIc/vfnC0QIECgWwEFcLeeeiNAoH+Bu8Ymnh3xnRH5IVcaAQIECAwvkB+S9VsRvxDxgeE3b4sECBBYT0ABvJ6bRxEgMLzAI2OTz4l4XIS5a3h/WyRAgMAigfw94T+OeH7EmxfdwW0ECBCoJGARWWlvyIUAgZ0Ch8cNT4j4oYj77fyh7wkQIECglMA7Ipufj3htxFWlMpMMAQIEDggogB0KBAhUFDguknpKxA9G3L5ignKapMAlMaoLDsT5277O2y6M+EJEfvhP3i9j+9fbv78ifpaL/+1x5YLv46ZDjojIF3q2Yuf3efuREcdG5Ae+5f9bsf37/PrGETeNOGFb3Gzb1/k4jcAQAh+PjfxSxEsjPj/EBm2DAAECywoogJeVcj8CBIYQODk28n9H5N/wzYW8RmATgYviwZ/ZFucu+Pq8uG2r2M3CdcotC+ksjrMoPjHilhEnHfh/59f5/U0iNAKbCOQLR/m3hH854pObdOSxBAgQ6EpAAdyVpH4IENhE4Kviwfn7vf8+IhfpGoH9BPJd2bMjztkW27/PxfblEdr6Avkhc7eJuO2BuN22r/O2/D4Lao3AfgL54tKrI/L3hP9pvzv7OQECBPoUUAD3qatvAgT2E3hI3OEnIh6z3x39fHYCuWD+WMRHIj68LfK2LHpdVhkIBVr+ukIWw3eIuNO2OPXAbV7QCgjtIIE/j+9+MuLvDrrVNwQIEBhIQAE8ELTNECBwkMD947vnRXztQbf6Zm4CX4oBfzzifRH5Z1S2F7r5bu5VEVq7Avn7y/ku8fbCOP+M2d0jbh9hDRIIM25viLH/eMQZMzYwdAIERhBw8hkB3SYJzFjgXjH2LHy/fsYGcxz61THosyKy0H3vgf/z6/dH5AdLafMTyA/sultEFsMZX3ng/1Pi/8MitPkI/FEMNQvh98xnyEZKgMCYAgrgMfVtm8B8BHKB+5MR3xJh3pn2fr84hpcL2XcdiPw63929JEIjsJ/AsXGHfJc4Xyy794HIr4+P0KYrkFeDvC7iJyLyxTGNAAECvQlYiPZGq2MCBELgKyJyQZMfbuVdnUCYWDs3xrNV6G79n5cx52JWI9CVQK5V8jLqrYJ46/+TutqAfsoI5NUi+WFZ+YLph8pkJRECBCYloACe1O40GAJlBO4QmfzXiP8Qkb8HqLUvcGUM4d0Rbz0Q+QE2+UnLGoGxBE6ODecH6T30QJwW/+ffUdbaF8jf/39FxE9FfKz94RgBAQKVBBTAlfaGXAi0L5CfBvtjEd8T4dNf296fF0b6b4vYKnjfHl+7jLntfTr17PPy6QdGbBXED46vbzr1QU98fFfE+H4z4r9FfGLiYzU8AgQGElAADwRtMwQmLnDrGN9/iXhaxFETH+tUh5fvsmwVu/l/flhVXo6oEWhVIH/tIj9ca6sgzv/z6hStPYHLI+UXR/xMxL+0l76MCRCoJKAArrQ35EKgPYETI+UfiXhGxDHtpT/bjLdfzvyWUMiC16JytofDrAaeL9ZlIfywA/+7bLqt3X9ppPtrET8bcV5bqcuWAIEqAgrgKntCHgTaErhZpPvciB+IOK6t1GeZbV5GmIXuX0Vksety5kDQCITA9sumHxXfZ2F8JJnyAp+PDH8l4v+LOL98thIkQIAAAQIEmhW4UWT+nIgLIvKTfkVdg4/H/nlRxDdG+BMygaARWEIgnyv5nMnnTj6HzHG1DfJclOekPDdpBAgQIECAAIFOBR4fvX0wwoKwpsFlsW/eGPHsiLtHaAQIbC6Qz6V8TuVzK59j5r+aBnluynOURoAAAQIECBDYWCAXgH8eYeFXz+CjsV9eEPG4iBtHaAQI9CeQz7F8ruVzLp975sR6Bnmu8gJgIGgECBAgQIDA6gI3j4fk71jl749a6NUwyA+AeUPEMyPuEqERIDCeQD4H87mYz8l8bponaxjkOSvPXXkO0wgQIECAAAEC+wocEff4gYjPRljQjW/wodgPvxzxdRE+aTsQNAIFBfK5mc/RfK7mc9bcOb5BnsPyXJbnNI0AAQIECBAgsFDgMXHreyMs3sY1ODP2wU9F3CNCI0CgPYF87uZzOJ/L5tNxDfKcluc2jQABAgQIECBwncCd46vXR1iojWfw4fD/6YjTIjQCBKYjkM/pfG7nc9wcO55BnuPyXKcRIECAAAECMxa4aYz9+RFfjLAwG97gY+H+cxH3i9AIEJi+QD7X8zmfz31z7vAGea7Lc16e+zQCBAgQIEBgRgKHxVifFnFuhEXYsAbnhPkvRDwwQiNAYL4COQfkXJBzgnl4WIM89+U5MM+FGgECBAgQIDBxgdNjfO+OsOAazuBT4f0/Ih4acWiERoAAgS2BnBNybsg5IucKc/NwBnkuPD1CI0CAAAECBCYocPsY0+siLK6GMfh0WOffC31khHcZAkEjQGBfgZwrcs7IuSPnEPP1MAZ5brx9hEaAAAECBAhMQCAXVPm3Kj8fYTHVr8FlYfzqiEdHHB6hESBAYF2BnENyLsk5JecW83e/BnmOzHOlFywDQSNAgAABAq0K3DMS//sIC6d+DfLPbDwr4hYRGgECBLoWyLkl55ica8zn/RrkOTPPnRoBAgQIECDQkMBRketPRfh05/4WSl8I35dFPCRCI0CAwFACOefk3JNzkGK4H4M8d+Y5NM+lGgECBAgQIFBc4GGR3/sjLIz6MXhn2H5fhD+jEQgaAQKjCeQclHNRzknm+34M8lya51SNAAECBAgQKChwk8jp1yKujrAY6tbgojB9UcR9IzQCBAhUE8i5KeeonKvM/90a5Dk1z615jtUIECBAgACBIgLfEHl8IsLCp1uDt4Xp90TcOEIjQIBAdYGcq3LOyrnL+aBbgzzH5rlWI0CAAAECBEYUuFVs+/ciLHS6M/hceObf47xHhEaAAIFWBXIOy7ks5zTniO4M8pyb516NAAECBAgQGFggX+W3sOluUfOO8HxixNED70ebI0CAQJ8COafl3JZznEK4G4M89+Y5WCNAgAABAgQGEDg1tvGXERYymxvk73b9ccTpERoBAgSmLnB6DDDnPJ8Vsfn5I8/BeS7Oc7JGgAABAgQI9CBwRPT5wxGXRCh+NzO4LAxfEnHXCI0AAQJzE8i5L+fAnAudTzYzyHNynpvzHK0RIECAAAECHQncJ/p5Z4SFymYG/xqGz4s4KUIjQIDA3AVyLsw5MedG55fNDPIcnedqjQABAgQIENhAIF9R/smIKyMsTtY3+FD4PSPimAiNAAECBA4WyLkx58icK51r1jfIc3Wes70bHAgaAQIECBBYVeCO8QB/ymL9hUgu4t4a8U0Rh0VoBAgQILC3QM6VOWfm3KkQXt8gz915DtcIECBAgACBJQX+Q9zvoggLkNUNrgq310Y8KEIjQIAAgfUEcg7NuTTnVOei1Q3yHJ7nco0AAQIECBDYQ+CE+NnvRlhsrG7whXD71QifyBkIGgECBDoSyDk159acY52bVjfIc3qe2zUCBAgQIEBgh8Aj4/uzIywwVjM4P8x+POLmERoBAgQI9COQc2zOtTnnOk+tZpDn9jzHawQIECBAgEAIHBnx0xEuM1ttQZGXl/1UhFfWA0EjQIDAQAI55+bcm3OwQnh5gzzH57k+z/kaAQIECBCYrcCdY+RnRFhELG+Ql+H9bMQtIjQCBAgQGEcg5+Cci10avfz5K8/1ec7Pc79GgAABAgRmJ/CUGPHnIxS/yxlcGla/GHHLCI0AAQIEagjknJxzc87RzmfLGeS5P9cAGgECBAgQmIVAvmr++xEWCssZXB5WvxZxcoRGgAABAjUFco7OuTrnbOe35QxyLeBqpkDQCBAgQGC6Ao+OoX0ywuJgf4MrwumlEbeP0AgQIECgDYGcs3PuzjncuW5/g1wT5NpAI0CAAAECkxK4UYzm5yOujrAg2NvgyjB6RYQ/ZxQIGgECBBoVyDk85/Kc05339jbItUGuEXKtoBEgQIAAgeYF7hYjeFeEBcDeBrkA+J2Iu0ZoBAgQIDANgZzTc273AvDe58BcI+RaIdcMGgECBAgQaFbgqZH5JRGK370N8veg7tnsXpY4AQIECOwnkHO8z7/Y+1yYa4VcM+TaQSNAgAABAk0JHBXZ5u9AKXz3NnhzGN23qT0rWQIECBDYRCDn/Jz7nR/3Nsg1RK4lNAIECBAgUF7gdpGhv+2794n9rDD61vJ7UoIECBAg0JdAngPOilAI726Qa4lcU2gECBAgQKCsQH6S43kRTuiLDfJvH/5YxNERGgECBAjMWyDPBXlOyHOD8+Zig1xT+JToQNAIECBAoJ7Aj0RKPu1y8Qk8P/wkPw30NvV2m4wIECBAYGSBPDfkOcIHZS0+h+baItcYGgECBAgQKCFwfGTxugivXi82eFvYPKDEnpIEAQIECFQWyHNFnjOcTxcb5Foj1xwaAQIECBAYTSD/XMH7I5ysb2jwiXB5YsShERoBAgQIEFhGIM8Zee7Ic4hz6w0Ncs3hTyUFgkaAAAECwwt8S2zy4ggn6IMN8k84PC/i2AiNAAECBAisI5DnkDyX5DnFefZgg1x75BpEI0CAAAECgwgcHlv52Qgn5Bsa/E64+MTKQQ5DGyFAgMAsBPKckucW59wbGuRaJNckGgECBAgQ6E3gxOj5LyOciA82eEeYPKw3dR0TIECAwNwF8hyT5xrn34MNck2SaxONAAECBAh0LnD/6PHsCCff6w0+HR7fE3FYhEaAAAECBPoUyHNNnnPy3ONcfL3B2eGRaxSNAAECBAh0JvDU6OmyCCfcaw3yT1W8JOKECI0AAQIECAwpkOeePAf5s0nXr0tyjZJrFY0AAQIECGwkcFQ8+qURCt/rDT4YHqdHaAQIECBAYEyB02PjeU5yjr7eINcsuXbRCBAgQIDAygK3iUecEeHEeq3BFWHxMxFHR2gECBAgQKCCQJ6T8tyU5yjn62sNcu2SaxiNAAECBAgsLXDPuGf+To2T6bUG+cEjpy2t544ECBAgQGBYgTxH+ZCs69ctuYbJtYxGgAABAgT2FXhM3OPCCMXvIYd8IRx+KMKfWQgEjQABAgRKC+S5Ks9Zee5yDr92LZNrGo0AAQIECOwq8JT4icuorl04vDEs7rirlB8QIECAAIGaAnnuynOYIvjaNU2ubTQCBAgQIHCQwKHx3U9HOFkecshnw+HJERoBAgQIEGhZ4MmRfJ7TnNuvXePkWkcjQIAAAQLXfFriq8PBCfKQQ34nHE5yTBAgQIAAgYkI5Dktz23O8YcckmudoyayXw2DAAECBNYUuEU87m8j5n5iPCcMHremoYcRIECAAIHqAnmOy3Pd3M/3uebJtY9GgAABAjMUODXGfGbEnE+GV8f4fzXi+AiNAAECBAhMWSDPdXnOy3PfnM/9ufbJNZBGgAABAjMSeHCM9byIOZ8APxrjf+iM9rmhEiBAgACBFMhzX54D57wGyDXQQyI0AgQIEJiBwLfGGC+NmPOJ7xUxfu/6zuBgN0QCBAgQWCiQ58A8F855LZBroVwTaQQIECAwYYHnxtjmfOnT+TH+b5/w/jU0AgQIECCwikCeE/PcONdCONdEuTbSCBAgQGBiAofHeF4UMdcTXI77zRG3i9AIECBAgACB6wXy3JjnyDmvEXKNlGsljQABAgQmIHBcjOFPI+Z6Yrsixv6jEYdFaAQIECBAgMANBfIcmefKPGfOdb2Qa6VcM2kECBAg0LDAyZH7uyLmejL7YIz9/g3vP6kTIECAAIEhBfKcmefOua4bcs2UayeNAAECBBoUuGvkfE7EXE9iL42x37jB/SZlAgQIECAwpkCeO/McOtf1Q66dcg2lESBAgEBDAveKXM+NmOPJ67Mx7m9uaF9JlQABAgQIVBTIc2meU+e4lsg1VK6lNAIECBBoQOCBkePnIuZ4wvqLGLdLlxo4SKVIgAABAk0I5Dk1z61zXFPkWirXVBoBAgQIFBZ4ZOR2ccTcTlSXx5h/KOLQCI0AAQIECBDoTiDPrXmOzXPt3NYXF8WYc22lESBAgEBBga+NnC6JmNvJ6X0x5nsX3B9SIkCAAAECUxLIc+37I+a2zsi1Va6xNAIECBAoJJC/pzPHV2ZfEuM+ptB+kAoBAgQIEJiyQJ5z89w7tyI411g+X2TKR7axESDQlMCTItsrI+Z0Mrosxvu9Te0lyRJoR+DUSPXZEa+MeFPEmRH5qxUZ+XXelj/L++R9NQIE5ieQ5+A8F89p7ZFrrVxzaQQIECAwosDTYttXRczpBPTxGO/9RjS3aQJTFDgpBvW8iH+OWHU+ycfkY7MPjQCB+QjkuTjPyavOGS3fP9dcufbSCBAgQGAEgXz3peWTyDq5vzHG/GUjWNskgakKHBcD+4mIfHd3nefk9sdkH9lX9qkRIDAPgTwn57l5+1wwh69zDaYRIECAwIAC/zW2NYcTzPYx/r8x5sMHNLYpAlMX+OYY4Kcjtj/Puvg6+8y+NQIE5iGQ5+Y8R3cxf7TUR67FNAIECBAYQOBnYxstnSA2zfWiGK/F9AAHlk3MRiD/pMlPRFwdsenzc7fHZ9+5jdyWRoDAPATyXJ3n7N3mhSnenmsyjQABAgR6EsiF5AsipngC2W1M+SeO7tqTp24JzFEgP8H19yJ2e851fXtuK7epESAwD4E8Z+e5u+u5pHJ/uTbzYt88jm+jJEBgQIG8vOjlEZVPAF3n9toYr98lDASNQEcCuUAbsvjdmhNymxaHHe1E3RBoQOD4yDHP4VtzwBz+f3mM169pBYJGgACBLgSOjE7GWLSOdcLKPzPww13A6YMAgYMEfiK+G+t5ndvWCBCYl0Cey+f0ZxpzrZZrNo0AAQIENhA4Oh77xxFjLVqH3u65MdZHbeDloQQILBbI383r83d+95srctt+l3/xvnErgSkL5Dk9z+37zRFT+Xmu2XLtphEgQIDAGgL5KuKcit9/iPHedg0nDyFAYG+B/FWCT0eMvcDMHPxaw977yk8JTFEgz+15jh97Dhpq+7l2807wFI9kYyJAoFeB/D2S34sYarIeezsvjrEe1auozgnMV+AnYuhjP8e3tp+5aAQIzE8gz/F5rt+aC6b+f67h/E7w/I5zIyZAYE2B/LCYl0dM/eSQ47si4ukRGgEC/QicFN1eHFFlPslcMieNAIF5CuQ5P8/9VeakPvN4eYzTBwAGgkaAAIH9BObyp47ybwU+dj8MPydAYCOBn4pH97nAW6fv5200Ig8mQKB1gTz3z+XvBeeaTiNAgACBPQTyD6qvs6Bs7THnxDi/ag8HPyJAoBuBf45uqs0PmZNGgMC8BXINkGuBavNTH/nk2k4jQIAAgQUCPx639THxVuvzXTHO2ywYv5sIEOhW4NTortrzfyufzE0jQGDeArkWyDXB1rww5f9zjacRIECAwDaBZ8fXU574t8b2pzFOnwK7bcf7kkCPApXnlcxNI0CAQK4Jcm2wtU6Y8v/mPcc7AQIEDgg8Lf6f8oS/NbYXxjgPt9cJEBhM4JWxpa3nX7X/MzeNAAECKZBrg1wjVJun+sgn13waAQIEZi3wpBj9VRF9TLJV+rw6xvfcWe9lgycwjsCbYrNV5oGdeWRuGgECBLYL5Foh1ww754spfZ9rvlz7aQQIEJilwDfHqK+MmNLEvnMsl8b4njDLvWvQBMYXODNS2PmcrPJ95qYRIEBgp0CuGXLtUGWu6iOPXPvlGlAjQIDArAS+NkZ7eUQfE2uVPs+L8T14VnvVYAnUEqj09393zkuZm0aAAIFFArl2yDXEznljSt/nGjDXghoBAgRmIfDIGOUlEVOayHeO5cwYn095ncXhbJCFBXY+L6t9X5hOagQIjCyQa4hcS1Sbt7rMJ9eCjxzZ2eYJECDQu8ADYwuV35XpYmL/mxjjzXuXtAECBPYT6OL53Gcf++Xv5wQIzFsg1xK5puhzHhq771wT5tpQI0CAwCQF7hWj+lzE2JNtn9t/VYzvqEnuPYMi0J5An8/1LvpuT1TGBAgMLZBrilxbdDHnVO0j14a5RtQIECAwKYG7xmjOjag6+XaR13+P8R06qb1mMATaFujied1nH23ryp4AgaEEcm2Ra4w+56Ox+841Yq4VNQIECExC4OQYxTkRY0+ufW0//2TBMyexpwyCwLQE+nrOd9XvtLSNhgCBvgVyrTHlP5OUa8VcM2oECBBoWuC4yP5dEV0tGKv1k3/P7ilN7yHJE5iuQLX5Ymc+05U3MgIE+hLINUeuPXbOJ1P5PteMuXbUCBAg0KTA4ZH1n0ZMZVLeOY4rYmzf0eSekTSBeQjsfM5W+34ee8EoCRDoWiDXHrkGqTandZVPrh1zDakRIECgOYEXRsZdTYbV+sm/X/eNze0RCROYl0C1eWNnPvPaG0ZLgECXArkGybXIznllKt/nGlIjQIBAUwI/HNlOZRLeOY4vxNge09TekCyBeQrsfO5W+36ee8WoCRDoSiDXIrkmqTa3dZXPc7uC0g8BAgT6FvjW2MBUP6ThohjbI/oG1D8BAp0IdLUI66ufTgapEwIEZi2Qa5Jcm/Q1T43Zb64lc02pESBAoLTAgyO7SyPGnDD72vZnY1z3L60vOQIEtgv0NRd01e/2XH1NgACBdQVybZJrlK7mpkr95Joy15YaAQIESgqcGlmdF1Fp4uwql8/EuL6qpLqkCBDYTaCr539f/eyWt9sJECCwqkCuUXKt0td8NWa/ubbMNaZGgACBUgI3j2zOjBhzguxr2+fEuO5SSlsyBAgsI9DXnNBVv8uMwX0IECCwrECuVXLN0tUcVamfXGPmWlMjQIBACYGjIou/jag0UXaVy0diXKdEaAQItCfQ1TzQVz/ticqYAIHqAqdEgrl26WveGrPfXGvmmlMjQIDAqAKHxtZfHTHmhNjXtt8X47rNqLo2ToDAJgJ9zQ1d9bvJ2DyWAAECuwnk2iXXMF3NVZX6yTVnrj01AgQIjCbw07HlShNjV7m8K8Z14miqNkyAQBcCXc0HffXTxRj1QYAAgUUCuYbJtUxf89eY/ebaUyNAgMAoAk+JrY45Afa17bfFuE4YRdRGCRDoUqCvOaKrfrscq74IECCwUyDXMrmm6WrOqtRPrkE1AgQIDCqQf3z9iohKk2EXueSJ4rhBJW2MAIG+BLqYE/rso69x65cAAQJbAsfHF1MsgnMNmmtRjQABAoMI3DO2cmFEnwvDMfrOS4W88zvIIWQjBAYRGGMeWWWbgyDYCAECsxfItc0UL4fOtWiuSTUCBAj0KpAfrHB2xCqLvBbumx8W4Xd+ez10dE5gcIHqc8/gIDZIgMBsBXKNM8UPxso1qQ8sne1hbeAE+hc4KjZxRkT1ReWq+eWfCzB59n/82AKBoQVWnQuGvv/QHrZHgMC8BXKtM8U/kZRr01yjagQIEOhc4KXR49ALxL63l38w/pTOpXRIgEAFgb7nj037r2AkBwIE5iVwSgw31z6bzl/VHp9rVI0AAQKdCjwteqs22W2az2diTHfpVElnBAhUEth0juj78ZWs5EKAwHwEcu2Ta6C+57ih+8+1qkaAAIFOBB4QvVwWMfRE1uf2Phvj+apOdHRCgEBVgT7nkC76ruomLwIEpi+Qa6BcC3Uxl1XpI9equWbVCBAgsJFAfmjC1D706qIY0/03UvFgAgRaEKiyKNstjxYM5UiAwHQFci2Ua6Ld5qgWb881a65dNQIECKwlcHg86i8jWpwAd8v5CzGeR6yl4UEECLQmsNs8UOX21jzlS4DA9ARyTZRroyrzYhd55No117AaAQIEVhb4uXhEFxNRlT4uj/H4o+krHwYeQKBZgSpzz255NAsrcQIEJiWQa6NcI+02V7V4e65hNQIECKwk8IS4d4sT3m45XxHj+caVBNyZAIHWBXabD6rc3rqv/AkQmI5ArpFyrVRlfuwij1zLagQIEFhK4G5xr4sjuph8KvRxVYzlO5YauTsRIDAlgQrzz145TMnaWAgQaF8g10q5Ztpr3mrpZ7mWzTWtRoAAgT0Fjo+ffiCipQlur1yvjrE8Zc8R+yEBAlMV2GtuqPCzqbobFwEC7QrkminXThXmyC5yyDVtrm01AgQI7Crw+/GTLiacKn08c9eR+gEBAlMXqDIP7ZbH1P2NjwCBNgVy7bTbvNXi7bm21QgQILBQ4D/HrS1ObLvl/N8XjtKNBAjMRWC3uaHK7XPZD8ZJgEB7ArmGqjJXdpFHrnE1AgQIHCTw6PjuyoguJpkKfbwqxnLoQSP0DQECcxOoMBftlcPc9ofxEiDQjkCuoXIttdcc1tLPco2ba12NAAEC1wjcLv49L6KliWyvXP8mxnLUNSPzDwECcxbYa56o8LM57xtjJ0CgvkCupXJNVWG+7CKHXOvmmlcjQGDmAjm5nRHRxcRSoY8zYyw3n/k+NXwCBK4VqDAn7ZWD/USAAIHqArmmyrXVXnNZSz/LNa83SaofdfIj0LPAS6P/liauvXLNV/ZO7dlL9wQItCOw13xR4WftSMqUAIE5C+TaKtdYFebNLnLIta9GgMBMBZ4a4+5iIqnQx6UxlgfPdD8aNgECiwUqzE175bA4a7cSIECgnkCusXKttdec1tLPcg2sESAwM4G7x3gviWhpstot1/x7dU+Y2f4zXAIE9hfYbc6ocvv+I3APAgQI1BHItdZU/kZwroFzLawRIDATgRvFON8VUWURuGkez53JfjNMAgRWE9h0bun78auNxr0JECAwvkCuufqeG4fqP9fCuSbWCBCYgcDzY4xDTS59b+eFM9hfhkiAwHoCfc8/m/a/3qg8igABAuMK5Npr0/mvyuNzTawRIDBxgfwbaFO5fOVPYyyHT3x/GR4BAusLVFlg7ZbH+iPzSAIECIwnkGuvXIPtNre1dHuuif194PGOJVsm0LvALWILn4xoaWLaLde8bOW43sVsgACBlgV2mz+q3N6yrdwJEJi3QK7BpvLrdLk2zjWyRoDABAV+P8ZUZeG3SR7nxDhuM8H9Y0gECHQrsMk8M8Rjux2t3ggQIDCsQK7Fck02xHzZ9zZyjawRIDAxgan8yaOLYr981cT2jeEQINCPQN8Lpk3772fUeiVAgMBwArkmy7XZpvNhhcf700jDHTe2RKB3gTvHFj4fUWFy2SSHK2IMj+1dywYIEJiKwCbzzRCPnYqzcRAgMG+BXJvlGm2IebPPbeRaOdfMGgECjQscGfmfEdHnhDFU309rfF9InwCBYQWGmpvW3c6wGrZGgACB/gRyjbbuXFjpcblmzrWzRoBAwwI/E7lXmljWzeXXG94HUidAYByBdeeboR43joqtEiBAoB+BXKsNNX/2uZ1cO2sECDQq8MjI+6qIPieJIfp+e4zhqEb3gbQJEBhPYIj5aZNtjCdjywQIEOheINdq/xCxybxY4bG5dn5k9zx6JECgb4ETYgNnR1SYSDbJ4dwYw237xtI/AQKTFNhk7hnisZNENygCBGYtkGu2XLsNMYf2uY1cQ+daWiNAoCGB341c+5wYhuj7yhjDoxoylyoBArUEhpinNtlGLS3ZECBAoBuBXLvlGm6T+bHCY3MtrREg0IjAd0WeFSaOTXN4biPe0iRAoKbApnNQ34+vqSYrAgQIbC6Qa7i+59Ah+v+uzSn0QIBA3wJ3jA1M4e+xvaZvKP0TIDB5gSEWR5tsY/I7wAAJEJi1QK7lNpkjKzw219S5ttYIECgqcETk9baIChPGJjm8L8ZwXFFjaREg0I7AJvPQEI9tR1KmBAgQWF0g13K5phtiPu1zG7m2zjW2RoBAQYGfjJz6nACG6DtfabtLQVspESDQnsAQc9Ym22hPVMYECBBYTeCucfcpXJmYa2yNAIFiAveJfKbwgQPfXMxVOgQItCuwSXE6xGPblZU5AQIElhfItd0Qc2qf28g1dq61NQIEigjkZRnvjOjziT9E3z9TxFMaBAhMQ2CIeWuTbUxD2SgIECCwv0Cu8TaZLys8NtfaLoXef1+7B4FBBH4ktlJhYtgkhzfGGA4fRMtGCBCYi8Amc9IQj53LfjBOAgQI5Bov13pDzK19biPX3BoBAiML3Cm2f0lEn0/2vvv+eOT/ZSM72jwBAtMT6Hvu2rT/6YkbEQECBHYXyLVervk2nTvHfHyuuXPtrREgMKLAX8W2x5wINt32ZZH//Ub0s2kCBKYrsOn81PfjpytvZAQIEFgskGu+XPv1Pb/22X+uvTUCBEYS+N7Ybp9P8CH6zjFoBAgQ6ENgiDlsk230MWZ9EiBAoLqA9Wv1PSQ/AkUFbhV5nR+xyeJr7Me+uKittAgQmIbA2HPcftufhrJRECBAYHWBl8RD9psjK//8c5F/rsU1AgQGFHhNbKvyxLBfbvmH0Y8Z0MumCBCYn8B+89DYP5/fHjFiAgQIXCuQa8BcC449D2+y/VyLawQIDCTwDbGdTZ6wYz/28sj/3gNZ2QwBAvMVGHuu22/7890zRk6AAIFr14K5Jtxvrqz881yTawQI9Cxwk+j/ExGVJ4P9cvuhno10T4AAgRTYby4a++f2EgECBOYukGvCsefiTbafa/Jcm2sECPQo8MLoe5Mn6tiP/YvI/9AefXRNgACBLYGx57v9tr+Vp/8JECAwV4FcE+bacL/5svLPc22uESDQk8DDo9+rIypPAnvl9tnI/eSebHRLgACBnQJ7zUcVfrYzX98TIEBgjgK5Nsw1YoV5eZ0ccm2ea3SNAIGOBY6K/j4Qsc4Ts8pjvrljE90RIEBgL4Eqc99ueeyVu58RIEBgTgK5Rtxtrmzh9lyj51pdI0CgQ4H/Fn21MAHsluNLO7TQFQECBJYR2G0+qnL7MmNwHwIECMxFINeKVebndfLItbpGgEBHAveMfr4Ysc6TscJjPhi537gjC90QIEBgWYEK899eOSw7DvcjQIDAHARyrZhrxr3mzco/y7V6rtk1AgQ2FDgsHv/2iMpP+L1yuyJyv/+GBh5OgACBdQT2mpsq/GydMXkMAQIEpiyQa8ZcO1aYo9fJIdfsuXbXCBDYQOAH47HrPAGrPOZHNxi7hxIgQGATgSrz4G55bDI2jyVAgMBUBXLtuNu82cLtuXbXCBBYU+D28bjPR7TwZF+U45sjd6+CrbnzPYwAgY0FFs1LlW7beIA6IECAwAQFcu2Ya8hK8/UqueTa/fYT3C+GRGAQgdfFVlZ5wlW67/mR++0GUbIRAgQILBaoNCcuymVx1m4lQIAAgVxD5lpy0dzZwm25htcIEFhR4PS4fwtP8N1y/PYVx+vuBAgQ6Fpgt/mpyu1dj1d/BAgQmJJAriWrzNfr5HH6lHaGsRDoWyAv/Xh3xDpPtgqPeUXfQPonQIDAEgIV5sO9clhiCO5CgACBWQvkmnKvebTyz3Itn2t6jQCBJQSeHvep/ITeK7ePRu7HLzFGdyFAgEDfAnvNVRV+1vf49U+AAIHWBXJNmWvLCnP2Ojk8rfUdIH8CQwjcNDZybsQ6T7KxH3NV5P3QIZBsgwABAksIjD0n7rf9JYbgLgQIEJi9QK4tc42535xa8ee5ps+1vUaAwB4Cz4+fVXwCL5PTr+wxLj8iQIDA0ALLzFtj3mdoD9sjQIBAqwK5xhxzvt5k27m21wgQ2EXgznH7FyM2eZKN9dizI2+XPu+yY91MgMAoAmPNh8tudxQUGyVAgECDArnGzLXmsvNrpfvl2j7X+BoBAgsEXh+3VXrCrpLL4xaMx00ECBAYU2CVOWyM+45pY9sECBBoTSDXmmPM1V1sM9f4GgECOwQeE9938QQbo49X7xiLbwkQIFBBYIz5cJVtVjCSAwECBFoSyDXnKvNspfvmWl8jQOCAwBHx/3sjKj1Jl83ls5H3SQfG4T8CBAhUElh2HhvrfpWs5EKAAIEWBHLNmWvPsebtTbaba/1c82sECITAD0Rs8oQa87HfZQ8SIECgqMCYc+My2y7KJi0CBAiUFsi15zJzbMX75JpfIzB7gZuHQKuvZL1x9nsPAAEClQUqLn6251TZTm4ECBCoLJBr0O3zaStf55o/1/4agVkLtPqx7l+IvXaHWe85gydAoLpA9QVRdT/5ESBAoKpArkFzLVp9nl+UX679NQKzFbh7jPyKiEVPjuq3PWe2e83ACRBoRaD6PNqKozwJECBQUSDXotXn+UX55do/awCNwCwF/jxGveiJUf22MyLvw2e5xwyaAIGWBKrPpS1ZypUAAQLVBHIt+o6I6nP9ovz+rBqmfAgMIfD42MiiJ0T12/JVq3sNAWQbBAgQ2FCg+ny64fA8nAABArMXyDVpq1dTZi2gEZiNwI1ipB+MqL44W5Tfz8xmLxkoAQKtCyyawyrd1rqv/AkQIFBBINemleb2ZXPJWuDICoByIDCEQKu/s5BP1KOHALINAgQIdCCw7CJkrPt1MERdECBAYPYCuTZt9Y0ln6kz+8N3HgD50ecXRIy14Fp3u1dHzqdHaAQIEGhFYN35bqjHteIoTwIECFQXOD0SzLXqUPN3V9vJmsCfRQoEbdoCrV6m8eJp7xajI0BgggJdLVD66meC5IZEgACB0QRyrdrXfN1nv369cLRDxoaHEDgxNvL5iD6fRH30/enI+YQhgGyDAAECHQr0MR922WeHQ9UVAQIEZi+Qa9Vcs3Y5Tw/RV9YGWSNoAwkcNtB2bOZagf8c/924QYz/EjnnJRoaAQIECBAgQIAAgYoCuVb90YqJ7ZNT1gZZI2gEJidw6xjRJRFDvJLU5Tby76t5oWRyh6MBEZiFQJdzYR99zWInGCQBAgQGFMg1a4t/GzhrhKwVNAKTEviVGE0fC6i++3zYpPaCwRAgMCeBvufHTfuf074wVgIECAwlkGvXTefnMR6ftYJGYDICt42RXBYxxpNpk23+zmT2gIEQIDBHgU3mvyEeO8d9YswECBAYQiDXsEPM411uI2uFrBk0ApMQ+PUYRZdPkCH6yksxbjcJfYMgQGCuAkPMlZtsY677xbgJECDQt0CuYVv81cOsGTQCzQvcIUbwxYhNFkljPPZ5zcsbAAECcxcYY+5cZZtz3z/GT4AAgT4Fci27ypxc4b5ZM2TtoBFoWuBlkX2FJ9QqOXwicj62aXXJEyBAoP7cax8RIECAQH8CuZbNNe0qa+AK931ZfyR6JtC/wJ1jE1dGVHgyrZLDE/unsQUCBAj0LrDKvDfGfXsHsAECBAjMXCDXtGPM75tsM2uHrCE0Ak0KvDKy3uQJMMZj3xY5H9qktqQJECBwsMAYc+gq2zw4W98RIECAQNcCuabNte0qc3OF+2YNoRFoTuArI+OrIio8iZbN4erI9wHNSUuYAAECiwWWnfvGut/irN1KgAABAl0K5No217hjzfXrbDdriKwlNAJNCbw2sl3ngB/zMa9oSliyBAgQ2FtgzPl0mW3vnb2fEiBAgEBXArnGXWZernSf13Q1eP0QGELgtNhIa680fT5yvs0QOLZBgACBgQQqLWQW5TIQg80QIEBg9gK5xs217qK5uOptWUtkTaERaELgjyLLqk+m3fL6sSZkJUmAAIHlBXab76rcvvxI3JMAAQIENhXItW6V+X/ZPLKm0AiUF7h/ZLjsQV3lfmdFzkeXl5UgAQIEVhOoMsfulsdqo3FvAgQIENhEINe6Z0XsNidXvT1rC41AaYE3RHZVn0C75fWtpUUlR4AAgfUEdpvzqty+3qg8igABAgTWFcg1b5VzwLJ5ZG2hESgr8NDIbNmDucr93lxWU2IECBDYTKDKPLtbHpuNzqMJECBAYB2BXPvuNi9XvT1rDI1ASYE/j6yqPnEW5ZW/XH/fkpKSIkCAwOYCi+a9SrdtPkI9ECBAgMCqArn2be3DarPG0AiUE7hXZFRpYbVMLq8rpyghAgQIdCewzDw45n26G6meCBAgQGAVgVwDjzn/r7PtrDU0AqUEWvv7YvnK1z1KCUqGAAEC3Qqss8AY8jHdjlZvBAgQILCswD3jjq29C5y1hkagjMDJkckXI4ZcOG26rVeX0ZMIAQIE+hHYdJ7s+/H9jFqvBAgQILCMQK6F+57nu+w/a42sOTQCJQR+LrLo8gDvu68rI9+7lpCTBAECBPoT6Hsu3bT//kauZwIECBDYTyDXwrkm3nQuH/LxP7vfoPycwBACx8dGLogY8uDfdFv/cwgY2yBAgMDIApvOlX0/fmQemydAgMDsBXJN3Pdc32X/WXNk7aERGFXgWbH1Lg/svvu6IvI9dVQxGydAgMAwAn3Pp5v2P4yCrRAgQIDAbgK5Js618abz+ZCPz9pDIzCawBGx5bMihjzoN93WS0bTsmECBAgMK7DpfNn344fVsDUCBAgQWCSQa+O+5/su+z8r8s0aRCMwisC3x1a7PKD77uvyyPd2o0jZKAECBIYX6HtO3bT/4UVskQABAgR2CuTaONfIm87pQz4+axCNwCgC74itDnmwb7qtF4yiZKMECBAYR2DTObPvx4+jYqsECBAgsFMg18h9z/ld9p81iEZgcIHTY4tdHsh993Vp5HubwZVskAABAuMJ9D2vbtr/eDK2TIAAAQLbBXKNnGvlTef1IR9/+vYB+Hp5gcOWv6t77hB4zo7vq3/7okjwU9WTlB8BAgQIECBAgACBgQVyjZxr5ZZaa7VIS7ZyXSCQfzfs6oghX+XZZFtfiFxvuWAcbiJAgMCUBTaZN4d47JTtjY0AAQKtCeRaOdfMQ8z/XWwja5GsSbQVBbwDvCLYgbvnKy6HrvfQUR71K7HVz4yyZRslQIAAAQIECBAgUF8g18q5Zm6lZS3iXeBW9lbjeZ4U+bf0OwIXRb63aNxc+gQIEFhHoItX2PvsY50xeQwBAgQI9CeQa+ZcO/c593fZd9YkWZtoKwh4B3gFrAN3/f74/+jVHzbaI34ptvzZ0bZuwwQIECBAgAABAgTaEMg1c66dW2lZk2Rtoq0g0NJlvCsMq7e7HhM9nxPRyjuqF0Sud4jI/zUCBAjMTSBfZa/cnIMr7x25ESAwV4ETYuAfi8j/W2hZtN82It8N1pYQ8A7wEkjb7vLd8XUrxW+m/QsRit+U0AgQIECAAAECBAjsL5Br51xDt9KyNnlyK8nKsy2BfLHgQxFdXrffZ1+fj1xv3haxbAkQINCpQJ9zbBd9dzpYnREgQIBAZwK5hs61dBdz/RB9ZI3ijc0ldz+oJaHibt8Qcafl7z76PV8WGXxu9CwkQIAAAQIECBAgQKAtgVxD51q6lZY1yte3kqw82xH4i0h1iFdwutjGVZHrHduhlSkBAgR6EehiPu2zj14GrVMCBAgQ6EQg19K5pu7zPNBl31mraAQ6E7hz9JR/bLrLg7TPvl7T2ch1RIAAgXYF+pxnu+i7XVmZEyBAYB4CuabuYr4foo+sVbJm0fYRcAn0PkAHfvz0+L+lT+t8/nLDci8CBAgQIECAAAECBHYRaGlNnbVK1iwagY0F8u9r5ceLD/HKTRfbeMvGI9YBAQIEpiHQxZzaZx/TUDYKAgQITFsg19Z9ngu67DtrlqxdtD0EvAO8B86BH31b/N/Spyn//P5Dcg8CBAgQIECAAAECBJYQaGltnTVL1i4agY0E3haP7vKVmT778hHoG+1qDyZAYGICfc63XfQ9MW7DIUCAwCQF8g3Dlv4UatYuGoG1BU6LR3axyBmqj+9be6QeSIAAgekJDDX3rrud6YkbEQECBKYpkGvsdef6MR6XNYxGYC2BF8Wjxjho19nmv0aux6w1Sg8iQIDANAXWmUuHfMw01Y2KAAEC0xPINXautYc8R2yyraxhNAIrCxwfj7g4YpODb8jHPm/lEXoAAQIEpi0w5By8zramrW90BAgQmJZArrXXmevHeEzWMFnLaARWEmjpUodLY2QnrTQ6dyZAgMD0BcZYdKyyzenvASMkQIDAdARyrZ1r7lXm+THvm7WMtkDAp0AvQDlw0/fu/qNyP/mtyOjccllJiAABAgQIECBAgMA0BHKtnWvuVlpLtUwrppPO854xujFfsVll21dHrned9N4wOAIECKwnsMpcOsZ91xuVRxEgQIDAWAK55s619xjnjHW2mTWNtkPAO8A7QA58+z2Lby55659EVh8omZmkCBAgQIAAAQIECExHINfcufZupbVU07RiOsk8j4xR5SUO67zKMsZjHjnJvWBQBAgQ2FxgjDl5lW1uPkI9ECBAgMDQArn2XmWuH/O+WdNkbaMR2FPgm+KnYx6oq2z7jD1H4ocECBCYt8Aq8+kY95333jF6AgQItCuQa/AxzhvrbDNrG22bgEugt2Ec+LKlSwV+6Ybpu4UAAQIECBAgQIAAgR4FWlqDt1Tb9LjLru/60Ou/9FUI3CrinIgjGtA4P3K8TcRlDeQqRQIECIwhi5oBlAAAQABJREFUkK+UV27OwZX3jtwIECCwu8DR8aNPRdxs97uU+cmVkcltIz5dJqORE/EO8ME74Dvj2xaK38w6P4Zd8ZsSGgECBAgQIECAAIHhBHIN3sqfRMraJmscjcBCgffFretcWz/GY+6xcARuJECAAIEtgTHm5lW2uZWn/wkQIECgPYFci68y549536xxNAI3EHhQ3DLmgbnKtt92g+zdQIAAAQI7BVaZV8e47858fU+AAAECbQnkmnyM88c628xaRwsBl0Bffxg86fovy3/1kvIZSpAAAQIECBAgQIDAtAVaWpO3VOv0etT4AI5refPa+PxF9hN71e6m84ujm1tHfKGb7vRCgACByQrkK+SVm3Nw5b0jNwIECOwvcOO4y79EHL//XUe/x3mRQX6Abn4o1qybd4Cv3f2Pjv9aKH4z21dFKH5TQiNAgAABAgQIECAwnkCuyXNt3kLLWidrntk3BfC1h8B3NHQktHSpRUOsUiVAgAABAgQIECCwskBLa/OWap6Vd4QHLC9wTNw1Lyte55fJh37MO5cflnsSIEBg9gJDz9Grbm/2OwgAAQIEJiKQa/RVzwFj3D9rnqx9Zt28A3zIIV8fR8BxjRwFLb3C1AipNAkQIECAAAECBAhsJNDKGj1rnqx9tJkL/GGMf4xXYFbdZv6OwU1nvq8MnwABAqsIrDrPDn3/VcbivgQIECBQVyDX6LlWH/o8ss72svbRZixwsxj75RHrHDxDP+ZlM95Phk6AAIF1BIaep1fd3jpj8hgCBAgQqCmQa/VVzwNj3D9rn6yBZtvmfgn0E2LP36iRvd/KpRWNcEqTAAECBAgQIECAQGcCrazVs/bJGkibqcCbYtxjvPKy6jbfO9P9Y9gECBDYRGDVuXbo+28yNo8lQIAAgXoCuWYf+lyyzvbeVI9uuIzm/A7wLYP5EcNRb7Sll270aA8mQIAAAQIECBAgQKBvgVbW7FkDZS00yzbnAvibYo+3MP68Tv8Vszw6DZoAAQIECBAgQIBAOwK5Zs+1e/WWNVDWQrNsLRSAfe2Yb+mr4477/V/R32c77lN3BAgQIECAAAECBAh0K5Br9ly7t9BaqYVasGwix1tElldErHPN/NCP+TdNiEqSAAEC9QSGnq9X3V49MRkRIECAwKYCuXZf9Xwwxv2zFsqaaHZtru8Af0Ps6SMa2NufiRz/uoE8pUiAAAECBAgQIECAwLVr91zDV29ZC3199ST7yG+uBXArb/m/Nnb6VX3seH0SIECAAAECBAgQINC5QK7dcw3fQvPnkFrYSx3keJPoI385fYxLDVbd5sM7GK8uCBAgMFeBVefcoe8/1/1i3AQIEJi6QK7hhz6nrLO9rImyNppVm+M7wI+PPZx/ALp6+1Qk+NbqScqPAAECBAgQIECAAIGDBHINn2v56i1roqyNZtXmWAC3cvnza+JIvHpWR6PBEiBAgAABAgQIEGhfINfwuZZvobVSG7VgWTLHG0dWl0Ssc4nA0I95SElBSREgQKAdgaHn7VW3146kTAkQIEBgVYFcy696Xhjj/lkbZY00mza3d4AfG3v2mAb27jmR49sayFOKBAgQIECAAAECBAjcUCDX8rmmr96yNsoaaTZtbgXw4xrZs3nJRL4CpBEgQIAAAQIECBAg0J5AruVbuQy6lRqpvaNg5IwPje1/OmKMSwtW3eYDRrayeQIECExBYNW5d+j7T8HYGAgQIEBgd4Fc0w99bllne1kjZa2kTUyglQPwYxNzNxwCBAiMJbDOImDIx4zlYrsECBAgMJxAru2HPLesu63ZvAE3p0ugW3lr//eGez7aEgECBAgQIECAAAECPQq0srZvpVbqcVdNr+t3xpDWfUVkyMfdZ3r0RkSAAIFRBIacu9fZ1igoNkqAAAECgwrk2n6dc8TQj8laSZuQwMkxlqEPonW29+EJmRsKAQIExhZYZx4e8jFj+9g+AQIECAwjkGv8Ic8v624ra6bJt7lcAt3KW/q/O/kjzgAJECBAgAABAgQIzEuglTV+KzXTRkePAngjvs4f3MrvCHQ+cB0SIECAAAECBAgQmKhAK2v8WRTAc/i46/zjzp+NyP8rtzMjubtWTlBuBAgQaEwgLwGr3OZwDq7sLzcCBAgMKfCB2NhdhtzgGtu6NB5zi4j8f7JtDu8APyr2XvXiNw+wVl4ZmuyTwcAIECBAgAABAgQI9CTQwlo/a6av7mn8ZbqdQwH8mDLaeyfyu3v/2E8JECBAgAABAgQIEGhUoJW1/mMb9ZX2NoH3xdfrfhLaUI/74LZ8fUmAAAEC3QgMNYevu51uRqkXAgQIEGhF4EOR6LrnjKEel7XTpNvU3wH+8th7d2tgD76hgRylSIAAAQIECBAgQIDA+gL/e/2HDvbIrJ2yhppsm3oB/DWN7LkWngyNUEqTAAECBAgQIECAQEmBVtb8rdRQa+1kBfBabJ0+6LLo7a877VFnBAgQIECAAAECBAhUE/jrSCjX/tWbArj6Htolv/zzEo/e5WeVbn5zJDPpjxqvhC0XAgQIECBAgAABAiMJ5Jo/1/7VW9ZQWUtNsk35HeB7xR47sYG91sqlEA1QSpEAAQIECBAgQIBAaYEW1v5ZQ2UtNck25QK4lT9/1MKTYJIHv0ERIECAAAECBAgQGFiglbV/K7XUyrtvygVwC9eufyz2mD+BtPJh6wEECBAgQIAAAQIEmhTItX/WANVbC7XUWoZTLYCPDo2HrSUy7INaeQVoWBVbI0CAAAECBAgQIDBdgRZqgKylsqaaXJtqAfzQ2FMt7LAWDv7JHfQGRIAAAQIECBAgQGBEgRZqgKylsqaaXJtqAfyIBvbU5ZHjmxrIU4oECBAgQIAAAQIECHQnkDVA1gLVWws11cqGCuCVyTp7wN9GT1/orDcdESBAgAABAgQIECDQgkDWAFkLVG8K4Op76EB+N4r/H9RAri1c+tAAoxQJECBAgAABAgQINCfQQi2QNVXWVpNqU3wH+AGxh1r4/d83TOpIMhgCBAgQIECAAAECBJYVaKEWyJoqa6tJtSkWwI9sYA+dHTm+r4E8pUiAAAECBAgQIECAQPcCWQtkTVC9tVBbrWQ4xQK4hWvVW7jkYaUDyZ0JECBAgAABAgQIEFhJoIWaoIXaaiX0qRXAR8ToH7KSwDh3buFgH0fGVgkQIECAAAECBAjMQ6CFy6CztsoaSysqkNeof6l4fDHyO76on7QIECAwJYHq54MpWRsLAQIECKwukDVB1gbVz1eT+j3gqb0D3MI16m+Jg/zi1Z8fHkGAAAECBAgQIECAwIQEsibI2qB6m9Rl0FMrgFvYOX9Z/QiXHwECBAgQIECAAAECgwj81SBb2WwjLbzJuPQIp1YA59+qqt7eWj1B+REgQIAAAQIECBAgMIhAC+8At1BjLb2zDl36nvXveKdI8UPF07wy8rtpxCXF85QeAQIEpiCQv1NVuU3pHFzZWW4ECBCoLHBsJHdhxBGVk4zcviLiw8VzXCq9Kb0D/MClRjzund4Vm1f8jrsPbJ0AAQIECBAgQIBAFYGsDbJGqN5aqLWWMpxSAdzCW/Muf17qsHQnAgQIECBAgAABArMRaKFGaKHWWuqAUQAvxdTZnVo4uDsbrI4IECBAgAABAgQIENhXoIUaYTIF8FR+/+joOKwuijhy38Nr3DvcJjb/L+OmYOsECBCYjYDfAZ7NrjZQAgQINC1w68j+U8VHcEXkd5OIy4rnuW96U3kH+D4x0urF78ciR8XvvoekOxAgQIAAAQIECBCYlUDWCFkrVG5Za2XN1XybSgHcwlvyLVza0PwBbQAECBAgQIAAAQIEGhRooVZooebad9dPpQBu4VPJWjio9z1g3IEAAQIECBAgQIAAgc4FWqgVWqi59t0xUymAW3g1ooWDet8Dxh0IECBAgAABAgQIEOhcoIVaoYWaa98dM4UPwbpVjLL679bmH7e+ecTV++4RdyBAgACBrgR8CFZXkvohQIAAgb4F8o3Jz0XctO8Nbdh/fmDXpzfsY9SHT+Ed4HuPKrjcxt8Wd1P8LmflXgQIECBAgAABAgTmJpC1QtYM1VsLtdeehgrgPXk6++FbOutJRwQIECBAgAABAgQITFGghcugFcAFjrwWdkILB3OBXSkFAgQIECBAgAABArMVaOFNsxZqrz0PoCn8DvCHY4Sn7jnKcX94ZWw+r+W/ZNw0bJ0AAQKzE/A7wLPb5QZMgACBpgWOjewvjDii8Cg+ErndqXB++6bW+iXQN4kR3nHfUY57h3fF5hW/4+4DWydAgAABAgQIECBQXSBrhqwdKresvbIGa7a1XgCfFvLV38V2+XOzTw+JEyBAgAABAgQIEBhUoHrtkLVX1mDNttYL4BauQa9+EDd78EqcAAECBAgQIECAwMQEWqgdWqjBdj0sFMC70nT2gxY+zryzweqIAAECBAgQIECAAIG1BVqoHRTAa+/ezR9YHf/cGOInNx+mHggQIECAAAECBAgQmIFA1g5ZQ1Ru1WuwPe1afgf4qBjZ3fcc3fg/rP5L7OMLyYAAAQIECBAgQIAAge0C1WuIrMGyFmuytVwAJ3zljwjPA6L6wdvkQStpAgQIECBAgAABAhMWqF5DZA1W/Y3IXQ+P1gvgXQdW5AfVD94iTNIgQIAAAQIECBAgQOCAQAs1hAJ4hMP1K0fY5qqbbOHgXXVM7k+AAAECBAgQIECAQH8CLdQQLdRiC/eQd4AXsnRy48XRy4c76UknBAgQIECAAAECBAjMRSBriKwlKjfvAI+wd6q/6vCeMPnSCC42SYAAAQIECBAgQIBAuwJZQ2QtUblVr8V2tWv1HeCjY0R33HVUNX7QwqULNaRkQYAAAQIECBAgQIDAdoHqtUTWYlmTNddaLYDvEtLVc69+0DZ3sEqYAAECBAgQIECAwEwEqtcSWYtlTdZcq15E7gbawlvu1S9b2M3W7QQIECBAgAABAgQIjCvQQi3RQk12g73YagFc/Zeurw7p999A2w0ECBAgQIAAAQIECBDYXyBriawpKrfqNdlCOwXwQpaNbzwrerh04150QIAAAQIECBAgQIDAHAWyljir+MAVwAPuoOpvt793QAubIkCAAAECBAgQIEBgegLVa4rqNdnCI6LFd4CPiJHcceFo6tz4vjqpyIQAAQIECBAgQIAAgQYFqtcUWZNlbdZUa7EAPiWEq0NXP1ibOkglS4AAAQIECBAgQGCGAtVriqzJTmltv7RYAN+pAeTqlys0QChFAgQIECBAgAABArMWaKGmOLW1PdRiAVwd+UtxEHygtQNBvgQIECBAgAABAgQIlBLImiJri8qthTcnD/JrsQCujnxWCH/hIGXfECBAgAABAgQIECBAYDWBrCk+vtpDBr939drsBiAK4BuQbHxD9Wv1Nx6gDggQIECAAAECBAgQGESg+mXQCuABDoPqyC5/HuAgsAkCBAgQIECAAAECMxA4s/gYq9dmN+Br7R3gzPcONxhFrRs+Uisd2RAgQIAAAQIECBAg0KjAh4vnnbVZUzVlU8kG7pdHHFX8IKh+kBbnkx4BAgQIECBAgAABAgcEqtcWWZtljdZMa60AbuEt9uoHaTMHp0QJECBAgAABAgQIzFyghdqihRrtusNIAXwdRSdfXBG9nN1JTzohQIAAAQIECBAgQGDuAllbZI1RuSmAe9w71X//92Mx9qt6HL+uCRAgQIAAAQIECBCYj0DWFlljVG6nVE5uZ26tvQN8250DKPZ9C5coFCOTDgECBAgQIECAAAECewhU/5Dd2+2Re7kfKYC73SXVD85uR6s3AgQIECBAgAABAgT6Fqj+Jlv1NykP2j8K4IM4Nv6m+sG58QB1QIAAAQIECBAgQIDAoALVawwFcE+Hw6HR75f31HdX3VY/OLsap34IECBAgAABAgQIEBhGoHqNkTVa1mpNtJbeAb5ViB5ZXLX6L6gX55MeAQIECBAgQIAAAQI7BKrXGFmjZa3WRGupAG7hrfVzmtjrkiRAgAABAgQIECBAoBWBFmqMFmq1a/a3Ari7w/6C6Orz3XWnJwIECBAgQIAAAQIECFxTY2StUbkpgHvYO9U/XvvsHsasSwIECBAgQIAAAQIECFSvNRTAPRyj1VFbuDShh92iSwIECBAgQIAAAQIEehaoXmtUf7Pyut3jEujrKDb+ovpBufEAdUCAAAECBAgQIECAwCgC1WuN6m9WXrfTWiqAT74u65pfVD8oa6rJigABAgQIECBAgACB/QSq1xq32W8AVX7eUgF8UhW0XfKofl3+Lmm7mQABAgQIECBAgACB4gLVa41bFve7Lr2WCuDqqNVflblup/uCAAECBAgQIECAAIGmBKrXGtVrtet2disF8DGR8XHXZV3zi+oHZU01WREgQIAAAQIECBAgsJ9A9Voja7Ws2cq3VgrgFl5R+GT5vS1BAgQIECBAgAABAgRaFGih1mihZjtEAdzN4X9hdHN5N13phQABAgQIECBAgAABAgcJZK2RNUflpgDucO9Ux/xMh2PVFQECBAgQIECAAAECBHYKVK85qtds13i28g5w9U+APnfn0el7AgQIECBAgAABAgQIdChQveaoXrNdsytaKYCrv5pQ/dWYDp93uiJAgAABAgQIECBAYASB6jVH9Zrtml2mAO7myK1+MHYzSr0QIECAAAECBAgQIDCWQPWaQwHc4ZFR/e306pcjdLgrdEWAAAECBAgQIECAwAgC1WuO6jXbNbuslXeATxzhAFtlk9VfjVllLO5LgAABAgQIECBAgEA9geo1R/Wa7Zo92koBfEK94++gjKofjAcl6xsCBAgQIECAAAECBJoTqF5zVK/ZrtnhrRTANyt+eFY/GIvzSY8AAQIECBAgQIAAgX0Eql8CXb1mu4a3lQK4+qsJ5+1zsPoxAQIECBAgQIAAAQIENhGoXnNUr9musW+hAD40Mr3pJkfKAI+9YIBt2AQBAgQIECBAgAABAvMVOL/40LNmy9qtdGuhAD4+BKvnqQAufZhLjgABAgQIECBAgEDzAtVrjqzZsnYr3aoXlolX/a30SyLHK0rvZckRIECAAAECBAgQINC6QNYcWXtUbtVrt/LvrObOrf7L1NUvRaj8BJEbAQIECBAgQIAAAQLLC1R/F1gBvPy+3PWe1RGrH4S7wvoBAQIECBAgQIAAAQJNCVR/8636m5dNvAOsAG7qOSlZAgQIECBAgAABAgR6Eqj+5lv12k0B3MGBWf0g7GCIuiBAgAABAgQIECBAoIBA9dpDAdzBQZIfp125VT8IK9vJjQABAgQIECBAgACB5QWq1x7Va7cm3gE+dvnjYZR7Vj8IR0GxUQIECBAgQIAAAQIEOheoXntUr90UwB0cktUPwg6GqAsCBAgQIECAAAECBAoIVK89FMAdHCTVEav/La4OdoEuCBAgQIAAAQIECBAoIFC99qheu3kHuIODuPpB2MEQdUGAAAECBAgQIECAQAGB6rXHMQWM9kzhsD1/WuOH1RGrH4Q19qIsCBAgQIAAAQIECBDYVKB67eEd4E33cDy+OuKlHYxRFwQIECBAgAABAgQIENhPoHrtUb12cwn0fkfYEj+v/irMEkNwFwIECBAgQIAAAQIEGhCoXnsogDs4iFwC3QGiLggQIECAAAECBAgQaF6gegFcvXbzDnAHT4HqlyF0MERdECBAgAABAgQIECBQQKB67eEd4A4OkuqI1V+F6WAX6IIAAQIECBAgQIAAgQIC1WuP6rVbE+8AV38bvfpBWOB5KgUCBAgQIECAAAECBDoQqF57VK/dmiiAj+zgQOmzi+qXIfQ5dn0TIECAAAECBAgQIDCcQPXao3rt1kQBfPhwx9NaW7pirUd5EAECBAgQIECAAAECBFYTqF57VK/dFMCrHW8L733VwlvdSIAAAQIECBAgQIAAgW4FqtceCuAO9vcRHfTRZxdX9tm5vgkQIECAAAECBAgQIHBAoHrtUb128w5wB0+l6q/CdDBEXRAgQIAAAQIECBAgUECgeu3hHeAODpLqiNUPwg52gS4IECBAgAABAgQIECggUL32qF67eQe4g4O4+kHYwRB1QYAAAQIECBAgQIBAAYHqtYcCuIODpDpi9YOwg12gCwIECBAgQIAAAQIECghUrz2q125NvANc/Repq/8ieoHnqRQIECBAgAABAgQIEOhAoHrtUb12a6IArv4qQvVXYTp4numCAAECBAgQIECAAIECAtVrj+q1mwK4g4O4+kHYwRB1QYAAAQIECBAgQIBAAYHqtYcCuIOD5Esd9NFnF4f22bm+CRAgQIAAAQIECBAgcECgeu1RvXZr4h1gr3J4vhMgQIAAAQIECBAgQOCQQ6q/w1q9dlMAd/Asqn4QdjBEXRAgQIAAAQIECBAgUECgeu2hAO7gIKmOWP0g7GAX6IIAAQIECBAgQIAAgQIC1WuP6rWbd4A7OIirH4QdDFEXBAgQIECAAAECBAgUEKheeyiAOzhI/K2rDhB1QYAAAQIECBAgQIBA8wLV/85u9drNO8AdPAWqvwrTwRB1QYAAAQIECBAgQIBAAYHqtYd3gDs4SKojVj8IO9gFuiBAgAABAgQIECBAoIBA9dqjeu3mHeAODuLqB2EHQ9QFAQIECPQgcMse+tQlAQIECExboHrtoQDu4Pirjlj9IOxgF+iCAAECBHoQeH/0+dSIw3roW5cECBAgME2B6rVH9dqtiZNu9V+kPnKazy2jIkCAAIGeBW4W/b844h0RD+p5W7onQIAAgWkIVK89qtduCuAOngfHdtCHLggQIEBgvgL3jqH/XcSLIk6cL4OREyBAgMASAtVrDwXwEjtxv7tcst8dRv75MSNv3+YJECBAoH2BQ2MIT484M8Jl0e3vTyMgQIBAXwLVa4/qtVsT7wBf2tfR01G/1V+F6WiYuiFAgACBAQRcFj0Ask0QIECgYYHqtYcCuIODqzpi9YOwg12gCwIECBAYWMBl0QOD2xwBAgQaEahee1R/87KJd4CrF8DVL0No5LksTQIECBDYIeCy6B0gviVAgACBQ6oXwNVrNwVwB0+i6gdhB0PUBQECBAiMKOCy6BHxbZoAAQLFBKq/+aYA7uCAqf42ugK4g52sCwIECBDYV2Drsuhfj3v6tOh9udyBAAECkxSoXntUr928A9zB06L6QdjBEHVBgAABAkUE8rLop0X4tOgiO0QaBAgQGFigeu3hHeAODojqiNUvQ+hgF+iCAAECBIoJuCy62A6RDgECBAYSqF57VK/dmngHuPrb6Dce6GC3GQIECBBYTeCy1e7e5L1dFt3kbpM0AQIE1haoXntUr92aKICrv4pw07UPXw8kQIAAgT4Fzu+z80J9b78sOi+PPqxQblIhQIAAgW4Fqtce1Wu3Jk6S1RFP6PaY1hsBAgQIdCTw2Y76aaWbvCw6PyDrHREPbSVpeRIgQIDASgLVa4/qtVsTBfCFKx0Sw9+5+kE4vIgtEiBAoIbA/18jjcGzyMui/zbCp0UPTm+DBAgQ6F2geu1RvXZrogC+oPfDaLMNVD8INxudRxMgQKBdgX9sN/WNM3dZ9MaEOiBAgEBJgeq1R/lfP2rh94SqI+YlZxoBAgQI1BP463opDZ5RnqPyneB8MeBBg2/dBgkQIECga4HqtUf1Ny+9A9zBEVn9VZgOhqgLAgQINCmQvwv7sSYz7z7p06LLv4twWXT3tnokQIDAkALVaw8FcAdHQ3XE6gdhB7tAFwQIEGhW4NXNZt594tsvi35GdN/CVWDdK+iRAAECbQtUrz2q125N7P2bRJZfKh5HNiEpSQIECMxP4FYx5PybhNXPI2Pk985wcVn0/J4TRkyAQLsCWXOMcb5YZZtZu5VuLbz6e3EIXlVa8ZBDqr8SU5xPegQIEOhN4NPR80t6673tju8d6W9dFn1S20ORPQECBGYhUL3myJotazetA4H8W46rvPIw9H3v3MEYdUGAAAEC/QjcPLrNQnjoc0NL2/tc+DwtooUXxiNNjQABArMUyJqj8rkla7byrZUTXfVryU8sv6clSIAAgfkKZHH3/fMd/lIj3/q06PzgsAcv9Qh3IkCAAIGhBarXHNVrtmv2lwK4m8P2lt10oxcCBAgQ6EngtdHvr/TU95S6zcui3xrx4ojqC60puRsLAQIElhGoXnMogJfZi0vepzqm351acke6GwECBEYUeFZs+09G3H4rm85Pi35qxJkReVn04REaAQIECIwvoADuYB+08g7weR2Mtc8uqh+MfY5d3wQIEGhFID+c4wkRf9hKwiPnuXVZ9BmRh8uiR94ZNk+AAIEQqP6mW/Wa7ZqDqJUC+DPFD3kFcPEdJD0CBAgcELgs/v+WiBcSWVpg67Lo34xHuCx6aTZ3JECAQOcC1WuO6jXbNTuklQL43M4Pn247rP5qTLej1RsBAgTaFsh3gp8R8U0RTbxaXYA7L4v+7ogPRjw9opX1Q6SqESBAYDIC1WsOBXCHh1p1zOqvxnS4K3RFgACByQj8QYzkHhG/M5kR9T+QE2ITL4r4xwiXRffvbQsECBDYLlC95qj+puU1lq28gqsA3n7o+5oAAQIEuhLIk/W/j3h4xD911ekM+jktxujTomewow2RAIFSAtUL4Oo1W6mduV8yD4g7VP6jz9U/pXo/Xz8nQIAAgWs/7fg5AZFzeuVzTrXczg8vl0V7BhEgQKB/gQtjE9XOAdvzyZpN60jglOhnO27Fr4/qaKy6IUCAAIFxBfIV9ldHVDzXVM7pnWHmsuhxj11bJ0BgugJHx9AqnwMyt1Omyz/8yI6JTVbf4XccnsUWCRAgQKBHgYdF3++JqH7+qZTf1eH14gifFh0IGgECBDoUyFqj0ny/KJes2bQOBS6KvhZBV7ntkR2OVVcECBAgUEPg8EjDZdGrn39dFl3j+JUFAQLTEchao0rdsyiPrNWaaK18CFZiVv9Usds2scclSYAAAQKrCOSfTHp+xF0i8rJobTmBrU+Lfkfc3WXRy5m5FwECBPYSqF5rVK/VrrNtqQCu/qlit7tO1RcECBAgMDWBPAd9R4RPi15tz9477u7Tolczc28CBAgsEqhea1Sv1a4zbakA/tR1Wdf8ovqrMjXVZEWAAIG2BN4S6d4n4oci8tM4tf0FDo27PDXigxFPj2hp7RHpagQIECghUL3WqF6rXbcTWzoJnXNd1jW/qH5Q1lSTFQECBNoTuCpSdln06vvNZdGrm3kEAQIEtgSq1xrVa7Utx6ZehT37uqxrflH9oKypJisCBAi0K+Cy6PX2ncui13PzKAIE5i1QvdaoXqtdd/R4B/g6io2/qH5d/sYD1AEBAgQILBRwWfRClj1vdFn0njx+SIAAgRsIVK81mnkH+AayhW94QOS26CO3K912XGE/qREgQIBA/wK3jE28KqLSuamFXN4ZZj4tuv/j0xYIEGhTIGuM6nN51mpaxwK3jv6q7/i7dTxm3REgQIBAmwIPi7TfE1H9vFUpv6vD6yURJ0ZoBAgQIHC9QNYYlebrRblkraZ1LJCXS10esQi8ym3/tuMx644AAQIE2hU4PFJ/TsQFEVXOUy3kcX54/ceIln5NK9LVCBAg0JtA1hiV5++s0bJWa6K1dHLJnf7J4qp3Kp6f9AgQIEBgOAGfFr2edX5a9Asj3hHx4PW68CgCBAhMSqB6jZE1WtZqTbSWCuAErf7L1dUPziYOSkkSIEBgYgI+LXq9Hbr1adEui17Pz6MIEJiOQPUao3qNdtCRoAA+iGPjb6ofnBsPUAcECBAgsLbAW+KR94nIy6IvXLuXeT0wL6l7SsQHI1wWPa99b7QECFwvUL3GUABfv686/+rsznvstsNTu+1ObwQIECAwMYG8LPoXIu4S8eqJja3P4bgsuk9dfRMgUF2geo1RvUY7aP+29g7wWQdlX++bO0RKh9dLS0YECBAgUEzAZdHr7RCXRa/n5lEECLQrkLVF1hiV21mVk2s9t0fFACp/AlrmVv0Abf0YkD8BAgSmJpCLm2dH+LTo1c7xPi16as8E4yFAYJFA1hbV65+s0bSeBG4X/VY/AL6mp7HrlgABAgSmLXDLGN4rI6qf56rl984w82nR035uGB2BOQtkbVFt3t2ZT9ZozbTWLoH+RMjm35mq3Kr/knplO7kRIEBgzgJ5WfQTIx4e8U9zhlhx7C6LXhHM3QkQaEqgem2RtVnWaM201grgq0P2Y8V1qx+kxfmkR4AAgdkLvCUEfFr0aofBoXH3p0RsfVq0z+NYzc+9CRCoK1C9tsjaLGu0ZlprBXDCfri47l2L5yc9AgQIEKgvsP3Tol9VP90yGW59WvQZkZHLosvsFokQILCBQPXaonptdgN6BfANSDa+4e4b96ADAgQIECBwrYDLotc7ElwWvZ6bRxEgUE+gem2hAB7gmKmOfPswuPEADjZBgAABAvMRcFn06vvaZdGrm3kEAQK1BLKmyNqicqtem1W2Wzq3x8Y9v1Q87rf0aNyRAAECBAisJuDTotdbB/i06NWOM/cmQGB8gawpqtc9WZs11Vq8BPojDQhXv1ShAUIpEiBAgMAuAi6L3gVmn5u3Lot+adzvxH3u68cECBCoINBCTdFCbXbQvmyxAD4rRnDlQaOo900LB2s9NRkRIECAwCoCLoteReva++Zl0d8b4dOiV7fzCAIEhheoXlNkTXbW8Czz3OIHYtiVLwd4/Tx3i1ETIECAwEgCLoteb13gsuiRDlibJUBgKYGsKSrXPFmTaQMJ/H5sp/LB0NylAAPtN5shQIAAgX4FHhrdvyei8jmyWm759ytdFt3vcal3AgTWE8iaotqcuT2frMmaay1eAp3I7ysufUrkd2zxHKVHgAABAtMTeGsM6T4Rz4m4cHrD62VE2y+L/r7YwuG9bEWnBAgQWE0ga4lTVnvI4PeuXpMtBGm1AH7vwtHUuTFdq//R6jpaMiFAgACBLgWuis5+IeIuEa/qsuOJ93VCjO/XIs6IePDEx2p4BAjUF8haonqtVr0mW7iXq6MuTDpubOHVhnvtlrzbCRAgQIDAAAJbnxb9sNhWXhatLSfg06KXc3IvAgT6FWihlmihJut3Lw3Y+9GxrfzUse3XoFf7+pcH9LApAgQIECCwl0Be1vusiAsiqp0vK+dzfni5LDoQNAIEBhfIWqLy/Ji1WNZk2oAC+ScMKh8UfzughU0RIECAAIFlBPLTon87Ij/4qfI5tFpuPi16maPLfQgQ6FIga4lqc+H2fLIW0wYW+IPY3vadUO3riyK//GANjQABAgQIVBPIT4t+d0S1c2flfHxadLWjWD4EpiuQNUTWEpXnxKzFmmyt/g5wYlf/pevjI8c7NXlUSJoAAQIEpi6QnxZ934hnR/i06OX2tk+LXs7JvQgQ2Fwga4isJSq36rXYrnYtF8At/NJ1fpCGRoAAAQIEKgrkp0X/YkR+WvQrI/KdBm1/gRPiLj4ten8n9yBAYH2BFmqIFmqxhXtAAbyQpbMbWzh4OxusjggQIECgSYH8tOgnRTw84j1NjmCcpPMcn++kvzTixHFSsFUCBCYq0EIN0ew7wC0fM0dF8ldEVL42/g0tA8udAAECBGYn4NOi11tX+LTo2T1VDJhArwJZQ1SucbIGy1pMG0EgX6mufHDkq+oaAQIECBBoTcCnRa+3vvBp0a0d6fIlUFMga4jKNY6rhUY8bl5e/ODIA/fkEX1smgABAgQIbCLg06JXX4Tmp0X/RoTLojc58jyWwHwFsnaoXPxmbi9vefe0/DvA6f6uBvAf0kCOUiRAgAABAosEfFr0IpW9b8tPi/6eiPwbmd8XkZeVawQIEFhWoIXaoYUabFdvBfCuNJ39IF891wgQIECAQKsCPi16vT239WnR74iHP3i9LjyKAIEZCrRQOzRdALd+TN0kBpCXGlW+TOCM1pHlT4AAAQIEtgm4LHr1dYfLorcdQL4kQGBPgawdKtc2OZ9lDaaNKPDh2Hblg+SKyO/YEX1smgABAgQIdC3g06LXW3vkp0U/I8Jl0V0fkfojMA2BrBmydqhc22TtpY0s8JrYfuWDJHP76pGNbJ4AAQIECPQh4NOi11uD5OWDLovu44jUJ4G2BbJmqF7XZO3VdGv9d4ATv4Vr0Fu4lr/pA1nyBAgQIDCKQP6pjidFPDzCn8VYfhecFnfNDxjzadHLm7kngTkItFAztFB77XmsKID35Onshy0czJ0NVkcECBAgMDuBrU+LflaM/MLZjX69AW//tGiXRa9n6FEEpibQQs3QfAE8hYMmL7+qfqnABZHjFF5smMLxYgwECBAg0K+Ay6LXW5e4LLrf41LvBKoLZK2QNUP1uibneK2AwMcjh+oHyz0LOEmBAAECBAgMJZDvZLw7ovr5uVJ+W58WfdJQO8l2CBAoI5C1QqX5aFEuWXM136byruTfN7AnWrikoQFGKRIgQIBAIwIui159R21dFn1mPNRl0av7eQSBlgVaqBVaqLn2PQYUwPsSdXaHFg7qzgarIwIECBAgEAJXRfxSxF0ifjsi31HQ9hc4Ie7ygoh3RDxk/7u7BwECExBooVaYRAE8gWPlmiHkyWHR2/SVbvvoVLCNgwABAgQIrCmQCzyXRa+2ZnFZ9JoHm4cRaEwga4VKtcuiXLwgV+igOjpy+WIDB82tC5lJhQABAgQIjCFweGz0ByMuiFi0wHLbYpfzw8tl0YGgEZigQNYI1ee+rLWy5tIKCfxD5FL9wHlCIS+pECBAgACBMQXyk0R/KyLf4ax+/q6UX35atHdhAkEjMCGBrBEqzTOLcslaaxJtKr8DnDvj7Q3skRau7W+AUYoECBAgMAGBz8QYvjPi4RHvmcB4hhrCabGht0T8RoRPix5K3XYI9CvwsH6776T3FmqtTgbaUidPjGQXvVpR6bYzWgKVKwECBAgQGEjAZdHrrWFcFj3QAWozBHoWyBqhUs2yKJestbRiAqdGPot2VqXbrogcjy3mJh0CBAgQIFBFIN/RdFn06usZl0VXOYLlQWB1gawNskaoVLMsyiVrLa2gwHmR06IdVum2ry7oJiUCBAgQIFBJ4KGRjE+LXm1Nk79L/ZsRLouudCTLhcD+AlkbVKpVFuWSNdZk2pR+Bzh3ytsa2DN5UtcIECBAgACB3QXeGj+6b8SzIi7c/W5+sk3g0Pj6uyPOjPhPEXlZuUaAQH2BFmqDFmqspff01Argv1l65OPd8VHjbdqWCRAgQIBAMwJXRaa/FHHniN+OyHcltP0FToi7/GrEOyJ8WvT+Xu5BYGyBFmqDFmqssffjaNt/QGx50dv2lW7Lv6F1/GhCNkyAAAECBNoUcFn06mscl0W3eazLej4CWRNkbVCpVlmUS9ZYWlGBIyKviyMW7bhKt31jUT9pESBAgACBygJ5We8zIy6IqHRer55Lflq0y6IDQSNQTCBrgurzR9ZWWWNphQX+LHKrfiC9qLCf1AgQIECAQHUBnxa93lrHp0VXP7LlNzeBrAmq1y1ZW2nFBX408qt+IH28uKH0CBAgQIBACwIui159zeOy6BaObDnORSBrgup1S9ZWWnGBh0V+1Q+kzO/uxR2lR4AAAQIEWhBwWfR66x6XRbdwdMtxygJZC7RQs2RtpRUXuFHkd2lE9QPq2cUdpUeAAAECBFoSyMuiXxGR73BWXwNUys9l0S0d5XKdkkDWApXmgkW5ZE2VtZXWgMCbIsdFO7HSbW9swFGKBAgQIECgNQGXRa++BnJZdGtHuXynIJC1QKXaZFEub5oC9FzG8JMNHFCXRY43nssOMU4CBAgQIDCggMui11tYuyx6wIPUpmYtkDVA1gKLis5Kt2VNpTUikH9QutLBs1suj2vEU5oECBAgQKBFAZdFr7cecll0i0e7nFsSeHwku1t9UOn2rKm0RgSOjjxb+D3gFzTiKU0CBAgQINCygMuiV19suyy65SNe7tUFsgaoVOguyiVrqayptIYEWriu/qMNeUqVAAECBAi0LOCy6PUW3C6Lbvmol3tVgawBFhWdlW7LWkprTOC5kW+lg2i3XO7cmKt0CRAgQIBAywIui15vfeSy6JaPerlXErhLJLNbXVDp9qyltMYETot8Kx1Eu+XyzMZcpUuAAAECBKYg4LLo1ddJeVn0yyLyRQSNAIH1BHLtv1tdUOn2rKW0xgQOjXzPjah0IC3K5Q2NuUqXAAECBAhMRcBl0eutk1wWPZVngHGMIZBr/0U1QaXbPhM5Zi2lNSjwqsi50sG0KJf8BfNjGrSVMgECBAgQmIqAy6LXWy+5LHoqzwDjGEog1/wtfFBv1lBaowJPjrwXFZ3Vbvu6Rn2lTYAAAQIEpiTgsujV100ui57SM8BY+hbINX+1OmRRPk/uG0L//Ql8eXS9aKdWu+2X+yPQMwECBAgQILCCgMui11s75WXR3x+RfhoBAosFcs1frQ5ZlM/Ji9N3aysC72vgQPtQK5jyJECAAAECMxFwWfR6C3WXRc/kCWKYawnkmn9RwVnptqydtMYF/kfkX+mg2i2XezTuLH0CBAgQIDBFAZdFr76Ocln0FJ8JxrSpQK71d6sDKt2etdOk22GTHt21g/uzRsb4bY3kKU0CBAgQIDAngbfGYO8b8cyIC+c08A3Gmp8e++SIMyNcFh0IGoEQaGWt30rt5KDaQyA/be2SiEqvrCzKJU8SGgECBAgQIFBXIC+L/p8R+Q7nonO52xa7uCy67jEts+EEcq1ffY7ImilrJ20CAq+PMVQ/4DI/f3B6AgebIRAgQIDA5AXysugs6lpYW1TJceuy6BMnf3QYIIEbCuQav8pzca88smaafJvDJdC5E1vZmf9u8kecARIgQIAAgfYF8rLo+0W4LHr5fbl1WfQ/xUO+evmHuSeBSQi0ssZvpWaaxEHR9yBOjg3s9WpHlZ99uG8I/RMgQIAAAQKdCrgsevU11lWxB/6fiLm8EdPpAaezJgVyjV+l3tgrj6yZtAkJvDPGstcOr/Kz+07I3FD+T3t3AmXbVdYJPCNJIIEQSMBEwhA6TDLLKE0iItAtiEzqAlRmxKWNMunSthtBpl6grSAgpGWyBRHsFmgcAio4RIwSaJspMoQEFBJCIHN4ybO/P7wilZeqV3c49+4z/L61vlf17r3n7L1/556zv111614CBAgQIDAVgfvWQD9S2Zd6Ygj9eE95HTyVJ4hxTlYgrxYZwvmYtdIkYko/ectFdggxlHeIG4KlPhIgQIAAgXUJ/G01lB9ie1n07OI/UA89ZfaHeySBQQoM5eXPQ1krDfJJ0KrT96yGh/DTl8+1AtIuAQIECBAg0ImAl0XPV3O9pBN1OyHQT4HU9kNYg2StJEYmkDdf+FLlEJ6A9xqZveEQIECAAIEpCnhZ9Ox116Om+AQx5tELpKYfwtoja6SslSYRU3oJdJ587x3IUfUy6IEcKN0kQIAAAQL7ENj8suiv7eNx7tpvv18rhOuCIDAygaHU9FkjZa0kRijwiBrTEH4Kc071czI/hRnh88yQCBAgQIDA3gJeFr1zDfbCvdH8n8CABVLLp6YfwtojayQxUoH8ZPHSyiE8Eb9npMfAsAgQIECAwJQFMr+fUTmEWmTdfbysXHwMy5TPjnGNPef6us+hRdrL2mhSr76Y0kugc0rlAP9xvhlA/PAA+qiLBAgQIECAwHwCf1MPz8ei5N2ivSz6mnaH1n8fd82b/I/AYAWGUstnbZQ1khixwGNrbIv8dGTd2/xL9XNqP6AY8dPO0AgQIECAwLUEjqlb3lS5u3LddUZf2/votZTcQGB4AqnhU8v39Tzb3K+sjcTIBa5f47uicvOB7+v3J438WBgeAQIECBAgsN9+ebdoL4u+ujb7Lk8KAgMXSA3f1/XF5n5lTZS10aRiir9hvLCO8KkDOcpDeenEQDh1kwABAgQI9FIg7xadl0X/TKWXRe+330N6eZR0isDsAkOp4bMmytpITEDgiTXGzT/96Ov3+UyuAydwPAyRAAECBAgQ+JaAl0Xvt9/rPRkIDFggtXtq+L6uLzb3K2siMRGBo2qcuyo3PwH6+v0DJ3JMDJMAAQIECBC4WmDKL4v+wNUMviMwOIHU7n1dV2zuV9ZCWROJCQnkV/6bnwR9/f6tEzomhkqAAAECBAhcLZDfJOVl0RdU9rVOWUW/8tszQWCoAqndV3FedL3PrIXExAR+ssbb9RNpFfu7vPp5o4kdG8MlQIAAAQIErhbIy6LfWDmVd4u+6Oqh+47AoARSs6d2X8WaoOt9Zi0kJiZwkxrvVZVdP5lWsb+fm9ixMVwCBAgQIEDg2gJTeVm03wBf+9i7ZRgCqdlXsRboep9ZA2UtJCYo8Bc15q6fUKvY38cmeGwMmQABAgQIELi2wBReFv2Zaw/bLQQGIZCafRVrga73+ReD0NTJlQg8dSBP0jzp81NfQYAAAQIECBCIwJhfFv1Rh5jAAAVSq3e9UF3V/p4yQF9d7kjghrWffAD0qp5cXe73DR2N2W4IECBAgACB8QiM8WXRbxnP4TGSCQmkVu+y9l/VvrL2yRpITFjgf9fYV/UE63K/l1Q/bzDh42ToBAgQIECAwNYCY3tZtN9ObX2c3dpfgdToqdW7rP1Xta+sfcTEBX64xr+qJ1jX+33GxI+V4RMgQIAAAQLbC4zlZdEnbj9E9xDopUBq9K7r/lXtL2sfMXGBw2r8F1au6knW5X4/PPFjZfgECBAgQIDAzgJDfln0OTsPzyMI9E4gNXqXNf+q9pU1T9Y+gsB+by6DVT3Rut7v3R0vAgQIECBAgMAOAkN9WfTzdhiXuwn0TSC1edf1/qr2lzWPIPBNgYfUv6t6onW939c6ZgQIECBAgACBGQWG9LLoC2pM159xXB5GoC8Cqc27rvdXtb+seQSBbwocVP+eW7mqJ1uX+81LF673zV77hwABAgQIECAwm8AQXhb9otmG4lEEeiOQmnwof0qZtU7WPILAtwVeVd91uVBd5b6e9O1e+4YAAQIECBAgMJtAXhb905X5Tesq65RF9v2v1acbVwoCQxJITb7I873FNq8cEqy+rkfgXgN6Ap+2HhKtECBAgAABAiMU6NvLoq8q4+8dobMhjV8gNXmLxewibWatIwhcS+DjdcsiT6gW23zXtXrvBgIECBAgQIDA7AJ9eVn082fvskcS6I1AavEWa4BF2swaRxDYUuC5desiT6oW2/zGliNwIwECBAgQIEBgdoHWL4t+T3X1gNm765EEeiOQWrzFGmCRNrPGEQS2FLhp3bqrcpEn1rq3Ob/6eeiWo3AjAQIECBAgQGA+gbws+g2VuyvXVdO8qdo6uFIQGJpAavCvVq7rXFmmnaxtssYRBLYVeHfds8yTbJ3bPn7bUbiDAAECBAgQIDC/wLpeFv2S+btmCwK9EUgNvs6af5m23tUbNR3prcAjBvSE/ofeKuoYAQIECBAgMFSBVb4s+vOF8qihwug3gT0CqcGXWZSuc9usbQSBfQrkpThD+UzgnDwn73M07iRAgAABAgQILCZwdG2Wz+bt4mOTLqv9vLDyupWCwJAFTq7Or3MBu0xbWdP4M4MhP9vW2PdfH9ATO28eIQgQIECAAAECqxK4fu34eZXnVM5bjH90z7bH1VdBYAwCqb3nPQ9aPf7XxgDe9Rj273qHI9nfHWsc/3cgY8kJdfvKTw6kv7pJgAABAgQIDFfgxOr6/StPqrxT5eGV19uTl9TXT1Weuefrn9TX/1cpCIxF4LY1kHyk0FDWUDlH/2ks+MaxeoEhvbb/9avn0AIBAgQIECBAgACBSQuk5m7129x52/VeQZN+qi42+GcM6Al+efU1H18gCBAgQIAAAQIECBDoXiC1dmrueReirR6ftYwgMJfAEfXoiypbPWnnbfcFc43OgwkQIECAAAECBAgQmFUgtfa89Xmrx2cNk7WMIDC3wGtri1ZP3Hnb/Ur11Tsrzn2IbUCAAAECBAgQIEBgnwKpsVNrz1uft3p81jCCwEICd6mtWj1xF2n3pxYapY0IECBAgAABAgQIENhOIDX2IrV5q22yhhEEFhY4rbZs9eSdt91/rr4esPBIbUiAAAECBAgQIECAwGaB1Napseety1s9PmsXQWApgR+vrVs9gRdp9xFLjdbGBAgQIECAAAECBAhsCKS2XqQmb7VN1i6CwFICh9bW51e2ehLP2+7fLDVaGxMgQIAAAQIECBAgsCGQ2nreerzV47NmydpFEFha4BW1h1ZP5EXavffSI7YDAgQIECBAgAABAtMWSE29SC3eapusWQSBTgROrL3srmz1ZJ633Xd0Mmo7IUCAAAECBAgQIDBdgdTU89bhrR6ftUrWLIJAZwLvqz21ekLP2+5V1dcTOhu5HREgQIAAAQIECBCYlkBq6dTU89bhrR6ftYqYQcA7Bs+AtOchr5r9oc0fmeP6c817oQMECBAgQIAAAQIEhimQWnpIa6UhrVWG+YyYYK9zApxZ2eqnOvO2e0n19agJHidDJkCAAAECBAgQILCMQGro1NLz1t+tHp81ypAW68scm6W3BTU7YV5X/+uzP7z5I69bPfjp5r3QAQIECBAgQIAAAQLDEkgNnVp6KJE1StYqgkDnAofVHs+rbPXTnXnbvaD6emTnCnZIgAABAgQIECBAYJwCqZ1TQ89bd7d6fNYmWaOIGQX8BnhGqD0Pu6y+vnq+TZo+Oifws5v2QOMECBAgQIAAAQIEhiOQ2nlIv0DK2iRrFEFgZQLH1J7zJGv1U555272w+nqjlWnYMQECBAgQIECAAIFxCKRmTu08b73d6vFZk2RtIuYQ8BvgObD2PPTc+vqW+TdrtsUR1fLzmrWuYQIECBAgQIAAAQLDEEjNnNp5KJE1SdYmgsDKBW5bLeQPzVv9tGfedvMudjdZuYoGCBAgQIAAAQIECAxTILXykN75OWuRrEkEgbUJvKtamnch2vLxQ3oH67UdRA0RIECAAAECBAgQKIHUyi1r9XnbzlpEEFirwEnV2rxP1JaPz98IHLdWIY0RIECAAAECBAgQ6L9AauTUyi1r9XnbPqn/rHo4RoHTB3aivHqMB8GYCBAgQIAAAQIECCwhkBp53gVoy8dnDSIINBH4kWq15ZN/3ravqP7evImURgkQIECAAAECBAj0TyC1cWrkeevqlo/PGkQQaCJwYLV6VmXLE2Detk9pIqVRAgQIECBAgAABAv0TSG08bz3d8vFnVX+zBhEEmgn8bLXc8iSYt+1d1d8TmmlpmAABAgQIECBAgEA/BFITpzaet55u+fisPQSBpgKHV+sXVLY8EeZt+81NxTROgAABAgQIECBAoL1AauJ56+iWj8+aI2sPQaC5wMuqBy1PhnnbvrL663PDmj9tdIAAAQIECBAgQKCRQGrh1MTz1tEtH581hyDQC4G8dfo3KlueEPO2/bZeyOkEAQIECBAgQIAAgfULpBaet35u+fisNbLmEAR6I/Cm6knLk2LetndXf+/YGz0dIUCAAAECBAgQILAegdTAqYXnrZ9bPj5rDUGgVwJ3qt60PCkWafsPeyWoMwQIECBAgAABAgRWL5AaeJHaueU2WWsIAr0T+NPqUcsTY5G27947RR0iQIAAAQIECBAgsBqB1L6L1Mwtt8kaQxDopcB9q1ctT45F2v5ALyV1igABAgQIECBAgED3Aql9F6mZW26TNYYg0FuBP66etTxBFmn7Mb3V1DECBAgQIECAAAEC3Qik5l2kVm65TdYWgkCvBe5RvWt5kizS9lnV50N7rapzBAgQIECAAAECBBYXSK17VuUitXLLbbK2EAR6L/BH1cOWJ8oibf9S71V1kAABAgQIECBAgMBiAql1F6mRW26TNYUgMAiBO1cvh/bW6hdXn48dhK5OEiBAgAABAgQIEJhdIDVuat2Wi9l5285aImsKQWAwAm+vns77RG/9+DcPRldHCRAgQIAAAQIECMwmkBq3dZ09b/tZSwgCg86DFmQAADLFSURBVBK4ffX2qsp5n+wtH5+fNN1zUMo6S4AAAQIECBAgQGB7gdS2Q3tlZtYQWUsIAoMT+N3qccsF7SJtn1Z93n9w0jpMgAABAgQIECBA4JoCqWlT2y5SE7fcJmsIQWCQAv+uen1lZcsTaJG2HzdIbZ0mQIAAAQIECBAgcLVAatpFauGW22TtkDWEIDBYgd+pnrc8iRZp+wvV5+sOVlzHCRAgQIAAAQIEpi6QWjY17SK1cMttsnYQBAYtcMvq/TcqW55Ii7T9gkGr6zwBAgQIECBAgMCUBVLLLlIDt9wma4asHQSBwQu8tkbQ8mRapO1Lq8/HD17eAAgQIECAAAECBKYmkBo2tewiNXDLbbJmEARGIXCzGsXllS1PqEXaftso9A2CAAECBAgQIEBgSgKpYRepfVtuk7VC1gyCwGgEfrNG0vKkWrTt+43mCBgIAQIECBAgQIDA2AVSuy5a97bcLmsFQWBUAt9RoxniSzH+ofp9wKiOhMEQIECAAAECBAiMUSA1a2rXlgvZRdrOGiFrBUFgdAIvrxEtclK03uZJozsSBkSAAAECBAgQIDA2gdSsrevmRdrPGkEQGKXA0TWqiyoXOTFabvOl6vORozwiBkWAAAECBAgQIDAGgdSqqVlb1syLtJ21QdYIgsBoBV5cI1vk5Gi9zetHe0QMjAABAgQIECBAYOgCqVVb18uLtJ+1gSAwaoGjanRfq1zkBGm5ze7q88mVggABAgQIECBAgECfBE6uzqRWbVkrL9J21gQ3rBQERi/w7BrhIidJ623OrH4fOvqjY4AECBAgQIAAAQJDEUhtmhq1dZ28SPtZEwgCkxC4To1yqCfqSyZxhAySAAECBAgQIEBgCAIvrU4usvhsvU3WAlkTCAKTEXhYjbT1ibdI+7uq33eZzFEyUAIECBAgQIAAgb4KpCZNbbpITdt6m6wFBIHJCfxZjbj1ybdI+/l8tQMnd7QMmAABAgQIECBAoC8CqUWH+Jm/qb2zBhAEJilwhxr1UH9q9ZxJHjGDJkCAAAECBAgQ6INAatFFfpHTepvU/rfvA6A+EGgl8MpquPWJuEj7l1S/b9UKTbsECBAgQIAAAQKTFUgNmlp0kRq29Tap/QWBSQvkY5HOr2x9Mi7S/qmTPnIGT4AAAQIECBAg0EIgNegitWvrbVLzp/YXBCYv8DMl0PqEXLT9J0z+6AEgQIAAAQIECBBYl8ATqqFF69bW26XmFwQIlMBBlR+rbH1SLtJ+fpJ1TKUgQIAAAQIECBAgsEqB1JypPRepWVtvk1o/Nb8gQGCPwIPqa+sTc9H23+YoEiBAgAABAgQIEFixQGrORevV1tul1hcECOwl8O76f+uTc9H2H7rXWPyXAAECBAgQIECAQFcCqTUXrVNbb5caXxAgsIXAiXXbNypbn6SLtH9O9fuILcbkJgIECBAgQIAAAQLLCKTGTK25SI3aepvU9qnxBQEC2wi8om5vfaIu2v6rthmTmwkQIECAAAECBAgsKpAac9H6tPV2qe0FAQL7ELhB3XduZeuTdZH2d1e/77ePsbmLAAECBAgQIECAwDwCqS1TYy5Sm7beJjV9antBgMAOAk+r+1ufsIu2/9nqu5dC73CA3U2AAAECBAgQILCjQGrK1JaL1qWtt0tNLwgQmEHggHrMRypbn7SLtv/mGcboIQQIECBAgAABAgT2JZCactF6tPV2qeVT0wsCBGYUOLke1/rEXab9H51xnB5GgAABAgQIECBAYG+B1JLL1KKttz157wH5PwECOwu8sx7S+uRdtP0Lqu/H7zxEjyBAgAABAgQIECBwDYHUkKklF61DW2+XGl4QILCAwM1rm4srW5/Ei7b/geq7l34scOBtQoAAAQIECBCYqEBqx9SQi9afrbdL7X7ziR47wybQicAzay+tT+Rl2v/FThTshAABAgQIECBAYAoCqR2XqT1bb5vaXRAgsIRAfgr2ocrWJ/Oi7e+qvt9jifHblAABAgQIECBAYBoCqRlTOy5ad7be7u+q7179OI3nqlGuWOCOtf9vVLY+qRdt/8zq+/VWbGT3BAgQIECAAAECwxVIrZiacdF6s/V2qdVTswsCBDoSeGHtp/WJvUz7p3TkYDcECBAgQIAAAQLjE0ituEyt2Xrb1OqCAIEOBQ6pfX2isvXJvUz7j+zQw64IECBAgAABAgTGIZAacZkas/W2qdFTqwsCBDoWuF/tb3dl65N80fbPr74f17GJ3REgQIAAAQIECAxXILVhasRF68vW26U2T40uCBBYkcCra7+tT/Rl2n9f9X//FdnYLQECBAgQIECAwHAEUhOmNlymtmy9bWpzQYDACgWuX/v+QmXrk32Z9p+zQh+7JkCAAAECBAgQGIZAasJlasrW26YmT20uCBBYscDDa/+tT/hl2r+i+n/XFRvZPQECBAgQIECAQH8FUgumJlympmy9bWpyQYDAmgTeXu20PumXaf/j1f/D1mSlGQIECBAgQIAAgf4IpAZMLbhMLdl629TiggCBNQrctNr6amXrk3+Z9l+/Ri9NESBAgAABAgQI9EMgNeAyNWTrbVOD36QflHpBYFoCT6rhtr4ALNv+k6d1yIyWAAECBAgQIDBpgdR+y9aPrbdPDS4IEGgk8P5qt/VFYJn2L6/+f3cjO80SIECAAAECBAisTyA1X2q/ZWrH1tum9hYECDQUOKHavrSy9cVgmfY/X/2/cUNDTRMgQIAAAQIECKxWILVear5lasbW26bmTu0tCBBoLPC8ar/1BWHZ9k+tMRzY2FHzBAgQIECAAAEC3Qukxkutt2y92Hr71NyCAIEeCBxUffhwZeuLwrLtv7QHlrpAgAABAgQIECDQrUBqvGXrxNbbp9ZOzS0IEOiJwN2qH1dWtr44LNv+I3viqRsECBAgQIAAAQLLC6S2W7Y+bL19auzU2oIAgZ4JPL/60/oCsWz7F9YYbtszV90hQIAAAQIECBCYXyA1XWq7ZevD1ts/f/6h24IAgXUI5GUZp1W2vkgs2/7HawyHrwNMGwQIECBAgAABAisRSC2Xmm7ZurD19qmtvfR5JU8ROyXQjcCtajdj+EnbO7rhsBcCBAgQIECAAIEGAqnlWi9el20/NXVqa0GAQM8Ffrz6t+wJ34ftvdNez59oukeAAAECBAgQ2EIgNVwfasll+5CaWhAgMBCB369+LnvSt94+bzjwgIF46yYBAgQIECBAgMC3arcxvDFramlBgMCABI6svp5d2XoRu2z759YYbjYgd10lQIAAAQIECExVIDVbardl67/W26eGTi0tCBAYmMBJ1d+rKltfRJZt/+9rDIcMzF53CRAgQIAAAQJTEkitlppt2bqv9fapnU+a0oEzVgJjE3hxDaj1haSL9l83tgNjPAQIECBAgACBEQmkVuui5mu9j9TOggCBAQscXH0/vbL1xaSL9p8+4OOg6wQIECBAgACBsQqkRuui1mu9j9TMqZ0FAQIDFzix+n9xZeuLyrLt76oxPHjgx0L3CRAgQIAAAQJjEkhtlhpt2Tqv9faplVMzCwIERiLwlBpH6wtLF+3n89juNJJjYhgECBAgQIAAgSELpCZLbdZFjdd6H6mVBQECIxP4wxpP64tLF+2fU+M4dmTHxnAIECBAgAABAkMSSC2WmqyL2q71PlIjCwIERihwoxrTFytbX2S6aP+MGsfhIzxGhkSAAAECBAgQ6LtAarDUYl3UdK33kdo4NbIgQGCkAg+sce2ubH2x6aL999Y4DhzpcTIsAgQIECBAgEAfBVJ7pQbropZrvY/UxKmNBQECIxd4eY2v9QWnq/ZfM/JjZXgECBAgQIAAgT4JpPbqqo5rvZ/UxIIAgQkIXKfGOJaXreTC+dwJHDNDJECAAAECBAi0FkjN1XrR2lX7qYVTEwsCBCYicLsa56WVXV1EWu4nL1959ESOm2ESIECAAAECBFoIpNYay5/RpQZOLSwIEJiYwFg+GimL78sq7zOx42e4BAgQIECAAIF1CKTGSq3V8hceXbbtI4/W8azRBoGeCpxS/erygtJyX+fVWE7oqbNuESBAgAABAgSGKJDaKjVWyxqvy7ZT+woCBCYscEiN/fTKLi8sLff1qRrLURM+noZOgAABAgQIEOhKIDVVaquWtV2XbafmTe0rCBCYuMDxNf4x/WTvgzUeF7eJP6kNnwABAgQIEFhKILVUaqouF6At95VaNzWvIECAwDcF8hloV1a2vDB12fbv1Vj2/+bI/EOAAAECBAgQIDCPQGqo1FJd1mYt95Ua1+f9zvMM8FgCExH4+Rpny4tT122/aCLHzTAJECBAgAABAl0KpIbqui5rub/UuIIAAQJbCryzbm15geq67WduOUo3EiBAgAABAgQIbCWQ2qnreqzl/lLbCgIECGwrcETd84nKlheqLtvO59V5q/ttD7c7CBAgQIAAAQLfFkjNNJbP+k09mZo2ta0gQIDAPgXyweAXVXa5EG25r6tqLI/d54jdSYAAAQIECBCYtkBqpdRMLWu2LttOLZuaVhAgQGAmgUfVo7q8CLXe164azw/NNHIPIkCAAAECBAhMSyA1Umql1vVal+2nlhUECBCYS+Bl9eguL0St93VFjedBcwl4MAECBAgQIEBg3AKpjVIjta7Tumw/NawgQIDA3AIH1hbvr+zygtR6X5fUeO4/t4QNCBAgQIAAAQLjE0hNlNqodX3WZfupXVPDCgIECCwkcHRtdXZllxem1vu6sMZzj4U0bESAAAECBAgQGIdAaqHURK3rsi7bT82a2lUQIEBgKYFcIC+v7PIC1Xpf59d47rSUio0JECBAgAABAsMUSA2UWqh1PdZl+6lV/YJjmM9HvSbQS4GnVq+6vEj1YV9frjHdppfaOkWAAAECBAgQWI1Aap/UQH2oxbrsQ2pVQYAAgU4FTqm9dXmh6sO+zqkx3aJTJTsjQIAAAQIECPRT4BbVrdQ+fajBuuxDalRBgACBzgUOqT2eXtnlBasP+/pMjenYzrXskAABAgQIECDQH4HUOql5+lB7ddmH1KapUQUBAgRWIpCL59jeFCsX4Y9XetOElTxl7JQAAQIECBBoLJAaJ7VOlwvPPuwrNalfYjR+cmmewBQE7liD/HplHy58XfbhjBrTkVM4gMZIgAABAgQITEYgtU1qnC5rpj7sK7VoalJBgACBtQjkQ9N3VfbhAthlH06rMR2+FkGNECBAgAABAgRWK3BE7T61TZe1Uh/2lRo0taggQIDAWgWeUq314SLYdR8yUfhN8FqfShojQIAAAQIEOhZILTPGxW/qvtSgggABAk0EXlytdr0A7cP+8lIhfxPc5CmlUQIECBAgQGBJgdQwY3zZc2rE1J6CAAECzQT2r5bfWtmHRWvXfcibRXhjhWZPLQ0TIECAAAECCwikdhnjG16lzkvNmdpTECBAoKnAIdX6X1V2vQDtw/7ycQG3qBQECBAgQIAAgb4L3KI6OMaPOkpNmFozNacgQIBALwRuVL34VGUfFq1d9yEfGH+bXijrBAECBAgQIEBga4HUKqlZuq6D+rC/1JipNQUBAgR6JXBC9ea8yj5cKLvuw5drXHfqlbbOECBAgAABAgS+JZAaJbVK1/VPH/aX2jI1piBAgEAvBe5bvbqssg8XzK77cH6N6x69VNcpAgQIECBAYKoCqU1So3Rd9/Rhf6kp7zPVA2vcBAgMR+Ax1dXdlX24cHbdhwtrXPcfzqHQUwIECBAgQGDEAqlJUpt0Xe/0YX+pJVNTCgIECAxC4LnVyz5cPFfRh0tqbD58fRBPQ50kQIAAAQKjFUgtkppkFbVOH/aZWlIQIEBgUAKvrd724QK6ij5cUWP7oUEdDZ0lQIAAAQIExiKQGiS1yCpqnD7sMzWkIECAwOAEDqwev7eyDxfSVfRhV43tsYM7KjpMgAABAgQIDFkgtUdqkFXUNn3YZ2rH1JCCAAECgxQ4vHp9RmUfLqir6MNVNbanDPLI6DQBAgQIECAwNIHUHKk9VlHT9GGfqRlTOwoCBAgMWuC46v05lX24sK6iD3mThmcO+gjpPAECBAgQINB3gdQaq6hj+rLP1IqpGQUBAgRGIXDbGsW5lX25yK6iHy+q8e0/iqNlEAQIECBAgEBfBFJbpMZYRe3Sl32mRkytKAgQIDAqgTvXaL5a2ZeL7Sr68Xs1vkNGddQMhgABAgQIEGglkJoitcUqapa+7DO1YWpEQYAAgVEK3KtGdVFlXy66q+jHB2t8R43y6BkUAQIECBAgsC6B1BKpKVZRq/Rln6kJUxsKAgQIjFrgpBrdpZV9ufiuoh+fqvGdMOqjaHAECBAgQIDAqgRSQ6SWWEWN0pd9phY8aVWA9kuAAIG+CTykOjTmz6/L5HJe5X36Bq8/BAgQIECAQK8FUjukhujLQnUV/UgNmFpQECBAYFICj6zRXlm5igtrX/Z5WY3v0ZM6qgZLgAABAgQILCqQmiG1Q1/qmFX0I7VfakBBgACBSQo8vkY95s+zy8SRj0l67iSPrkETIECAAAECswqkVkjNsIpFZ1/2mZovtZ8gQIDApAWeVqPvy4V5lf14TY3zwEkfaYMnQIAAAQIE9hZIbZAaYZU1SF/2nZpPECBAgEAJPKuyLxfnVfbjvTXOwx1xAgQIECBAgEAJpCZIbbDK2qMv+06tJwgQIEBgk8Av1/d9uUivsh9n1DiP3TRu3xIgQIAAAQLTE0gtkJpglTVHX/adGk8QIECAwBYCL6vb+nKxXmU/zqlx3mmL8buJAAECBAgQGL9AaoDUAqusNfqy79R2ggABAgT2IfBbdV9fLtqr7MeFNc4H78PBXQQIECBAgMD4BDL3pwZYZY3Rl32nphMECBAgsIPA/nX/Gyv7cvFeZT921TifXikIECBAgACB8Qtkzs/cv8raoi/7fmONMzWdIECAAIEZBPKOiG+v7MtFfNX9+O0a6yEzuHgIAQIECBAgMDyBzPGZ61ddT/Rl/6nhUssJAgQIEJhD4OB67Hsq+3IxX3U/PlRjvdkcPh5KgAABAgQI9F8gc3vm+FXXEX3Zf2q31HCCAAECBBYQOLS2mdIi+Nwa7wMWcLIJAQIECBAg0D+BzOmZ2/uyOF11P1KzpXYTBAgQILCEQH6KOKWXQ19Z433uEl42JUCAAAECBNoLZC7PnL7qRWdf9p9azW9+2z/v9IAAgZEI5O9I3ljZl4v8OvrxBzXewysFAQIECBAgMByBzN2Zw9dRK/SljTfWeP3NbyEIAgQIdCmQdxKcykckbUxoH68x36ZLRPsiQIAAAQIEViaQOTtz98Y8PoWvqc282/PKnlJ2TIAAgf32yweqT2FC2RhjPivwEQ48AQIECBAg0GuBR1bvpvL5vhs1SmoyQYAAAQJrEPgv1cbGxXcqX19SY/byojU8uTRBgAABAgTmEMjcnDl6KvXIxjhTiwkCBAgQWKPAs6qtjYvwVL6eWmO+8RqNNUWAAAECBAhsL5A5OXPzVOqQjXGmBhMECBAg0EDgadXmVZUbF+QpfP18jfe7G1hrkgABAgQIELhaIHNx5uQp1B4bY0zNldpLECBAgEBDgcdX21P6mIFMQpdXPrmhuaYJECBAgMCUBTIHZy7eWBhO4WtqrdRcggABAgR6IJA3nriicgoT0OYxvr7GfFgP/HWBAAECBAhMQSBzbubezXPxFL5PjZVaSxAgQIBAjwQeUn25tHIKE9HmMebjFu7ao+OgKwQIECBAYIwCmWun9hFHqTdSW6XGEgQIECDQQ4GTqk8XVW5eIE7h+/xk9jmVPoevEAQBAgQIEOhQIHNr5tgpvtIsNVVqK0GAAAECPRa4V/Xtq5VTWPjuPcb31biP6/Gx0TUCBAgQIDAkgcypmVv3nm+n8P/UUqmpBAECBAgMQODO1cdzK6cwQe09xvNr3P5OZwBPUl0kQIAAgV4LZC7NnLr3PDuF/6eGSi0lCBAgQGBAAretvp5TOYWJaqsxnlJjv96AjpeuEiBAgACBPghk7swcutXcOoXbUjulhhIECBAgMECBvHTpjMopTFhbjfHMGvs9BnjcdJkAAQIECLQQyJyZuXOrOXUKt6Vm8qdULZ552iRAgECHAofXvt5bOYWJa6sx7qqx/2LlAZWCAAECBAgQuLZA5sjMlZkzt5pLp3BbaqXUTIIAAQIERiBwYI3hNZVTmMC2G+MHavzHj+BYGgIBAgQIEOhSIHNj5sjt5s8p3J4aKbWSIECAAIGRCTyvxrO7cgqT2VZjvKDG/qMjO6aGQ4AAAQIEFhXInJi5cas5cwq3pSZKbSQIECBAYMQCj6mxXVY5hYltuzG+ucZ/xIiPsaERIECAAIF9CWQOzFy43Tw5hdtTC6UmEgQIECAwAYH71BjPq5zCBLfdGD9b4/+eCRxrQyRAgAABApsFMvdlDtxufpzC7amBUgsJAgQIEJiQwAk11k9VTmGi226MV9X4X1npt8GFIAgQIEBg1AKZ6zLnZe7bbl6cwu2pfVIDCQIECBCYoMBRNea/qpzChLevMZ5dBg+d4PE3ZAIECBCYhkDmuMx1+5oLp3Bfap7UPoIAAQIEJixwSI39rZVTmPh2GmMcjpnwc8HQCRAgQGBcApnTzPHfqnHicMi4Dq/RECBAgMCiAvvXhi+u3GmBOIX7zy+Hn1gU0nYECBAgQKAnApnLMqdNYe7eaYypcVLrCAIECBAgcA2Bp9T/dlXuNJFM4f5Ty+GW19DxHwIECBAg0H+BzF2Zw6YwV+80xtQ0qW0EAQIECBDYVuBBdc/XK3eaVKZw/yXl8OzKAysFAQIECBDos0DmqsxZmbumMEfvNMbUMqlpBAECBAgQ2FHgjvUIb5ZxdQFxennceUc1DyBAgAABAm0EMkdlrtppUTiV+1PDpJYRBAgQIEBgZoFj65Em06uLibyM6iWVh84s6IEECBAgQGC1ApmTMjdljprK4nancaZ2SQ0jCBAgQIDA3AJ5t8RTKneabKZ0/5nlcXKlIECAAAECLQVOrsYzJ01pDt5prKlZvNNzIQgCBAgQWE7gabX55ZU7TTxTuX93Wbyu8shKQYAAAQIE1imQuSdzUOaiqcy7O40zNUpqFUGAAAECBDoTuGftyd8FX7PY+FKZPLHygM6U7YgAAQIECGwtkLkmc07mnp0WhFO6P7VJahRBgAABAgQ6Fzi69vj+yilNrLOM9R/K5H6da9shAQIECBD4lkDmmMw1s8xJU3pMapLUJoIAAQIECKxMIB+z8N8qpzTBzjrWt5XL8SuTt2MCBAgQmJpA5pTMLbPOQ1N6XGoRH1M4tTPCeAkQINBQ4NHV9kWVU5psZxnrpWXygsrrVgoCBAgQILCIQOaQzCWZU2aZe6b0mNQeqUEEAQIECBBYu8DtqsVPVk5p4p11rF8ol8dV7l8pCBAgQIDALAKZMzJ3ZA6Zdb6Z0uNSc6T2EAQIECBAoJnAEdXyH1ZOaQKeZ6ynlY0352j29NQwAQIEBiOQuSJzxjxzzJQem1ojNYcgQIAAAQK9EPiF6sWVlVOajGcdaz6q4s2Vx1YKAgQIECCwWSBzQ+YIH2u0dQ2R2iI1hiBAgAABAr0TeGD16LzKWReGU3vcxWXzS5WHVgoCBAgQmLZA5oLMCZkbpjYfzjre1BSpLQQBAgQIEOitQN6x8vTKWSe3KT7urPJ5TKUgQIAAgWkKZA44q3KKc+CsY04tkZpCECBAgACB3gscUj08pXLWSW6qj/tAGd2990dTBwkQIECgK4Fc83Ptn+q8N+u4U0OklhAECBAgQGBQAk+t3voIh30XOvmbr3dW3nFQR1ZnCRAgQGAegVzjc62fdQE41celZkjtIAgQIECAwGAFbl89/0jlVCfzWcedhfBbK29TKQgQIEBgHAK3rWHk2p5r/KzzwVQfd0YZpWYQBAgQIEBg8ALXqRG8olIBsHMBlHe7fFPlCZWCAAECBIYpkGt4ruW5pk91QTvruFMbpEZIrSAIECBAgMCoBPJOjl+snHVSnPLjdpXT6yuPrxQECBAgMAyBXLNz7c41fMpz2KxjT03gXZ4LQRAgQIDAeAVuVEPLh9nPOjlO/XFXlNVvVfoM4UIQBAgQ6KlArtG5VueaPfV5a9bxpxZITSAIECBAgMAkBPImFz77cPZC6bLy+vXKm0zi2WGQBAgQGIZArsm5NucaPevCb+qPy9zvja4KQRAgQIDA9AROrCH7zOD5iqZLyuyllX5qPr3zxYgJEOiPQK7BuRbnmjz1Be0848+cn7lfECBAgACByQocXCN/SeVVlfNMolN/7IXl9YLKIysFAQIECKxHINfcXHtzDZ76PDTP+DPHZ67PnC8IECBAgACBEjip8uzKeSZUj91vvwvK7Jcrj6oUBAgQILAagVxjc63NNdfcM59B5vbM8YIAAQIECBDYSyA/Wf/9SsXF/Ab5m6pXVt6qUhAgQIBANwK5puba6j0r5p+XMpdnTvdKpUIQBAgQIEBgXwI/UXd6edlixUZeZvYHlffeF7D7CBAgQGCfArmG5lqaa6ofys5vkDk8c7kgQIAAAQIEZhTIT91Pq1R4LG7w1+X3Q5UHVAoCBAgQ2LdArpW5Zubaae5Z3CBzd+ZwQYAAAQIECMwpcFA9/lcqr6xUjCxu8M/l94zKwyoFAQIECFxTINfGXCNzrTTXLG6QuTpzduZuQYAAAQIECCwhcLfa9sOVCpPlDL5Shi+oPKZSECBAYOoCuRbmmphro/llOYPM0ZmrBQECBAgQINCRQH6i/POVl1YqVJYzuKwMX1d520pBgACBqQnk2pdrYK6F5pPlDDInZ272W99CEAQIECBAYBUCt66d/nmlomV5g93l+O7KkyoFAQIExi6Qa12uebn2mUOWN8hcnDlZECBAgAABAmsQeHK18dVKRUw3BqeX5eMqD60UBAgQGItArmm5tuUaZ77oxiBzb+ZgQYAAAQIECKxZ4KbVXj6mQlHTnUEKm9+o/K5KQYAAgaEK5BqWa5kflHY3P2SuzZybuVcQIECAAAECDQUeXm1/odJCuFuDfJTFkyqvVykIECDQd4Fcq3LN8hF63c4FmVszx2auFQQIECBAgEBPBK5f/XhNpb/t6r7wubBcX1t590pBgACBvgnk2pRrVK5VfhDarUHm1MytmWMFAQIECBAg0EOBf199+mSlImg1Bh8u23xe5g0qBQECBFoJ5BqUa1GuSa73qzHIXJo5VRAgQIAAAQI9Fzik+verld+oVBitxuCSsn1D5X0rBQECBNYlkGtOrj25Brm+r8Ygc2fm0MylggABAgQIEBiQwB2rrx+qVCSt1uBjZfxzlTeqFAQIEOhaINeWXGNyrXE9X61B5szMnYIAAQIECBAYqMAB1e+frby4UuG0WoPLy/itld9XeWClIECAwKICuYY8sDLXlFxbXL9Xa5A5MnNl5kxBgAABAgQIjEDg5jWGd1YqotZj8KWyflVl/n5MQVUIggCBHQVyrcg147cqcw1xvV6PQebGzJGCAAECBAgQGKHAyTWmj1QqrNZn8MXy/u+V+du9/SsFAQIENgRyTci1IdeIXCtcm9dnkLnw5EpBgAABAgQIjFwgv2V4euW5lYqt9RqcXeavqLxnpSBAYLoCuQbkWpBrguvweg0y92UOzFwoCBAgQIAAgQkJ5GM0UoDlHS8VYOs3+Fy5v6zybpWCAIHxC+Rczzmfc981d/0Gmesy5/kYu0IQBAgQIEBgygIn1uDfXakga2fw6fJ/UeWdKwUBAuMRyDmdczvnuGtsO4PMcZnrBAECBAgQIEDg2wIPqu98zEa7Am2jOP5kHYcXVN7h20fGNwQIDEkg527O4ZzLG+e1r20sMqdlbhMECBAgQIAAgS0FDqpbf6by/EoFW3uDf67j8JuV/6HysEpBgED/BHJu5hzNuZpz1rWzvUHmsMxlmdMEAQIECBAgQGBHgaPqEa+s3FWpmOuHwWV1LP6k8pmVXspXCIJAQ4GcgzkXc07m3HSd7IdB5qzMXZnDBAECBAgQIEBgboHb1xZ/Vqm465/BZ+u45PNCH1p5vUpBgMDqBHKO5VzLOZdzzzWxfwaZqzJnCQIECBAgQIDA0gIPqz2cWano66fB5XVsTq18VqUCsBAEgQ4Eci7lnMq5lXPM9a+fBpmbMkcJAgQIECBAgECnAtepvT278muVCsF+G3y+jtFrKx9eeUSlIEBgZ4GcKzlncu7kHHKd67dB5qLMSZmbBAECBGYS2H+mR3kQAQIErimQv616TuV/qvTS22va9PF/+Zu4v6788z1f/76+XlopCExd4LoFcM/K+1U+YM/Xg+ur6LfAJdW936x8eeVX+91VvSNAoG8CFsB9OyL6Q2BYAkdXd3+h8hmV3qF4OMfuyurqGZV/syn/dTjd11MCCwt8R235PZvyrvW9dwlemHPtG+bNxl5T+dLK89beugYJEBiFgAXwKA6jQRBoLpCi8hcrn1p5SPPe6MAiAp+rjTYviD9W/9+9yI5sQ6AnAgdUP+5QuXnBe8ue9E035hO4oh7++soXV/ph3Xx2Hk2AwF4CFsB7gfgvAQJLCdystv7PlU+s9DLCpSibb/z16sFplXnpdBbGXjZdCKLXAhsvZ86CNy9pvk/lDXrdY53bSWBXPeANlb9aec5OD3Y/AQIEZhGwAJ5FyWMIEJhXIL9l+S+VP1Z54Lwbe3wvBfZ+2XQWx1/sZU91aioCx9VAs8jNgjfp5cyFMJK4qsbxlsoXVObVKYIAAQKdCVgAd0ZpRwQIbCFwYt32Xyt/tDIvRxTjEji3hpO/Jd6cn67//9u4hmk0jQVSq9y6MgvczXlM435pvnuB/NnF2yp/pTIfbSQIECDQuYAFcOekdkiAwBYC+Tu851c+qtJ1pxBGHBfV2D5aubEozvefqMyb1wgCOwnkzfRuV3nnyo3Fbr73UV6FMOLID83eWfn8yrz/gCBAgMDKBBSiK6O1YwIEthC4S92Wl7Q9bIv73DRegfxW56zKFLYf35P5/pOVl1SK6Qnk49NuW5kfjt1+T+b7W1R6tUghTCjeXWPNn8x8ZEJjNlQCBBoKWAA3xNc0gQkL3KPG/sLKB0/YwNC/9VLpswoii+Ishj9TmZdQJ8+uzN8BiuEK5O//j6/My5eTJ1Rm0ZsF7y0q1SCFMOH40xr7L1eePmEDQydAoIGAyacBuiYJEPi2QN64Jn8j/P3fvsU3BL4lsKu+fK4yi+HNC+Pcdk7lxZWivcDh1YWbVd6ycvNCN9/nNu8GXwjiGgKn1v9+pTLvLi8IECCwdgEL4LWTa5AAgS0E8jd+z67Mm2UpmLcActO1BL5Wt+S3xFkMb+Tm/3+xbs9nh4rFBQ6tTY+tzAI3md/mbny/8f8j6zZBYCeB/EArb271isq8L4AgQIBAMwEL4Gb0GiZAYAuB4+q2Z1Y+rfIGW9zvJgLzCHy9Hvzlyrxbdb7u/X3+/5XKCyqzoE6RPubID5eyYL1h5Y0rb7Ip847KG//f+N45WChiKYGcg6+r/I3K/FBKECBAoLmABXDzQ6ADBAhsIZB3fH1KZRbDN9/ifjcRWIXApbXTjcVwFsR7Z+7fyLyr9XbfZyF9VeWVe77m+43cfFvd/M3PyT6wvh606fv8f/NtWbgeVnndPbnd97k/C9ytMove3C8IrEPg89VIFr2nVOad4QUBAgR6I2AB3JtDoSMECGwhkEXBoyufU3n3Le53EwECBAj0R+Afqysvr3xHZX7YIwgQINA7AQvg3h0SHSJAYBuBk+v2/J3wD1S6dhWCIECAQA8E/q368H8q8/e9f1kpCBAg0GsBRWSvD4/OESCwhUA+RiUL4cdX5k16BAECBAisX+DyavJ3K7PwzceYCQIECAxCwAJ4EIdJJwkQ2ELgmLrtpyt/qvJGW9zvJgIECBDoXuD82uWrK19VeW73u7dHAgQIrFbAAni1vvZOgMDqBfKGQE+ofFblrSsFAQIECHQv8Ona5a9VvrEybwInCBAgMEgBC+BBHjadJkBgC4ED6rYfrMxvhR9Q6fpWCIIAAQJLCOTve/+8Mr/tfVfl7kpBgACBQQsoEAd9+HSeAIFtBE6s259e+YTKoyoFAQIECMwu8NV66Bsrf7vyzEpBgACB0QhYAI/mUBoIAQJbCORNsn6k8icr773F/W4iQIAAgasF/q6+fW3l71fmTa4EAQIERidgATy6Q2pABAhsI3CXuj0L4cdVHr7NY9xMgACBqQlcXAP+n5VZ+H5kaoM3XgIEpidgATy9Y27EBKYucEQB5COUnlx596ljGD8BApMV+Mca+f+ozEcZXTRZBQMnQGByAhbAkzvkBkyAwCaBO9b3T6rMb4WP3nS7bwkQIDBGgfNqUPlt7+9U/tMYB2hMBAgQ2EnAAngnIfcTIDAFgYNrkA+tzGL4IZUHVQoCBAiMQeDKGsSfVGbR+57KXZWCAAECkxWwAJ7soTdwAgS2Ebhp3f5jlU+svN02j3EzAQIE+i7wiergGyrfUvmlvndW/wgQILAuAQvgdUlrhwCBIQrcuzqdvxf+4UovkR7iEdRnAtMSyEuc316Zv+vNOzoLAgQIENhLwAJ4LxD/JUCAwBYCeUn0AysfW/mISu8iXQiCAIFeCORdnP9X5e9Vvq8yL3kWBAgQILCNgAXwNjBuJkCAwDYCh9XtP1iZxXD+Xvg6lYIAAQLrFPhGNZa/682i912Vl1UKAgQIEJhBwAJ4BiQPIUCAwDYCN6zbH12ZxfD9Kw+oFAQIEFiFwO7a6Qcrs+h9R+UFlYIAAQIE5hSwAJ4TzMMJECCwjcBN6va8PPpRlSdXeifpQhAECCwlkJcz/2XlOyvzMucvVwoCBAgQWELAAngJPJsSIEBgG4Eb1e0Pr8xiOH877GXShSAIEJhJIC9vzt/yZtH7R5XnVwoCBAgQ6EjAArgjSLshQIDANgLXr9sfVpnFcP5mOH9DLAgQILBZIH/Dm7/pzaL33ZUXVgoCBAgQWIGABfAKUO2SAAEC2whcr25/cOVDK/9jZV42LQgQmKZAXs783sr3VP5p5SWVggABAgRWLGABvGJguydAgMA2Arn+3qMyi+HkXSsFAQLjFjijhpcFb/L0yn+rFAQIECCwRgEL4DVia4oAAQL7EDiu7ttYDH9ffe+l0vvAcheBgQjkpc3vr9xY9H5xIP3WTQIECIxWwAJ4tIfWwAgQGLBAFr/fW5mXS39/5e0qBQECwxD4RHXz1Mq8rPkvKrMIFgQIECDQEwEL4J4cCN0gQIDAPgS+s+7LQjiZd5U+ulIQINAPgfOqG3nX5ix6k1+oFAQIECDQUwEL4J4eGN0iQIDANgK5bt+58kGVWRDfr/LQSkGAwHoELq9m/royi90/q/xopb/lLQRBgACBIQhYAA/hKOkjAQIEthfI4ve+lSdV3r/y3pUWxIUgCHQkkAXv31V+sPIDlX9bmdsEAQIECAxQwAJ4gAdNlwkQILAPgevUffes3FgQZ3F8+D4e7y4CBK4pcHH9N4vcjQXv39f337jmQ/yPAAECBIYqYAE81COn3wQIEJhN4KB62N0qNxbE+Q3xjWfb1KMITELgKzXKzb/h/XD9/8pJjNwgCRAgMEEBC+AJHnRDJkBg8gK3LoF7VWYxnMzfFB9cKQiMXWBXDTB/s5sFb/JDlZ+uFAQIECAwEQEL4IkcaMMkQIDAPgQOrfvyW+IshjcWxsfv4/HuIjAUgbOroxsL3XzNb3cvH0rn9ZMAAQIEuhewAO7e1B4JECAwBoGb1iDuulfeqv5v3hjD0R3fGPIuzJ+tPGOv/NL4hmpEBAgQILCMgEJmGT3bEiBAYFoC16/h3qVy88L49vX//J2xILAugfx97scrNy92P1L/v3BdHdAOAQIECAxXwAJ4uMdOzwkQINAHgUOqE1kEJ++w6Wt+W3xApSCwqMDu2jC/1f1YZRa8G1/z/RWVggABAgQIzC1gATw3mQ0IECBAYAaB/F3xbSo3FsUbC+QsjP3GeAbACT0kv9HdvNDdWOx+qm7397oTeiIYKgECBNYhYAG8DmVtECBAgMCGQBa/t6jMO1GfsOdrvk/esjK/URbjE8hvbD9XmXdc3sjP7Pn+rPqaRbAgQIAAAQIrF7AAXjmxBggQIEBgRoG8ZPo7KzcviG9W/9/I3Ofjmgqhh5GPF/pC5TmbcvOCN/flJc2CAAECBAg0FbAAbsqvcQIECBCYQyBzVt6demNBfPym74+t72+yJw+vr6I7gYtrV1/ek/9SXzcWuWdv+j7vtpx3YhYECBAgQKDXAhbAvT48OkeAAAECCwgcVttsLIbz9ZhN/8/3R1ceWXnDPV9vUF+n8oZd+S3s1yu/VnnBnq/n1ddzKzcWuZu/z22XVQoCBAgQIDAKAQvgURxGgyBAgACBJQQyFx5RuXlRnO+TWRxfd6/MAnvjtr2/z0u0D9yTB236fqvb6u79rtqT+RvYje83vm6+LS8xzkL00j253fcb928scrPQTW4sdi+q7/2mthAEAQIECBAgQIAAAQIECBAgQIAAAQIECBAgQIAAAQIECBAgQIAAAQIECBAgQIAAAQIECBAgQIAAAQIECBAgQIAAAQIECBAgQIAAAQIECBAgQIAAAQIECBAgQIAAAQIECBAgQIAAAQIECBAgQIAAAQIECBAgQIAAAQIECBAgQIAAAQIECBAgQIAAAQIECBAgQIAAAQIECBAgQIAAAQIECBAgQIAAAQIECBAgQIAAAQIECBAgQIAAAQIECBAgQIAAAQIECBAgQIAAAQIECBAgQIAAAQIECBAgQIAAAQIECBAgQIAAAQIECBAgQIAAAQIECBAgQIAAAQIECBAgQIAAAQIECBAgQIAAAQIECBAgQIAAAQIECBAgQIAAAQIECBAgQIAAAQIECBAgQIAAAQIECBAgQIAAAQIECBAgQIAAAQIECBAgQIAAAQIECBAgQIAAAQIECBAgQIAAAQIECBAgQIAAAQIECBAgQIAAAQIECBAgQIAAAQIECBAgQIAAAQIECBAgQIAAAQIECBAgQIAAAQIECBAgQIAAAQIECBAgQIAAAQIECBAgQIAAAQIECBAgQIAAAQIECBAgQIAAAQIECBAgQIAAAQIECBAgQIAAAQIECBAgQIAAAQIECBAgQIAAAQIECBAgQIAAAQIECBAgQIAAAQIECBAgQIAAAQIECBAgQIAAAQIECBAgQIAAAQIECBAgQIAAAQIECBAgQIAAAQIECBAgQIAAAQIECBAgQIAAAQIECBAgQIAAAQIECBAgQIAAAQIECBAgQIAAAQIECBAgQIAAAQIECBAgQIAAAQIECBAgQIAAAQIECBAgQIAAAQIECBAgQIAAAQIECBAgQIAAAQIECBAgQIAAAQIECBAgQIAAAQIECBAgQIAAAQIECBAgQIBAG4H/DySviIlYUjJVAAAAAElFTkSuQmCC;fontSize=9;container=0;sketch=1;curveFitting=1;jiggle=2;" vertex="1" parent="1">
          <mxGeometry x="157" y="1368.42" width="30" height="30" as="geometry" />
        </mxCell>
        <mxCell id="SbOrLHO62iq7vJSmLNVX-22" value="" style="endArrow=none;dashed=1;html=1;strokeWidth=2;rounded=0;exitX=1;exitY=0.5;exitDx=0;exitDy=0;entryX=-0.028;entryY=0.43;entryDx=0;entryDy=0;entryPerimeter=0;dashPattern=1 2;fontSize=9;sketch=1;curveFitting=1;jiggle=2;" edge="1" parent="1" source="SbOrLHO62iq7vJSmLNVX-15" target="SbOrLHO62iq7vJSmLNVX-36">
          <mxGeometry width="50" height="50" relative="1" as="geometry">
            <mxPoint x="423" y="1500" as="sourcePoint" />
            <mxPoint x="473" y="1450" as="targetPoint" />
          </mxGeometry>
        </mxCell>
        <mxCell id="SbOrLHO62iq7vJSmLNVX-23" value="Polling status" style="edgeStyle=orthogonalEdgeStyle;rounded=0;orthogonalLoop=1;jettySize=auto;html=1;verticalAlign=middle;fontSize=9;sketch=1;curveFitting=1;jiggle=2;" edge="1" parent="1" source="SbOrLHO62iq7vJSmLNVX-36" target="SbOrLHO62iq7vJSmLNVX-11">
          <mxGeometry x="0.001" relative="1" as="geometry">
            <Array as="points">
              <mxPoint x="513" y="1470" />
              <mxPoint x="513" y="1470" />
            </Array>
            <mxPoint as="offset" />
          </mxGeometry>
        </mxCell>
        <mxCell id="SbOrLHO62iq7vJSmLNVX-24" style="edgeStyle=orthogonalEdgeStyle;rounded=0;orthogonalLoop=1;jettySize=auto;html=1;verticalAlign=top;align=center;fontSize=9;sketch=1;curveFitting=1;jiggle=2;" edge="1" parent="1">
          <mxGeometry relative="1" as="geometry">
            <mxPoint x="482.8299999999999" y="1450" as="sourcePoint" />
            <mxPoint x="642.83" y="1450" as="targetPoint" />
            <Array as="points">
              <mxPoint x="522.83" y="1450" />
              <mxPoint x="522.83" y="1450" />
            </Array>
          </mxGeometry>
        </mxCell>
        <mxCell id="SbOrLHO62iq7vJSmLNVX-25" value="Launch Spark Job&lt;br style=&quot;font-size: 9px;&quot;&gt;" style="edgeLabel;html=1;align=center;verticalAlign=bottom;resizable=0;points=[];fontSize=9;container=0;" vertex="1" connectable="0" parent="SbOrLHO62iq7vJSmLNVX-24">
          <mxGeometry x="-0.5503" y="-1" relative="1" as="geometry">
            <mxPoint x="30" as="offset" />
          </mxGeometry>
        </mxCell>
        <mxCell id="SbOrLHO62iq7vJSmLNVX-26" value="GET /scheduler/runs/{run_id}" style="text;html=1;strokeColor=none;fillColor=none;align=left;verticalAlign=middle;whiteSpace=wrap;rounded=0;fontSize=9;container=0;" vertex="1" parent="1">
          <mxGeometry x="143" y="1230" width="140" height="30" as="geometry" />
        </mxCell>
        <mxCell id="SbOrLHO62iq7vJSmLNVX-27" value="GET /scheduler/trigger/{trigger_id}" style="text;html=1;strokeColor=none;fillColor=none;align=left;verticalAlign=middle;whiteSpace=wrap;rounded=0;fontSize=9;container=0;" vertex="1" parent="1">
          <mxGeometry x="143" y="1260" width="170" height="30" as="geometry" />
        </mxCell>
        <mxCell id="SbOrLHO62iq7vJSmLNVX-28" value="GET /scheduler/job/{job_id}" style="text;html=1;strokeColor=none;fillColor=none;align=left;verticalAlign=middle;whiteSpace=wrap;rounded=0;fontSize=9;container=0;" vertex="1" parent="1">
          <mxGeometry x="143" y="1290" width="180" height="30" as="geometry" />
        </mxCell>
        <mxCell id="SbOrLHO62iq7vJSmLNVX-29" style="edgeStyle=orthogonalEdgeStyle;rounded=0;orthogonalLoop=1;jettySize=auto;html=1;entryX=1;entryY=0.5;entryDx=0;entryDy=0;fontSize=9;sketch=1;curveFitting=1;jiggle=2;" edge="1" parent="1" source="SbOrLHO62iq7vJSmLNVX-31" target="SbOrLHO62iq7vJSmLNVX-19">
          <mxGeometry relative="1" as="geometry">
            <Array as="points">
              <mxPoint x="373" y="1335" />
              <mxPoint x="373" y="1498" />
            </Array>
          </mxGeometry>
        </mxCell>
        <mxCell id="SbOrLHO62iq7vJSmLNVX-30" value="create trigger for job3&lt;br style=&quot;font-size: 9px;&quot;&gt;with startNow()" style="edgeLabel;html=1;align=center;verticalAlign=middle;resizable=0;points=[];fontSize=9;container=0;" vertex="1" connectable="0" parent="SbOrLHO62iq7vJSmLNVX-29">
          <mxGeometry x="-0.5322" y="-1" relative="1" as="geometry">
            <mxPoint as="offset" />
          </mxGeometry>
        </mxCell>
        <mxCell id="SbOrLHO62iq7vJSmLNVX-31" value="POST scheduler/manualTrigger/{job3}" style="text;html=1;strokeColor=none;fillColor=none;align=left;verticalAlign=middle;whiteSpace=wrap;rounded=0;fontSize=9;container=0;" vertex="1" parent="1">
          <mxGeometry x="143" y="1320" width="168" height="30" as="geometry" />
        </mxCell>
        <mxCell id="SbOrLHO62iq7vJSmLNVX-32" style="rounded=0;orthogonalLoop=1;jettySize=auto;html=1;entryX=0;entryY=0.5;entryDx=0;entryDy=0;fontSize=9;sketch=1;curveFitting=1;jiggle=2;endArrow=open;endFill=0;" edge="1" parent="1" source="SbOrLHO62iq7vJSmLNVX-5" target="SbOrLHO62iq7vJSmLNVX-27">
          <mxGeometry relative="1" as="geometry" />
        </mxCell>
        <mxCell id="SbOrLHO62iq7vJSmLNVX-33" value="" style="endArrow=open;html=1;rounded=0;entryX=0;entryY=0.5;entryDx=0;entryDy=0;fontSize=9;sketch=1;curveFitting=1;jiggle=2;endFill=0;" edge="1" parent="1" source="SbOrLHO62iq7vJSmLNVX-5" target="SbOrLHO62iq7vJSmLNVX-26">
          <mxGeometry width="50" height="50" relative="1" as="geometry">
            <mxPoint x="383" y="1490" as="sourcePoint" />
            <mxPoint x="433" y="1440" as="targetPoint" />
          </mxGeometry>
        </mxCell>
        <mxCell id="SbOrLHO62iq7vJSmLNVX-34" style="rounded=0;orthogonalLoop=1;jettySize=auto;html=1;entryX=0;entryY=0.5;entryDx=0;entryDy=0;fontSize=9;sketch=1;curveFitting=1;jiggle=2;endArrow=open;endFill=0;" edge="1" parent="1" source="SbOrLHO62iq7vJSmLNVX-5" target="SbOrLHO62iq7vJSmLNVX-28">
          <mxGeometry relative="1" as="geometry" />
        </mxCell>
        <mxCell id="SbOrLHO62iq7vJSmLNVX-35" style="rounded=0;orthogonalLoop=1;jettySize=auto;html=1;entryX=0;entryY=0.5;entryDx=0;entryDy=0;fontSize=9;sketch=1;curveFitting=1;jiggle=2;endArrow=open;endFill=0;" edge="1" parent="1" source="SbOrLHO62iq7vJSmLNVX-5" target="SbOrLHO62iq7vJSmLNVX-31">
          <mxGeometry relative="1" as="geometry" />
        </mxCell>
        <mxCell id="SbOrLHO62iq7vJSmLNVX-36" value="Job 1" style="rounded=0;whiteSpace=wrap;html=1;verticalAlign=top;fontSize=9;sketch=1;curveFitting=1;jiggle=2;container=0;" vertex="1" parent="1">
          <mxGeometry x="393" y="1416.05" width="90" height="100" as="geometry" />
        </mxCell>
        <mxCell id="SbOrLHO62iq7vJSmLNVX-37" value="- Jar&lt;br style=&quot;font-size: 9px;&quot;&gt;- Main class&lt;br style=&quot;font-size: 9px;&quot;&gt;- Args&lt;br style=&quot;font-size: 9px;&quot;&gt;- CPU&lt;br style=&quot;font-size: 9px;&quot;&gt;- Memory&lt;br style=&quot;font-size: 9px;&quot;&gt;- Name&lt;br style=&quot;font-size: 9px;&quot;&gt;. . ." style="text;strokeColor=none;fillColor=none;align=left;verticalAlign=middle;spacingLeft=4;spacingRight=4;overflow=hidden;points=[[0,0.5],[1,0.5]];portConstraint=eastwest;rotatable=0;whiteSpace=wrap;html=1;fontSize=9;sketch=1;curveFitting=1;jiggle=2;container=0;" vertex="1" parent="1">
          <mxGeometry x="402" y="1434.1375" width="72" height="75.6625" as="geometry" />
        </mxCell>
      </root>
    </mxGraphModel>
  </diagram>
</mxfile>
